<svg id="my-svg" width="100%" xmlns="http://www.w3.org/2000/svg" xmlns:xlink="http://www.w3.org/1999/xlink" class="flowchart" style="max-width: 563.672px; background-color: transparent;" viewBox="0 0 563.671875 1410" role="graphics-document document" aria-roledescription="flowchart-v2"><style>#my-svg{font-family:"trebuchet ms",verdana,arial,sans-serif;font-size:16px;fill:#333;}@keyframes edge-animation-frame{from{stroke-dashoffset:0;}}@keyframes dash{to{stroke-dashoffset:0;}}#my-svg .edge-animation-slow{stroke-dasharray:9,5!important;stroke-dashoffset:900;animation:dash 50s linear infinite;stroke-linecap:round;}#my-svg .edge-animation-fast{stroke-dasharray:9,5!important;stroke-dashoffset:900;animation:dash 20s linear infinite;stroke-linecap:round;}#my-svg .error-icon{fill:#552222;}#my-svg .error-text{fill:#552222;stroke:#552222;}#my-svg .edge-thickness-normal{stroke-width:1px;}#my-svg .edge-thickness-thick{stroke-width:3.5px;}#my-svg .edge-pattern-solid{stroke-dasharray:0;}#my-svg .edge-thickness-invisible{stroke-width:0;fill:none;}#my-svg .edge-pattern-dashed{stroke-dasharray:3;}#my-svg .edge-pattern-dotted{stroke-dasharray:2;}#my-svg .marker{fill:#333333;stroke:#333333;}#my-svg .marker.cross{stroke:#333333;}#my-svg svg{font-family:"trebuchet ms",verdana,arial,sans-serif;font-size:16px;}#my-svg p{margin:0;}#my-svg .label{font-family:"trebuchet ms",verdana,arial,sans-serif;color:#333;}#my-svg .cluster-label text{fill:#333;}#my-svg .cluster-label span{color:#333;}#my-svg .cluster-label span p{background-color:transparent;}#my-svg .label text,#my-svg span{fill:#333;color:#333;}#my-svg .node rect,#my-svg .node circle,#my-svg .node ellipse,#my-svg .node polygon,#my-svg .node path{fill:#ECECFF;stroke:#9370DB;stroke-width:1px;}#my-svg .rough-node .label text,#my-svg .node .label text,#my-svg .image-shape .label,#my-svg .icon-shape .label{text-anchor:middle;}#my-svg .node .katex path{fill:#000;stroke:#000;stroke-width:1px;}#my-svg .rough-node .label,#my-svg .node .label,#my-svg .image-shape .label,#my-svg .icon-shape .label{text-align:center;}#my-svg .node.clickable{cursor:pointer;}#my-svg .root .anchor path{fill:#333333!important;stroke-width:0;stroke:#333333;}#my-svg .arrowheadPath{fill:#333333;}#my-svg .edgePath .path{stroke:#333333;stroke-width:1px;}#my-svg .flowchart-link{stroke:#333333;fill:none;}#my-svg .edgeLabel{background-color:rgba(232,232,232, 0.8);text-align:center;}#my-svg .edgeLabel p{background-color:rgba(232,232,232, 0.8);}#my-svg .edgeLabel rect{opacity:0.5;background-color:rgba(232,232,232, 0.8);fill:rgba(232,232,232, 0.8);}#my-svg .labelBkg{background-color:rgba(232, 232, 232, 0.5);}#my-svg .cluster rect{fill:#ffffde;stroke:#aaaa33;stroke-width:1px;}#my-svg .cluster text{fill:#333;}#my-svg .cluster span{color:#333;}#my-svg div.mermaidTooltip{position:absolute;text-align:center;max-width:200px;padding:2px;font-family:"trebuchet ms",verdana,arial,sans-serif;font-size:12px;background:hsl(80, 100%, 96.2745098039%);border:1px solid #aaaa33;border-radius:2px;pointer-events:none;z-index:100;}#my-svg .flowchartTitleText{text-anchor:middle;font-size:18px;fill:#333;}#my-svg rect.text{fill:none;stroke-width:0;}#my-svg .icon-shape,#my-svg .image-shape{background-color:rgba(232,232,232, 0.8);text-align:center;}#my-svg .icon-shape p,#my-svg .image-shape p{background-color:rgba(232,232,232, 0.8);padding:2px;}#my-svg .icon-shape .label rect,#my-svg .image-shape .label rect{opacity:0.5;background-color:rgba(232,232,232, 0.8);fill:rgba(232,232,232, 0.8);}#my-svg .label-icon{display:inline-block;height:1em;overflow:visible;vertical-align:-0.125em;}#my-svg .node .label-icon path{fill:currentColor;stroke:revert;stroke-width:revert;}#my-svg .node .neo-node{stroke:#9370DB;}#my-svg [data-look="neo"].node rect,#my-svg [data-look="neo"].cluster rect,#my-svg [data-look="neo"].node polygon{stroke:#9370DB;filter:drop-shadow(1px 2px 2px rgba(185, 185, 185, 1));}#my-svg [data-look="neo"].node path{stroke:#9370DB;stroke-width:1px;}#my-svg [data-look="neo"].node .outer-path{filter:drop-shadow(1px 2px 2px rgba(185, 185, 185, 1));}#my-svg [data-look="neo"].node .neo-line path{stroke:#9370DB;filter:none;}#my-svg [data-look="neo"].node circle{stroke:#9370DB;filter:drop-shadow(1px 2px 2px rgba(185, 185, 185, 1));}#my-svg [data-look="neo"].node circle .state-start{fill:#000000;}#my-svg [data-look="neo"].icon-shape .icon{fill:#9370DB;filter:drop-shadow(1px 2px 2px rgba(185, 185, 185, 1));}#my-svg [data-look="neo"].icon-shape .icon-neo path{stroke:#9370DB;filter:drop-shadow(1px 2px 2px rgba(185, 185, 185, 1));}#my-svg :root{--mermaid-font-family:"trebuchet ms",verdana,arial,sans-serif;}</style><g><marker id="my-svg_flowchart-v2-pointEnd" class="marker flowchart-v2" viewBox="0 0 10 10" refX="5" refY="5" markerUnits="userSpaceOnUse" markerWidth="8" markerHeight="8" orient="auto"><path d="M 0 0 L 10 5 L 0 10 z" class="arrowMarkerPath" style="stroke-width: 1; stroke-dasharray: 1, 0;"/></marker><marker id="my-svg_flowchart-v2-pointStart" class="marker flowchart-v2" viewBox="0 0 10 10" refX="4.5" refY="5" markerUnits="userSpaceOnUse" markerWidth="8" markerHeight="8" orient="auto"><path d="M 0 5 L 10 10 L 10 0 z" class="arrowMarkerPath" style="stroke-width: 1; stroke-dasharray: 1, 0;"/></marker><marker id="my-svg_flowchart-v2-pointEnd-margin" class="marker flowchart-v2" viewBox="0 0 11.5 14" refX="11.5" refY="7" markerUnits="userSpaceOnUse" markerWidth="10.5" markerHeight="14" orient="auto"><path d="M 0 0 L 11.5 7 L 0 14 z" class="arrowMarkerPath" style="stroke-width: 0; stroke-dasharray: 1, 0;"/></marker><marker id="my-svg_flowchart-v2-pointStart-margin" class="marker flowchart-v2" viewBox="0 0 11.5 14" refX="1" refY="7" markerUnits="userSpaceOnUse" markerWidth="11.5" markerHeight="14" orient="auto"><polygon points="0,7 11.5,14 11.5,0" class="arrowMarkerPath" style="stroke-width: 0; stroke-dasharray: 1, 0;"/></marker><marker id="my-svg_flowchart-v2-circleEnd" class="marker flowchart-v2" viewBox="0 0 10 10" refX="11" refY="5" markerUnits="userSpaceOnUse" markerWidth="11" markerHeight="11" orient="auto"><circle cx="5" cy="5" r="5" class="arrowMarkerPath" style="stroke-width: 1; stroke-dasharray: 1, 0;"/></marker><marker id="my-svg_flowchart-v2-circleStart" class="marker flowchart-v2" viewBox="0 0 10 10" refX="-1" refY="5" markerUnits="userSpaceOnUse" markerWidth="11" markerHeight="11" orient="auto"><circle cx="5" cy="5" r="5" class="arrowMarkerPath" style="stroke-width: 1; stroke-dasharray: 1, 0;"/></marker><marker id="my-svg_flowchart-v2-circleEnd-margin" class="marker flowchart-v2" viewBox="0 0 10 10" refY="5" refX="12.25" markerUnits="userSpaceOnUse" markerWidth="14" markerHeight="14" orient="auto"><circle cx="5" cy="5" r="5" class="arrowMarkerPath" style="stroke-width: 0; stroke-dasharray: 1, 0;"/></marker><marker id="my-svg_flowchart-v2-circleStart-margin" class="marker flowchart-v2" viewBox="0 0 10 10" refX="-2" refY="5" markerUnits="userSpaceOnUse" markerWidth="14" markerHeight="14" orient="auto"><circle cx="5" cy="5" r="5" class="arrowMarkerPath" style="stroke-width: 0; stroke-dasharray: 1, 0;"/></marker><marker id="my-svg_flowchart-v2-crossEnd" class="marker cross flowchart-v2" viewBox="0 0 11 11" refX="12" refY="5.2" markerUnits="userSpaceOnUse" markerWidth="11" markerHeight="11" orient="auto"><path d="M 1,1 l 9,9 M 10,1 l -9,9" class="arrowMarkerPath" style="stroke-width: 2; stroke-dasharray: 1, 0;"/></marker><marker id="my-svg_flowchart-v2-crossStart" class="marker cross flowchart-v2" viewBox="0 0 11 11" refX="-1" refY="5.2" markerUnits="userSpaceOnUse" markerWidth="11" markerHeight="11" orient="auto"><path d="M 1,1 l 9,9 M 10,1 l -9,9" class="arrowMarkerPath" style="stroke-width: 2; stroke-dasharray: 1, 0;"/></marker><marker id="my-svg_flowchart-v2-crossEnd-margin" class="marker cross flowchart-v2" viewBox="0 0 15 15" refX="17.7" refY="7.5" markerUnits="userSpaceOnUse" markerWidth="12" markerHeight="12" orient="auto"><path d="M 1,1 L 14,14 M 1,14 L 14,1" class="arrowMarkerPath" style="stroke-width: 2.5;"/></marker><marker id="my-svg_flowchart-v2-crossStart-margin" class="marker cross flowchart-v2" viewBox="0 0 15 15" refX="-3.5" refY="7.5" markerUnits="userSpaceOnUse" markerWidth="12" markerHeight="12" orient="auto"><path d="M 1,1 L 14,14 M 1,14 L 14,1" class="arrowMarkerPath" style="stroke-width: 2.5; stroke-dasharray: 1, 0;"/></marker><g class="root"><g class="clusters"><g class="cluster" id="my-svg-工业标准与技术" data-look="classic"><rect style="" x="8" y="8" width="241.640625" height="1394"/><g class="cluster-label" transform="translate(72.8203125, 8)"><foreignObject width="112" height="24"><div xmlns="http://www.w3.org/1999/xhtml" style="display: table-cell; white-space: nowrap; line-height: 1.5;"><span class="nodeLabel"><p>工业标准与技术</p></span></div></foreignObject></g></g><g class="cluster" id="my-svg-评估维度" data-look="classic"><rect style="" x="315.640625" y="8" width="240.03125" height="1394"/><g class="cluster-label" transform="translate(403.65625, 8)"><foreignObject width="64" height="24"><div xmlns="http://www.w3.org/1999/xhtml" style="display: table-cell; white-space: nowrap; line-height: 1.5;"><span class="nodeLabel"><p>评估维度</p></span></div></foreignObject></g></g></g><g class="edgePaths"><path d="M137.271,418L156,358.167C174.728,298.333,212.184,178.667,236.412,118.833C260.641,59,271.641,59,282.641,59C293.641,59,304.641,59,326.251,79.806C347.861,100.612,380.081,142.225,396.191,163.031L412.301,183.837" id="my-svg-L_ISA95_D1_0" class="edge-thickness-normal edge-pattern-solid edge-thickness-normal edge-pattern-solid flowchart-link" style=";" data-edge="true" data-et="edge" data-id="L_ISA95_D1_0" data-points="W3sieCI6MTM3LjI3MTQ3NDI1NTE4MTM1LCJ5Ijo0MTh9LHsieCI6MjQ5LjY0MDYyNSwieSI6NTl9LHsieCI6MjgyLjY0MDYyNSwieSI6NTl9LHsieCI6MzE1LjY0MDYyNSwieSI6NTl9LHsieCI6NDE0Ljc1MDMwMjQxOTM1NDg1LCJ5IjoxODd9XQ==" data-look="classic" marker-end="url(#my-svg_flowchart-v2-pointEnd)"/><path d="M155.559,418L171.239,402.167C186.92,386.333,218.28,354.667,239.46,338.833C260.641,323,271.641,323,282.641,323C293.641,323,304.641,323,326.251,343.806C347.861,364.612,380.081,406.225,396.191,427.031L412.301,447.837" id="my-svg-L_ISA95_D2_0" class="edge-thickness-normal edge-pattern-solid edge-thickness-normal edge-pattern-solid flowchart-link" style=";" data-edge="true" data-et="edge" data-id="L_ISA95_D2_0" data-points="W3sieCI6MTU1LjU1OTIzNDExODg1MjQ2LCJ5Ijo0MTh9LHsieCI6MjQ5LjY0MDYyNSwieSI6MzIzfSx7IngiOjI4Mi42NDA2MjUsInkiOjMyM30seyJ4IjozMTUuNjQwNjI1LCJ5IjozMjN9LHsieCI6NDE0Ljc1MDMwMjQxOTM1NDg1LCJ5Ijo0NTF9XQ==" data-look="classic" marker-end="url(#my-svg_flowchart-v2-pointEnd)"/><path d="M139.992,472L158.267,516.167C176.542,560.333,213.091,648.667,236.866,692.833C260.641,737,271.641,737,282.641,737C293.641,737,304.641,737,327.172,766.091C349.703,795.183,383.766,853.365,400.797,882.457L417.828,911.548" id="my-svg-L_ISA95_D3_0" class="edge-thickness-normal edge-pattern-solid edge-thickness-normal edge-pattern-solid flowchart-link" style=";" data-edge="true" data-et="edge" data-id="L_ISA95_D3_0" data-points="W3sieCI6MTM5Ljk5MjA1MzcyNDMxNTA3LCJ5Ijo0NzJ9LHsieCI6MjQ5LjY0MDYyNSwieSI6NzM3fSx7IngiOjI4Mi42NDA2MjUsInkiOjczN30seyJ4IjozMTUuNjQwNjI1LCJ5Ijo3Mzd9LHsieCI6NDE5Ljg0OTMxNDAyNDM5MDI1LCJ5Ijo5MTV9XQ==" data-look="classic" marker-end="url(#my-svg_flowchart-v2-pointEnd)"/><path d="M133.507,472L152.863,583.5C172.218,695,210.93,918,235.785,1029.5C260.641,1141,271.641,1141,282.641,1141C293.641,1141,304.641,1141,321.248,1147.016C337.856,1153.032,360.071,1165.063,371.179,1171.079L382.286,1177.095" id="my-svg-L_ISA95_D4_0" class="edge-thickness-normal edge-pattern-solid edge-thickness-normal edge-pattern-solid flowchart-link" style=";" data-edge="true" data-et="edge" data-id="L_ISA95_D4_0" data-points="W3sieCI6MTMzLjUwNzMwNzM4MTQ2NTUyLCJ5Ijo0NzJ9LHsieCI6MjQ5LjY0MDYyNSwieSI6MTE0MX0seyJ4IjoyODIuNjQwNjI1LCJ5IjoxMTQxfSx7IngiOjMxNS42NDA2MjUsInkiOjExNDF9LHsieCI6Mzg1LjgwMzYwNTc2OTIzMDgsInkiOjExNzl9XQ==" data-look="classic" marker-end="url(#my-svg_flowchart-v2-pointEnd)"/><path d="M136.135,522L155.052,452.167C173.97,382.333,211.805,242.667,236.223,172.833C260.641,103,271.641,103,282.641,103C293.641,103,304.641,103,324.788,116.547C344.936,130.095,374.231,157.189,388.879,170.737L403.527,184.284" id="my-svg-L_OPCUA_D1_0" class="edge-thickness-normal edge-pattern-solid edge-thickness-normal edge-pattern-solid flowchart-link" style=";" data-edge="true" data-et="edge" data-id="L_OPCUA_D1_0" data-points="W3sieCI6MTM2LjEzNDU0NjY2NDc5ODIsInkiOjUyMn0seyJ4IjoyNDkuNjQwNjI1LCJ5IjoxMDN9LHsieCI6MjgyLjY0MDYyNSwieSI6MTAzfSx7IngiOjMxNS42NDA2MjUsInkiOjEwM30seyJ4Ijo0MDYuNDYzMjYwMTM1MTM1MTYsInkiOjE4N31d" data-look="classic" marker-end="url(#my-svg_flowchart-v2-pointEnd)"/><path d="M150.282,522L166.842,501.167C183.401,480.333,216.521,438.667,238.581,417.833C260.641,397,271.641,397,282.641,397C293.641,397,304.641,397,322.923,405.627C341.206,414.254,366.771,431.508,379.553,440.135L392.336,448.762" id="my-svg-L_OPCUA_D2_0" class="edge-thickness-normal edge-pattern-solid edge-thickness-normal edge-pattern-solid flowchart-link" style=";" data-edge="true" data-et="edge" data-id="L_OPCUA_D2_0" data-points="W3sieCI6MTUwLjI4MTgxNTM3ODI4OTQ4LCJ5Ijo1MjJ9LHsieCI6MjQ5LjY0MDYyNSwieSI6Mzk3fSx7IngiOjI4Mi42NDA2MjUsInkiOjM5N30seyJ4IjozMTUuNjQwNjI1LCJ5IjozOTd9LHsieCI6Mzk1LjY1MTA0MTY2NjY2NjcsInkiOjQ1MX1d" data-look="classic" marker-end="url(#my-svg_flowchart-v2-pointEnd)"/><path d="M141.765,576L159.745,613.5C177.724,651,213.682,726,237.161,763.5C260.641,801,271.641,801,282.641,801C293.641,801,304.641,801,325.881,819.492C347.121,837.985,378.601,874.969,394.342,893.462L410.082,911.954" id="my-svg-L_OPCUA_D3_0" class="edge-thickness-normal edge-pattern-solid edge-thickness-normal edge-pattern-solid flowchart-link" style=";" data-edge="true" data-et="edge" data-id="L_OPCUA_D3_0" data-points="W3sieCI6MTQxLjc2NTM0NTk4MjE0Mjg2LCJ5Ijo1NzZ9LHsieCI6MjQ5LjY0MDYyNSwieSI6ODAxfSx7IngiOjI4Mi42NDA2MjUsInkiOjgwMX0seyJ4IjozMTUuNjQwNjI1LCJ5Ijo4MDF9LHsieCI6NDEyLjY3NDUzNDU3NDQ2ODEsInkiOjkxNX1d" data-look="classic" marker-end="url(#my-svg_flowchart-v2-pointEnd)"/><path d="M133.949,576L153.231,677.5C172.513,779,211.077,982,235.859,1083.5C260.641,1185,271.641,1185,282.641,1185C293.641,1185,304.641,1185,317.82,1186.344C330.999,1187.687,346.358,1190.375,354.037,1191.718L361.716,1193.062" id="my-svg-L_OPCUA_D4_0" class="edge-thickness-normal edge-pattern-solid edge-thickness-normal edge-pattern-solid flowchart-link" style=";" data-edge="true" data-et="edge" data-id="L_OPCUA_D4_0" data-points="W3sieCI6MTMzLjk0OTQ3NjcwOTkwNTY3LCJ5Ijo1NzZ9LHsieCI6MjQ5LjY0MDYyNSwieSI6MTE4NX0seyJ4IjoyODIuNjQwNjI1LCJ5IjoxMTg1fSx7IngiOjMxNS42NDA2MjUsInkiOjExODV9LHsieCI6MzY1LjY1NjI1LCJ5IjoxMTkzLjc1MTU5NDg0NDQyMTN9XQ==" data-look="classic" marker-end="url(#my-svg_flowchart-v2-pointEnd)"/><path d="M135.267,626L154.329,546.167C173.392,466.333,211.516,306.667,236.078,226.833C260.641,147,271.641,147,282.641,147C293.641,147,304.641,147,321.5,153.342C338.36,159.683,361.08,172.367,372.439,178.709L383.799,185.05" id="my-svg-L_TSN_D1_0" class="edge-thickness-normal edge-pattern-solid edge-thickness-normal edge-pattern-solid flowchart-link" style=";" data-edge="true" data-et="edge" data-id="L_TSN_D1_0" data-points="W3sieCI6MTM1LjI2NzI0NjE3MDk0ODYyLCJ5Ijo2MjZ9LHsieCI6MjQ5LjY0MDYyNSwieSI6MTQ3fSx7IngiOjI4Mi42NDA2MjUsInkiOjE0N30seyJ4IjozMTUuNjQwNjI1LCJ5IjoxNDd9LHsieCI6Mzg3LjI5MTc0NDQwMjk4NTA1LCJ5IjoxODd9XQ==" data-look="classic" marker-end="url(#my-svg_flowchart-v2-pointEnd)"/><path d="M146.744,626L163.894,600.167C181.043,574.333,215.342,522.667,237.991,496.833C260.641,471,271.641,471,282.641,471C293.641,471,304.641,471,315.144,471.292C325.648,471.584,335.656,472.167,340.659,472.459L345.663,472.751" id="my-svg-L_TSN_D2_0" class="edge-thickness-normal edge-pattern-solid edge-thickness-normal edge-pattern-solid flowchart-link" style=";" data-edge="true" data-et="edge" data-id="L_TSN_D2_0" data-points="W3sieCI6MTQ2Ljc0NDIwNTAxMzczNjI2LCJ5Ijo2MjZ9LHsieCI6MjQ5LjY0MDYyNSwieSI6NDcxfSx7IngiOjI4Mi42NDA2MjUsInkiOjQ3MX0seyJ4IjozMTUuNjQwNjI1LCJ5Ijo0NzF9LHsieCI6MzQ5LjY1NjI1LCJ5Ijo0NzIuOTgzOTg2NDYwMDk2MzN9XQ==" data-look="classic" marker-end="url(#my-svg_flowchart-v2-pointEnd)"/><path d="M143.515,680L161.202,712.5C178.89,745,214.265,810,237.453,842.5C260.641,875,271.641,875,282.641,875C293.641,875,304.641,875,321.5,881.342C338.36,887.683,361.08,900.367,372.439,906.709L383.799,913.05" id="my-svg-L_TSN_D3_0" class="edge-thickness-normal edge-pattern-solid edge-thickness-normal edge-pattern-solid flowchart-link" style=";" data-edge="true" data-et="edge" data-id="L_TSN_D3_0" data-points="W3sieCI6MTQzLjUxNDY3NDgzMTA4MTEsInkiOjY4MH0seyJ4IjoyNDkuNjQwNjI1LCJ5Ijo4NzV9LHsieCI6MjgyLjY0MDYyNSwieSI6ODc1fSx7IngiOjMxNS42NDA2MjUsInkiOjg3NX0seyJ4IjozODcuMjkxNzQ0NDAyOTg1MDUsInkiOjkxNX1d" data-look="classic" marker-end="url(#my-svg_flowchart-v2-pointEnd)"/><path d="M134.484,680L153.677,771.5C172.869,863,211.255,1046,235.948,1137.5C260.641,1229,271.641,1229,282.641,1229C293.641,1229,304.641,1229,317.822,1227.528C331.003,1226.056,346.365,1223.112,354.047,1221.64L361.728,1220.168" id="my-svg-L_TSN_D4_0" class="edge-thickness-normal edge-pattern-solid edge-thickness-normal edge-pattern-solid flowchart-link" style=";" data-edge="true" data-et="edge" data-id="L_TSN_D4_0" data-points="W3sieCI6MTM0LjQ4Mzc2NDY0ODQzNzUsInkiOjY4MH0seyJ4IjoyNDkuNjQwNjI1LCJ5IjoxMjI5fSx7IngiOjI4Mi42NDA2MjUsInkiOjEyMjl9LHsieCI6MzE1LjY0MDYyNSwieSI6MTIyOX0seyJ4IjozNjUuNjU2MjUsInkiOjEyMTkuNDE0OTE5OTMyMzAwNn1d" data-look="classic" marker-end="url(#my-svg_flowchart-v2-pointEnd)"/><path d="M134.584,730L153.76,640.167C172.936,550.333,211.288,370.667,235.964,280.833C260.641,191,271.641,191,282.641,191C293.641,191,304.641,191,314.986,191.929C325.331,192.857,335.022,194.714,339.867,195.643L344.712,196.571" id="my-svg-L_AAS_D1_0" class="edge-thickness-normal edge-pattern-solid edge-thickness-normal edge-pattern-solid flowchart-link" style=";" data-edge="true" data-et="edge" data-id="L_AAS_D1_0" data-points="W3sieCI6MTM0LjU4MzgyNTY0MDQ1OTM3LCJ5Ijo3MzB9LHsieCI6MjQ5LjY0MDYyNSwieSI6MTkxfSx7IngiOjI4Mi42NDA2MjUsInkiOjE5MX0seyJ4IjozMTUuNjQwNjI1LCJ5IjoxOTF9LHsieCI6MzQ4LjY0MDYyNSwieSI6MTk3LjMyNDE3NjUzOTUxMzA4fV0=" data-look="classic" marker-end="url(#my-svg_flowchart-v2-pointEnd)"/><path d="M144.208,730L161.78,699.167C179.352,668.333,214.496,606.667,237.568,575.833C260.641,545,271.641,545,282.641,545C293.641,545,304.641,545,321.5,538.658C338.36,532.317,361.08,519.633,372.439,513.291L383.799,506.95" id="my-svg-L_AAS_D2_0" class="edge-thickness-normal edge-pattern-solid edge-thickness-normal edge-pattern-solid flowchart-link" style=";" data-edge="true" data-et="edge" data-id="L_AAS_D2_0" data-points="W3sieCI6MTQ0LjIwNzgwNTEyOTcxNjk3LCJ5Ijo3MzB9LHsieCI6MjQ5LjY0MDYyNSwieSI6NTQ1fSx7IngiOjI4Mi42NDA2MjUsInkiOjU0NX0seyJ4IjozMTUuNjQwNjI1LCJ5Ijo1NDV9LHsieCI6Mzg3LjI5MTc0NDQwMjk4NTA1LCJ5Ijo1MDV9XQ==" data-look="classic" marker-end="url(#my-svg_flowchart-v2-pointEnd)"/><path d="M145.811,784L163.116,811.5C180.421,839,215.031,894,237.836,921.5C260.641,949,271.641,949,282.641,949C293.641,949,304.641,949,313.642,948.796C322.643,948.592,329.645,948.183,333.146,947.979L336.647,947.775" id="my-svg-L_AAS_D3_0" class="edge-thickness-normal edge-pattern-solid edge-thickness-normal edge-pattern-solid flowchart-link" style=";" data-edge="true" data-et="edge" data-id="L_AAS_D3_0" data-points="W3sieCI6MTQ1LjgxMDY2ODk0NTMxMjUsInkiOjc4NH0seyJ4IjoyNDkuNjQwNjI1LCJ5Ijo5NDl9LHsieCI6MjgyLjY0MDYyNSwieSI6OTQ5fSx7IngiOjMxNS42NDA2MjUsInkiOjk0OX0seyJ4IjozNDAuNjQwNjI1LCJ5Ijo5NDcuNTQxODU2NTI5MDk3OH1d" data-look="classic" marker-end="url(#my-svg_flowchart-v2-pointEnd)"/><path d="M135.142,784L154.225,865.5C173.308,947,211.475,1110,236.058,1191.5C260.641,1273,271.641,1273,282.641,1273C293.641,1273,304.641,1273,321.5,1266.658C338.36,1260.317,361.08,1247.633,372.439,1241.291L383.799,1234.95" id="my-svg-L_AAS_D4_0" class="edge-thickness-normal edge-pattern-solid edge-thickness-normal edge-pattern-solid flowchart-link" style=";" data-edge="true" data-et="edge" data-id="L_AAS_D4_0" data-points="W3sieCI6MTM1LjE0MjMwNTU5NTkzMDIyLCJ5Ijo3ODR9LHsieCI6MjQ5LjY0MDYyNSwieSI6MTI3M30seyJ4IjoyODIuNjQwNjI1LCJ5IjoxMjczfSx7IngiOjMxNS42NDA2MjUsInkiOjEyNzN9LHsieCI6Mzg3LjI5MTc0NDQwMjk4NTA1LCJ5IjoxMjMzfV0=" data-look="classic" marker-end="url(#my-svg_flowchart-v2-pointEnd)"/><path d="M134.031,834L153.3,734.167C172.568,634.333,211.104,434.667,235.872,334.833C260.641,235,271.641,235,282.641,235C293.641,235,304.641,235,314.984,234.153C325.327,233.305,335.014,231.61,339.857,230.763L344.7,229.915" id="my-svg-L_IEC61508_D1_0" class="edge-thickness-normal edge-pattern-solid edge-thickness-normal edge-pattern-solid flowchart-link" style=";" data-edge="true" data-et="edge" data-id="L_IEC61508_D1_0" data-points="W3sieCI6MTM0LjAzMTQxMjI0MDQxNTM0LCJ5Ijo4MzR9LHsieCI6MjQ5LjY0MDYyNSwieSI6MjM1fSx7IngiOjI4Mi42NDA2MjUsInkiOjIzNX0seyJ4IjozMTUuNjQwNjI1LCJ5IjoyMzV9LHsieCI6MzQ4LjY0MDYyNSwieSI6MjI5LjIyNTc1MTg1NTIyNzE3fV0=" data-look="classic" marker-end="url(#my-svg_flowchart-v2-pointEnd)"/><path d="M142.3,834L160.19,798.167C178.08,762.333,213.861,690.667,237.251,654.833C260.641,619,271.641,619,282.641,619C293.641,619,304.641,619,325.881,600.508C347.121,582.015,378.601,545.031,394.342,526.538L410.082,508.046" id="my-svg-L_IEC61508_D2_0" class="edge-thickness-normal edge-pattern-solid edge-thickness-normal edge-pattern-solid flowchart-link" style=";" data-edge="true" data-et="edge" data-id="L_IEC61508_D2_0" data-points="W3sieCI6MTQyLjMwMDI2NDcyMTA3NDM3LCJ5Ijo4MzR9LHsieCI6MjQ5LjY0MDYyNSwieSI6NjE5fSx7IngiOjI4Mi42NDA2MjUsInkiOjYxOX0seyJ4IjozMTUuNjQwNjI1LCJ5Ijo2MTl9LHsieCI6NDEyLjY3NDUzNDU3NDQ2ODEsInkiOjUwNX1d" data-look="classic" marker-end="url(#my-svg_flowchart-v2-pointEnd)"/><path d="M148.957,888L165.738,910.5C182.518,933,216.079,978,238.36,1000.5C260.641,1023,271.641,1023,282.641,1023C293.641,1023,304.641,1023,322.923,1014.373C341.206,1005.746,366.771,988.492,379.553,979.865L392.336,971.238" id="my-svg-L_IEC61508_D3_0" class="edge-thickness-normal edge-pattern-solid edge-thickness-normal edge-pattern-solid flowchart-link" style=";" data-edge="true" data-et="edge" data-id="L_IEC61508_D3_0" data-points="W3sieCI6MTQ4Ljk1NzAzMTI1LCJ5Ijo4ODh9LHsieCI6MjQ5LjY0MDYyNSwieSI6MTAyM30seyJ4IjoyODIuNjQwNjI1LCJ5IjoxMDIzfSx7IngiOjMxNS42NDA2MjUsInkiOjEwMjN9LHsieCI6Mzk1LjY1MTA0MTY2NjY2NjcsInkiOjk2OX1d" data-look="classic" marker-end="url(#my-svg_flowchart-v2-pointEnd)"/><path d="M135.974,888L154.919,959.5C173.863,1031,211.752,1174,236.196,1245.5C260.641,1317,271.641,1317,282.641,1317C293.641,1317,304.641,1317,324.788,1303.453C344.936,1289.905,374.231,1262.811,388.879,1249.263L403.527,1235.716" id="my-svg-L_IEC61508_D4_0" class="edge-thickness-normal edge-pattern-solid edge-thickness-normal edge-pattern-solid flowchart-link" style=";" data-edge="true" data-et="edge" data-id="L_IEC61508_D4_0" data-points="W3sieCI6MTM1Ljk3NDE0Njc5Mjc2MzE1LCJ5Ijo4ODh9LHsieCI6MjQ5LjY0MDYyNSwieSI6MTMxN30seyJ4IjoyODIuNjQwNjI1LCJ5IjoxMzE3fSx7IngiOjMxNS42NDA2MjUsInkiOjEzMTd9LHsieCI6NDA2LjQ2MzI2MDEzNTEzNTE2LCJ5IjoxMjMzfV0=" data-look="classic" marker-end="url(#my-svg_flowchart-v2-pointEnd)"/><path d="M133.576,938L152.92,828.167C172.264,718.333,210.952,498.667,235.796,388.833C260.641,279,271.641,279,282.641,279C293.641,279,304.641,279,321.248,272.984C337.856,266.968,360.071,254.937,371.179,248.921L382.286,242.905" id="my-svg-L_PLCOPEN_D1_0" class="edge-thickness-normal edge-pattern-solid edge-thickness-normal edge-pattern-solid flowchart-link" style=";" data-edge="true" data-et="edge" data-id="L_PLCOPEN_D1_0" data-points="W3sieCI6MTMzLjU3NTYzMDkyMjAxMTY3LCJ5Ijo5Mzh9LHsieCI6MjQ5LjY0MDYyNSwieSI6Mjc5fSx7IngiOjI4Mi42NDA2MjUsInkiOjI3OX0seyJ4IjozMTUuNjQwNjI1LCJ5IjoyNzl9LHsieCI6Mzg1LjgwMzYwNTc2OTIzMDgsInkiOjI0MX1d" data-look="classic" marker-end="url(#my-svg_flowchart-v2-pointEnd)"/><path d="M140.814,938L158.951,897.167C177.089,856.333,213.365,774.667,237.003,733.833C260.641,693,271.641,693,282.641,693C293.641,693,304.641,693,327.306,662.249C349.972,631.498,384.303,569.995,401.469,539.244L418.635,508.493" id="my-svg-L_PLCOPEN_D2_0" class="edge-thickness-normal edge-pattern-solid edge-thickness-normal edge-pattern-solid flowchart-link" style=";" data-edge="true" data-et="edge" data-id="L_PLCOPEN_D2_0" data-points="W3sieCI6MTQwLjgxMzUwNTI4NDkyNjQ2LCJ5Ijo5Mzh9LHsieCI6MjQ5LjY0MDYyNSwieSI6NjkzfSx7IngiOjI4Mi42NDA2MjUsInkiOjY5M30seyJ4IjozMTUuNjQwNjI1LCJ5Ijo2OTN9LHsieCI6NDIwLjU4NDUyMDM0ODgzNzIsInkiOjUwNX1d" data-look="classic" marker-end="url(#my-svg_flowchart-v2-pointEnd)"/><path d="M153.534,992L169.551,1009.5C185.569,1027,217.605,1062,239.123,1079.5C260.641,1097,271.641,1097,282.641,1097C293.641,1097,304.641,1097,326.251,1076.194C347.861,1055.388,380.081,1013.775,396.191,992.969L412.301,972.163" id="my-svg-L_PLCOPEN_D3_0" class="edge-thickness-normal edge-pattern-solid edge-thickness-normal edge-pattern-solid flowchart-link" style=";" data-edge="true" data-et="edge" data-id="L_PLCOPEN_D3_0" data-points="W3sieCI6MTUzLjUzMzU1ODIzODYzNjM3LCJ5Ijo5OTJ9LHsieCI6MjQ5LjY0MDYyNSwieSI6MTA5N30seyJ4IjoyODIuNjQwNjI1LCJ5IjoxMDk3fSx7IngiOjMxNS42NDA2MjUsInkiOjEwOTd9LHsieCI6NDE0Ljc1MDMwMjQxOTM1NDg1LCJ5Ijo5Njl9XQ==" data-look="classic" marker-end="url(#my-svg_flowchart-v2-pointEnd)"/><path d="M136.855,992L155.653,1055.167C174.45,1118.333,212.045,1244.667,236.343,1307.833C260.641,1371,271.641,1371,282.641,1371C293.641,1371,304.641,1371,326.478,1348.539C348.315,1326.078,380.99,1281.157,397.327,1258.696L413.664,1236.235" id="my-svg-L_PLCOPEN_D4_0" class="edge-thickness-normal edge-pattern-solid edge-thickness-normal edge-pattern-solid flowchart-link" style=";" data-edge="true" data-et="edge" data-id="L_PLCOPEN_D4_0" data-points="W3sieCI6MTM2Ljg1NTE2MDg2ODIyNjYsInkiOjk5Mn0seyJ4IjoyNDkuNjQwNjI1LCJ5IjoxMzcxfSx7IngiOjI4Mi42NDA2MjUsInkiOjEzNzF9LHsieCI6MzE1LjY0MDYyNSwieSI6MTM3MX0seyJ4Ijo0MTYuMDE3MzI5NTQ1NDU0NiwieSI6MTIzM31d" data-look="classic" marker-end="url(#my-svg_flowchart-v2-pointEnd)"/></g><g class="edgeLabels"><g class="edgeLabel" transform="translate(282.640625, 59)"><g class="label" data-id="L_ISA95_D1_0" transform="translate(-8, -12)"><foreignObject width="16" height="24"><div xmlns="http://www.w3.org/1999/xhtml" class="labelBkg" style="display: table-cell; white-space: nowrap; line-height: 1.5; max-width: 200px; text-align: center;"><span class="edgeLabel"><p>高</p></span></div></foreignObject></g></g><g class="edgeLabel" transform="translate(282.640625, 323)"><g class="label" data-id="L_ISA95_D2_0" transform="translate(-8, -12)"><foreignObject width="16" height="24"><div xmlns="http://www.w3.org/1999/xhtml" class="labelBkg" style="display: table-cell; white-space: nowrap; line-height: 1.5; max-width: 200px; text-align: center;"><span class="edgeLabel"><p>中</p></span></div></foreignObject></g></g><g class="edgeLabel" transform="translate(282.640625, 737)"><g class="label" data-id="L_ISA95_D3_0" transform="translate(-8, -12)"><foreignObject width="16" height="24"><div xmlns="http://www.w3.org/1999/xhtml" class="labelBkg" style="display: table-cell; white-space: nowrap; line-height: 1.5; max-width: 200px; text-align: center;"><span class="edgeLabel"><p>中</p></span></div></foreignObject></g></g><g class="edgeLabel" transform="translate(282.640625, 1141)"><g class="label" data-id="L_ISA95_D4_0" transform="translate(-8, -12)"><foreignObject width="16" height="24"><div xmlns="http://www.w3.org/1999/xhtml" class="labelBkg" style="display: table-cell; white-space: nowrap; line-height: 1.5; max-width: 200px; text-align: center;"><span class="edgeLabel"><p>高</p></span></div></foreignObject></g></g><g class="edgeLabel" transform="translate(282.640625, 103)"><g class="label" data-id="L_OPCUA_D1_0" transform="translate(-8, -12)"><foreignObject width="16" height="24"><div xmlns="http://www.w3.org/1999/xhtml" class="labelBkg" style="display: table-cell; white-space: nowrap; line-height: 1.5; max-width: 200px; text-align: center;"><span class="edgeLabel"><p>高</p></span></div></foreignObject></g></g><g class="edgeLabel" transform="translate(282.640625, 397)"><g class="label" data-id="L_OPCUA_D2_0" transform="translate(-8, -12)"><foreignObject width="16" height="24"><div xmlns="http://www.w3.org/1999/xhtml" class="labelBkg" style="display: table-cell; white-space: nowrap; line-height: 1.5; max-width: 200px; text-align: center;"><span class="edgeLabel"><p>高</p></span></div></foreignObject></g></g><g class="edgeLabel" transform="translate(282.640625, 801)"><g class="label" data-id="L_OPCUA_D3_0" transform="translate(-8, -12)"><foreignObject width="16" height="24"><div xmlns="http://www.w3.org/1999/xhtml" class="labelBkg" style="display: table-cell; white-space: nowrap; line-height: 1.5; max-width: 200px; text-align: center;"><span class="edgeLabel"><p>中</p></span></div></foreignObject></g></g><g class="edgeLabel" transform="translate(282.640625, 1185)"><g class="label" data-id="L_OPCUA_D4_0" transform="translate(-8, -12)"><foreignObject width="16" height="24"><div xmlns="http://www.w3.org/1999/xhtml" class="labelBkg" style="display: table-cell; white-space: nowrap; line-height: 1.5; max-width: 200px; text-align: center;"><span class="edgeLabel"><p>中</p></span></div></foreignObject></g></g><g class="edgeLabel" transform="translate(282.640625, 147)"><g class="label" data-id="L_TSN_D1_0" transform="translate(-8, -12)"><foreignObject width="16" height="24"><div xmlns="http://www.w3.org/1999/xhtml" class="labelBkg" style="display: table-cell; white-space: nowrap; line-height: 1.5; max-width: 200px; text-align: center;"><span class="edgeLabel"><p>高</p></span></div></foreignObject></g></g><g class="edgeLabel" transform="translate(282.640625, 471)"><g class="label" data-id="L_TSN_D2_0" transform="translate(-8, -12)"><foreignObject width="16" height="24"><div xmlns="http://www.w3.org/1999/xhtml" class="labelBkg" style="display: table-cell; white-space: nowrap; line-height: 1.5; max-width: 200px; text-align: center;"><span class="edgeLabel"><p>中</p></span></div></foreignObject></g></g><g class="edgeLabel" transform="translate(282.640625, 875)"><g class="label" data-id="L_TSN_D3_0" transform="translate(-8, -12)"><foreignObject width="16" height="24"><div xmlns="http://www.w3.org/1999/xhtml" class="labelBkg" style="display: table-cell; white-space: nowrap; line-height: 1.5; max-width: 200px; text-align: center;"><span class="edgeLabel"><p>低</p></span></div></foreignObject></g></g><g class="edgeLabel" transform="translate(282.640625, 1229)"><g class="label" data-id="L_TSN_D4_0" transform="translate(-8, -12)"><foreignObject width="16" height="24"><div xmlns="http://www.w3.org/1999/xhtml" class="labelBkg" style="display: table-cell; white-space: nowrap; line-height: 1.5; max-width: 200px; text-align: center;"><span class="edgeLabel"><p>中</p></span></div></foreignObject></g></g><g class="edgeLabel" transform="translate(282.640625, 191)"><g class="label" data-id="L_AAS_D1_0" transform="translate(-8, -12)"><foreignObject width="16" height="24"><div xmlns="http://www.w3.org/1999/xhtml" class="labelBkg" style="display: table-cell; white-space: nowrap; line-height: 1.5; max-width: 200px; text-align: center;"><span class="edgeLabel"><p>中</p></span></div></foreignObject></g></g><g class="edgeLabel" transform="translate(282.640625, 545)"><g class="label" data-id="L_AAS_D2_0" transform="translate(-8, -12)"><foreignObject width="16" height="24"><div xmlns="http://www.w3.org/1999/xhtml" class="labelBkg" style="display: table-cell; white-space: nowrap; line-height: 1.5; max-width: 200px; text-align: center;"><span class="edgeLabel"><p>高</p></span></div></foreignObject></g></g><g class="edgeLabel" transform="translate(282.640625, 949)"><g class="label" data-id="L_AAS_D3_0" transform="translate(-8, -12)"><foreignObject width="16" height="24"><div xmlns="http://www.w3.org/1999/xhtml" class="labelBkg" style="display: table-cell; white-space: nowrap; line-height: 1.5; max-width: 200px; text-align: center;"><span class="edgeLabel"><p>中</p></span></div></foreignObject></g></g><g class="edgeLabel" transform="translate(282.640625, 1273)"><g class="label" data-id="L_AAS_D4_0" transform="translate(-8, -12)"><foreignObject width="16" height="24"><div xmlns="http://www.w3.org/1999/xhtml" class="labelBkg" style="display: table-cell; white-space: nowrap; line-height: 1.5; max-width: 200px; text-align: center;"><span class="edgeLabel"><p>中</p></span></div></foreignObject></g></g><g class="edgeLabel" transform="translate(282.640625, 235)"><g class="label" data-id="L_IEC61508_D1_0" transform="translate(-8, -12)"><foreignObject width="16" height="24"><div xmlns="http://www.w3.org/1999/xhtml" class="labelBkg" style="display: table-cell; white-space: nowrap; line-height: 1.5; max-width: 200px; text-align: center;"><span class="edgeLabel"><p>中</p></span></div></foreignObject></g></g><g class="edgeLabel" transform="translate(282.640625, 619)"><g class="label" data-id="L_IEC61508_D2_0" transform="translate(-8, -12)"><foreignObject width="16" height="24"><div xmlns="http://www.w3.org/1999/xhtml" class="labelBkg" style="display: table-cell; white-space: nowrap; line-height: 1.5; max-width: 200px; text-align: center;"><span class="edgeLabel"><p>低</p></span></div></foreignObject></g></g><g class="edgeLabel" transform="translate(282.640625, 1023)"><g class="label" data-id="L_IEC61508_D3_0" transform="translate(-8, -12)"><foreignObject width="16" height="24"><div xmlns="http://www.w3.org/1999/xhtml" class="labelBkg" style="display: table-cell; white-space: nowrap; line-height: 1.5; max-width: 200px; text-align: center;"><span class="edgeLabel"><p>高</p></span></div></foreignObject></g></g><g class="edgeLabel" transform="translate(282.640625, 1317)"><g class="label" data-id="L_IEC61508_D4_0" transform="translate(-8, -12)"><foreignObject width="16" height="24"><div xmlns="http://www.w3.org/1999/xhtml" class="labelBkg" style="display: table-cell; white-space: nowrap; line-height: 1.5; max-width: 200px; text-align: center;"><span class="edgeLabel"><p>高</p></span></div></foreignObject></g></g><g class="edgeLabel" transform="translate(282.640625, 279)"><g class="label" data-id="L_PLCOPEN_D1_0" transform="translate(-8, -12)"><foreignObject width="16" height="24"><div xmlns="http://www.w3.org/1999/xhtml" class="labelBkg" style="display: table-cell; white-space: nowrap; line-height: 1.5; max-width: 200px; text-align: center;"><span class="edgeLabel"><p>高</p></span></div></foreignObject></g></g><g class="edgeLabel" transform="translate(282.640625, 693)"><g class="label" data-id="L_PLCOPEN_D2_0" transform="translate(-8, -12)"><foreignObject width="16" height="24"><div xmlns="http://www.w3.org/1999/xhtml" class="labelBkg" style="display: table-cell; white-space: nowrap; line-height: 1.5; max-width: 200px; text-align: center;"><span class="edgeLabel"><p>高</p></span></div></foreignObject></g></g><g class="edgeLabel" transform="translate(282.640625, 1097)"><g class="label" data-id="L_PLCOPEN_D3_0" transform="translate(-8, -12)"><foreignObject width="16" height="24"><div xmlns="http://www.w3.org/1999/xhtml" class="labelBkg" style="display: table-cell; white-space: nowrap; line-height: 1.5; max-width: 200px; text-align: center;"><span class="edgeLabel"><p>中</p></span></div></foreignObject></g></g><g class="edgeLabel" transform="translate(282.640625, 1371)"><g class="label" data-id="L_PLCOPEN_D4_0" transform="translate(-8, -12)"><foreignObject width="16" height="24"><div xmlns="http://www.w3.org/1999/xhtml" class="labelBkg" style="display: table-cell; white-space: nowrap; line-height: 1.5; max-width: 200px; text-align: center;"><span class="edgeLabel"><p>高</p></span></div></foreignObject></g></g></g><g class="nodes"><g class="node default" id="my-svg-flowchart-D1-0" data-look="classic" transform="translate(435.65625, 214)"><rect class="basic label-container" style="fill:#e3f2fd !important;stroke:#333 !important" x="-87.015625" y="-27" width="174.03125" height="54"/><g class="label" style="" transform="translate(-57.015625, -12)"><rect/><foreignObject width="114.03125" height="24"><div xmlns="http://www.w3.org/1999/xhtml" style="display: table-cell; white-space: nowrap; line-height: 1.5; max-width: 200px; text-align: center;"><span class="nodeLabel"><p>确定性 / 实时性</p></span></div></foreignObject></g></g><g class="node default" id="my-svg-flowchart-D2-1" data-look="classic" transform="translate(435.65625, 478)"><rect class="basic label-container" style="fill:#e3f2fd !important;stroke:#333 !important" x="-86" y="-27" width="172" height="54"/><g class="label" style="" transform="translate(-56, -12)"><rect/><foreignObject width="112" height="24"><div xmlns="http://www.w3.org/1999/xhtml" style="display: table-cell; white-space: nowrap; line-height: 1.5; max-width: 200px; text-align: center;"><span class="nodeLabel"><p>跨厂商互操作性</p></span></div></foreignObject></g></g><g class="node default" id="my-svg-flowchart-D3-2" data-look="classic" transform="translate(435.65625, 942)"><rect class="basic label-container" style="fill:#fff3e0 !important;stroke:#333 !important" x="-95.015625" y="-27" width="190.03125" height="54"/><g class="label" style="" transform="translate(-65.015625, -12)"><rect/><foreignObject width="130.03125" height="24"><div xmlns="http://www.w3.org/1999/xhtml" style="display: table-cell; white-space: nowrap; line-height: 1.5; max-width: 200px; text-align: center;"><span class="nodeLabel"><p>安全 / 认证完备度</p></span></div></foreignObject></g></g><g class="node default" id="my-svg-flowchart-D4-3" data-look="classic" transform="translate(435.65625, 1206)"><rect class="basic label-container" style="fill:#e8f5e9 !important;stroke:#333 !important" x="-70" y="-27" width="140" height="54"/><g class="label" style="" transform="translate(-40, -12)"><rect/><foreignObject width="80" height="24"><div xmlns="http://www.w3.org/1999/xhtml" style="display: table-cell; white-space: nowrap; line-height: 1.5; max-width: 200px; text-align: center;"><span class="nodeLabel"><p>生态成熟度</p></span></div></foreignObject></g></g><g class="node default" id="my-svg-flowchart-ISA95-4" data-look="classic" transform="translate(128.8203125, 445)"><rect class="basic label-container" style="" x="-95.8203125" y="-27" width="191.640625" height="54"/><g class="label" style="" transform="translate(-65.8203125, -12)"><rect/><foreignObject width="131.640625" height="24"><div xmlns="http://www.w3.org/1999/xhtml" style="display: table-cell; white-space: nowrap; line-height: 1.5; max-width: 200px; text-align: center;"><span class="nodeLabel"><p>ISA-95 / IEC 62264</p></span></div></foreignObject></g></g><g class="node default" id="my-svg-flowchart-OPCUA-5" data-look="classic" transform="translate(128.8203125, 549)"><rect class="basic label-container" style="" x="-67.578125" y="-27" width="135.15625" height="54"/><g class="label" style="" transform="translate(-37.578125, -12)"><rect/><foreignObject width="75.15625" height="24"><div xmlns="http://www.w3.org/1999/xhtml" style="display: table-cell; white-space: nowrap; line-height: 1.5; max-width: 200px; text-align: center;"><span class="nodeLabel"><p>OPC UA FX</p></span></div></foreignObject></g></g><g class="node default" id="my-svg-flowchart-TSN-6" data-look="classic" transform="translate(128.8203125, 653)"><rect class="basic label-container" style="" x="-87.296875" y="-27" width="174.59375" height="54"/><g class="label" style="" transform="translate(-57.296875, -12)"><rect/><foreignObject width="114.59375" height="24"><div xmlns="http://www.w3.org/1999/xhtml" style="display: table-cell; white-space: nowrap; line-height: 1.5; max-width: 200px; text-align: center;"><span class="nodeLabel"><p>TSN / IEC 60802</p></span></div></foreignObject></g></g><g class="node default" id="my-svg-flowchart-AAS-7" data-look="classic" transform="translate(128.8203125, 757)"><rect class="basic label-container" style="" x="-86.984375" y="-27" width="173.96875" height="54"/><g class="label" style="" transform="translate(-56.984375, -12)"><rect/><foreignObject width="113.96875" height="24"><div xmlns="http://www.w3.org/1999/xhtml" style="display: table-cell; white-space: nowrap; line-height: 1.5; max-width: 200px; text-align: center;"><span class="nodeLabel"><p>AAS / IEC 63278</p></span></div></foreignObject></g></g><g class="node default" id="my-svg-flowchart-IEC61508-8" data-look="classic" transform="translate(128.8203125, 861)"><rect class="basic label-container" style="" x="-64.6875" y="-27" width="129.375" height="54"/><g class="label" style="" transform="translate(-34.6875, -12)"><rect/><foreignObject width="69.375" height="24"><div xmlns="http://www.w3.org/1999/xhtml" style="display: table-cell; white-space: nowrap; line-height: 1.5; max-width: 200px; text-align: center;"><span class="nodeLabel"><p>IEC 61508</p></span></div></foreignObject></g></g><g class="node default" id="my-svg-flowchart-PLCOPEN-9" data-look="classic" transform="translate(128.8203125, 965)"><rect class="basic label-container" style="" x="-87.28125" y="-27" width="174.5625" height="54"/><g class="label" style="" transform="translate(-57.28125, -12)"><rect/><foreignObject width="114.5625" height="24"><div xmlns="http://www.w3.org/1999/xhtml" style="display: table-cell; white-space: nowrap; line-height: 1.5; max-width: 200px; text-align: center;"><span class="nodeLabel"><p>PLCopen Motion</p></span></div></foreignObject></g></g></g></g></g><defs><filter id="my-svg-drop-shadow" height="130%" width="130%"><feDropShadow dx="4" dy="4" stdDeviation="0" flood-opacity="0.06" flood-color="#000000"/></filter></defs><defs><filter id="my-svg-drop-shadow-small" height="150%" width="150%"><feDropShadow dx="2" dy="2" stdDeviation="0" flood-opacity="0.06" flood-color="#000000"/></filter></defs></svg>