<svg id="my-svg" width="100%" xmlns="http://www.w3.org/2000/svg" xmlns:xlink="http://www.w3.org/1999/xlink" class="flowchart" style="max-width: 576.922px; background-color: transparent;" viewBox="0 0 576.921875 1410" role="graphics-document document" aria-roledescription="flowchart-v2"><style>#my-svg{font-family:"trebuchet ms",verdana,arial,sans-serif;font-size:16px;fill:#333;}@keyframes edge-animation-frame{from{stroke-dashoffset:0;}}@keyframes dash{to{stroke-dashoffset:0;}}#my-svg .edge-animation-slow{stroke-dasharray:9,5!important;stroke-dashoffset:900;animation:dash 50s linear infinite;stroke-linecap:round;}#my-svg .edge-animation-fast{stroke-dasharray:9,5!important;stroke-dashoffset:900;animation:dash 20s linear infinite;stroke-linecap:round;}#my-svg .error-icon{fill:#552222;}#my-svg .error-text{fill:#552222;stroke:#552222;}#my-svg .edge-thickness-normal{stroke-width:1px;}#my-svg .edge-thickness-thick{stroke-width:3.5px;}#my-svg .edge-pattern-solid{stroke-dasharray:0;}#my-svg .edge-thickness-invisible{stroke-width:0;fill:none;}#my-svg .edge-pattern-dashed{stroke-dasharray:3;}#my-svg .edge-pattern-dotted{stroke-dasharray:2;}#my-svg .marker{fill:#333333;stroke:#333333;}#my-svg .marker.cross{stroke:#333333;}#my-svg svg{font-family:"trebuchet ms",verdana,arial,sans-serif;font-size:16px;}#my-svg p{margin:0;}#my-svg .label{font-family:"trebuchet ms",verdana,arial,sans-serif;color:#333;}#my-svg .cluster-label text{fill:#333;}#my-svg .cluster-label span{color:#333;}#my-svg .cluster-label span p{background-color:transparent;}#my-svg .label text,#my-svg span{fill:#333;color:#333;}#my-svg .node rect,#my-svg .node circle,#my-svg .node ellipse,#my-svg .node polygon,#my-svg .node path{fill:#ECECFF;stroke:#9370DB;stroke-width:1px;}#my-svg .rough-node .label text,#my-svg .node .label text,#my-svg .image-shape .label,#my-svg .icon-shape .label{text-anchor:middle;}#my-svg .node .katex path{fill:#000;stroke:#000;stroke-width:1px;}#my-svg .rough-node .label,#my-svg .node .label,#my-svg .image-shape .label,#my-svg .icon-shape .label{text-align:center;}#my-svg .node.clickable{cursor:pointer;}#my-svg .root .anchor path{fill:#333333!important;stroke-width:0;stroke:#333333;}#my-svg .arrowheadPath{fill:#333333;}#my-svg .edgePath .path{stroke:#333333;stroke-width:1px;}#my-svg .flowchart-link{stroke:#333333;fill:none;}#my-svg .edgeLabel{background-color:rgba(232,232,232, 0.8);text-align:center;}#my-svg .edgeLabel p{background-color:rgba(232,232,232, 0.8);}#my-svg .edgeLabel rect{opacity:0.5;background-color:rgba(232,232,232, 0.8);fill:rgba(232,232,232, 0.8);}#my-svg .labelBkg{background-color:rgba(232, 232, 232, 0.5);}#my-svg .cluster rect{fill:#ffffde;stroke:#aaaa33;stroke-width:1px;}#my-svg .cluster text{fill:#333;}#my-svg .cluster span{color:#333;}#my-svg div.mermaidTooltip{position:absolute;text-align:center;max-width:200px;padding:2px;font-family:"trebuchet ms",verdana,arial,sans-serif;font-size:12px;background:hsl(80, 100%, 96.2745098039%);border:1px solid #aaaa33;border-radius:2px;pointer-events:none;z-index:100;}#my-svg .flowchartTitleText{text-anchor:middle;font-size:18px;fill:#333;}#my-svg rect.text{fill:none;stroke-width:0;}#my-svg .icon-shape,#my-svg .image-shape{background-color:rgba(232,232,232, 0.8);text-align:center;}#my-svg .icon-shape p,#my-svg .image-shape p{background-color:rgba(232,232,232, 0.8);padding:2px;}#my-svg .icon-shape .label rect,#my-svg .image-shape .label rect{opacity:0.5;background-color:rgba(232,232,232, 0.8);fill:rgba(232,232,232, 0.8);}#my-svg .label-icon{display:inline-block;height:1em;overflow:visible;vertical-align:-0.125em;}#my-svg .node .label-icon path{fill:currentColor;stroke:revert;stroke-width:revert;}#my-svg .node .neo-node{stroke:#9370DB;}#my-svg [data-look="neo"].node rect,#my-svg [data-look="neo"].cluster rect,#my-svg [data-look="neo"].node polygon{stroke:#9370DB;filter:drop-shadow(1px 2px 2px rgba(185, 185, 185, 1));}#my-svg [data-look="neo"].node path{stroke:#9370DB;stroke-width:1px;}#my-svg [data-look="neo"].node .outer-path{filter:drop-shadow(1px 2px 2px rgba(185, 185, 185, 1));}#my-svg [data-look="neo"].node .neo-line path{stroke:#9370DB;filter:none;}#my-svg [data-look="neo"].node circle{stroke:#9370DB;filter:drop-shadow(1px 2px 2px rgba(185, 185, 185, 1));}#my-svg [data-look="neo"].node circle .state-start{fill:#000000;}#my-svg [data-look="neo"].icon-shape .icon{fill:#9370DB;filter:drop-shadow(1px 2px 2px rgba(185, 185, 185, 1));}#my-svg [data-look="neo"].icon-shape .icon-neo path{stroke:#9370DB;filter:drop-shadow(1px 2px 2px rgba(185, 185, 185, 1));}#my-svg :root{--mermaid-font-family:"trebuchet ms",verdana,arial,sans-serif;}</style><g><marker id="my-svg_flowchart-v2-pointEnd" class="marker flowchart-v2" viewBox="0 0 10 10" refX="5" refY="5" markerUnits="userSpaceOnUse" markerWidth="8" markerHeight="8" orient="auto"><path d="M 0 0 L 10 5 L 0 10 z" class="arrowMarkerPath" style="stroke-width: 1; stroke-dasharray: 1, 0;"/></marker><marker id="my-svg_flowchart-v2-pointStart" class="marker flowchart-v2" viewBox="0 0 10 10" refX="4.5" refY="5" markerUnits="userSpaceOnUse" markerWidth="8" markerHeight="8" orient="auto"><path d="M 0 5 L 10 10 L 10 0 z" class="arrowMarkerPath" style="stroke-width: 1; stroke-dasharray: 1, 0;"/></marker><marker id="my-svg_flowchart-v2-pointEnd-margin" class="marker flowchart-v2" viewBox="0 0 11.5 14" refX="11.5" refY="7" markerUnits="userSpaceOnUse" markerWidth="10.5" markerHeight="14" orient="auto"><path d="M 0 0 L 11.5 7 L 0 14 z" class="arrowMarkerPath" style="stroke-width: 0; stroke-dasharray: 1, 0;"/></marker><marker id="my-svg_flowchart-v2-pointStart-margin" class="marker flowchart-v2" viewBox="0 0 11.5 14" refX="1" refY="7" markerUnits="userSpaceOnUse" markerWidth="11.5" markerHeight="14" orient="auto"><polygon points="0,7 11.5,14 11.5,0" class="arrowMarkerPath" style="stroke-width: 0; stroke-dasharray: 1, 0;"/></marker><marker id="my-svg_flowchart-v2-circleEnd" class="marker flowchart-v2" viewBox="0 0 10 10" refX="11" refY="5" markerUnits="userSpaceOnUse" markerWidth="11" markerHeight="11" orient="auto"><circle cx="5" cy="5" r="5" class="arrowMarkerPath" style="stroke-width: 1; stroke-dasharray: 1, 0;"/></marker><marker id="my-svg_flowchart-v2-circleStart" class="marker flowchart-v2" viewBox="0 0 10 10" refX="-1" refY="5" markerUnits="userSpaceOnUse" markerWidth="11" markerHeight="11" orient="auto"><circle cx="5" cy="5" r="5" class="arrowMarkerPath" style="stroke-width: 1; stroke-dasharray: 1, 0;"/></marker><marker id="my-svg_flowchart-v2-circleEnd-margin" class="marker flowchart-v2" viewBox="0 0 10 10" refY="5" refX="12.25" markerUnits="userSpaceOnUse" markerWidth="14" markerHeight="14" orient="auto"><circle cx="5" cy="5" r="5" class="arrowMarkerPath" style="stroke-width: 0; stroke-dasharray: 1, 0;"/></marker><marker id="my-svg_flowchart-v2-circleStart-margin" class="marker flowchart-v2" viewBox="0 0 10 10" refX="-2" refY="5" markerUnits="userSpaceOnUse" markerWidth="14" markerHeight="14" orient="auto"><circle cx="5" cy="5" r="5" class="arrowMarkerPath" style="stroke-width: 0; stroke-dasharray: 1, 0;"/></marker><marker id="my-svg_flowchart-v2-crossEnd" class="marker cross flowchart-v2" viewBox="0 0 11 11" refX="12" refY="5.2" markerUnits="userSpaceOnUse" markerWidth="11" markerHeight="11" orient="auto"><path d="M 1,1 l 9,9 M 10,1 l -9,9" class="arrowMarkerPath" style="stroke-width: 2; stroke-dasharray: 1, 0;"/></marker><marker id="my-svg_flowchart-v2-crossStart" class="marker cross flowchart-v2" viewBox="0 0 11 11" refX="-1" refY="5.2" markerUnits="userSpaceOnUse" markerWidth="11" markerHeight="11" orient="auto"><path d="M 1,1 l 9,9 M 10,1 l -9,9" class="arrowMarkerPath" style="stroke-width: 2; stroke-dasharray: 1, 0;"/></marker><marker id="my-svg_flowchart-v2-crossEnd-margin" class="marker cross flowchart-v2" viewBox="0 0 15 15" refX="17.7" refY="7.5" markerUnits="userSpaceOnUse" markerWidth="12" markerHeight="12" orient="auto"><path d="M 1,1 L 14,14 M 1,14 L 14,1" class="arrowMarkerPath" style="stroke-width: 2.5;"/></marker><marker id="my-svg_flowchart-v2-crossStart-margin" class="marker cross flowchart-v2" viewBox="0 0 15 15" refX="-3.5" refY="7.5" markerUnits="userSpaceOnUse" markerWidth="12" markerHeight="12" orient="auto"><path d="M 1,1 L 14,14 M 1,14 L 14,1" class="arrowMarkerPath" style="stroke-width: 2.5; stroke-dasharray: 1, 0;"/></marker><g class="root"><g class="clusters"><g class="cluster" id="my-svg-subGraph1" data-look="classic"><rect style="" x="8" y="8" width="218.421875" height="1394"/><g class="cluster-label" transform="translate(75.8515625, 8)"><foreignObject width="82.71875" height="24"><div xmlns="http://www.w3.org/1999/xhtml" style="display: table-cell; white-space: nowrap; line-height: 1.5;"><span class="nodeLabel"><p>AI 复用资产</p></span></div></foreignObject></g></g><g class="cluster" id="my-svg-评估维度" data-look="classic"><rect style="" x="308.421875" y="8" width="260.5" height="1394"/><g class="cluster-label" transform="translate(406.671875, 8)"><foreignObject width="64" height="24"><div xmlns="http://www.w3.org/1999/xhtml" style="display: table-cell; white-space: nowrap; line-height: 1.5;"><span class="nodeLabel"><p>评估维度</p></span></div></foreignObject></g></g></g><g class="edgePaths"><path d="M124.85,418L141.779,358.167C158.707,298.333,192.565,178.667,216.327,118.833C240.089,59,253.755,59,267.422,59C281.089,59,294.755,59,319.087,79.823C343.418,100.646,378.414,142.292,395.912,163.115L413.41,183.938" id="my-svg-L_MCP_D1_0" class="edge-thickness-normal edge-pattern-solid edge-thickness-normal edge-pattern-solid flowchart-link" style=";" data-edge="true" data-et="edge" data-id="L_MCP_D1_0" data-points="W3sieCI6MTI0Ljg1MDA0NDUyNzIwMjA3LCJ5Ijo0MTh9LHsieCI6MjI2LjQyMTg3NSwieSI6NTl9LHsieCI6MjY3LjQyMTg3NSwieSI6NTl9LHsieCI6MzA4LjQyMTg3NSwieSI6NTl9LHsieCI6NDE1Ljk4MzE2NTMyMjU4MDY1LCJ5IjoxODd9XQ==" data-look="classic" marker-end="url(#my-svg_flowchart-v2-pointEnd)"/><path d="M141.381,418L155.554,402.167C169.728,386.333,198.075,354.667,219.082,338.833C240.089,323,253.755,323,267.422,323C281.089,323,294.755,323,319.087,343.823C343.418,364.646,378.414,406.292,395.912,427.115L413.41,447.938" id="my-svg-L_MCP_D2_0" class="edge-thickness-normal edge-pattern-solid edge-thickness-normal edge-pattern-solid flowchart-link" style=";" data-edge="true" data-et="edge" data-id="L_MCP_D2_0" data-points="W3sieCI6MTQxLjM4MDU3MTIwOTAxNjQsInkiOjQxOH0seyJ4IjoyMjYuNDIxODc1LCJ5IjozMjN9LHsieCI6MjY3LjQyMTg3NSwieSI6MzIzfSx7IngiOjMwOC40MjE4NzUsInkiOjMyM30seyJ4Ijo0MTUuOTgzMTY1MzIyNTgwNjUsInkiOjQ1MX1d" data-look="classic" marker-end="url(#my-svg_flowchart-v2-pointEnd)"/><path d="M127.309,472L143.828,516.167C160.347,560.333,193.384,648.667,216.736,692.833C240.089,737,253.755,737,267.422,737C281.089,737,294.755,737,320.08,766.104C345.405,795.208,382.389,853.416,400.88,882.52L419.372,911.624" id="my-svg-L_MCP_D3_0" class="edge-thickness-normal edge-pattern-solid edge-thickness-normal edge-pattern-solid flowchart-link" style=";" data-edge="true" data-et="edge" data-id="L_MCP_D3_0" data-points="W3sieCI6MTI3LjMwOTIwOTExODE1MDY5LCJ5Ijo0NzJ9LHsieCI6MjI2LjQyMTg3NSwieSI6NzM3fSx7IngiOjI2Ny40MjE4NzUsInkiOjczN30seyJ4IjozMDguNDIxODc1LCJ5Ijo3Mzd9LHsieCI6NDIxLjUxNjk5Njk1MTIxOTU0LCJ5Ijo5MTV9XQ==" data-look="classic" marker-end="url(#my-svg_flowchart-v2-pointEnd)"/><path d="M121.448,472L138.943,583.5C156.439,695,191.43,918,215.759,1029.5C240.089,1141,253.755,1141,267.422,1141C281.089,1141,294.755,1141,313.683,1147.036C332.611,1153.071,356.8,1165.143,368.894,1171.178L380.989,1177.214" id="my-svg-L_MCP_D4_0" class="edge-thickness-normal edge-pattern-solid edge-thickness-normal edge-pattern-solid flowchart-link" style=";" data-edge="true" data-et="edge" data-id="L_MCP_D4_0" data-points="W3sieCI6MTIxLjQ0NzU2ODY5NjEyMDY4LCJ5Ijo0NzJ9LHsieCI6MjI2LjQyMTg3NSwieSI6MTE0MX0seyJ4IjoyNjcuNDIxODc1LCJ5IjoxMTQxfSx7IngiOjMwOC40MjE4NzUsInkiOjExNDF9LHsieCI6Mzg0LjU2ODAyODg0NjE1MzgsInkiOjExNzl9XQ==" data-look="classic" marker-end="url(#my-svg_flowchart-v2-pointEnd)"/><path d="M123.822,522L140.922,452.167C158.022,382.333,192.222,242.667,216.155,172.833C240.089,103,253.755,103,267.422,103C281.089,103,294.755,103,317.509,116.568C340.263,130.135,372.104,157.27,388.024,170.838L403.945,184.406" id="my-svg-L_A2A_D1_0" class="edge-thickness-normal edge-pattern-solid edge-thickness-normal edge-pattern-solid flowchart-link" style=";" data-edge="true" data-et="edge" data-id="L_A2A_D1_0" data-points="W3sieCI6MTIzLjgyMjM2MTk2NzQ4ODc5LCJ5Ijo1MjJ9LHsieCI6MjI2LjQyMTg3NSwieSI6MTAzfSx7IngiOjI2Ny40MjE4NzUsInkiOjEwM30seyJ4IjozMDguNDIxODc1LCJ5IjoxMDN9LHsieCI6NDA2Ljk4OTQ0MjU2NzU2NzU1LCJ5IjoxODd9XQ==" data-look="classic" marker-end="url(#my-svg_flowchart-v2-pointEnd)"/><path d="M136.61,522L151.579,501.167C166.547,480.333,196.485,438.667,218.287,417.833C240.089,397,253.755,397,267.422,397C281.089,397,294.755,397,315.495,405.648C336.234,414.296,364.046,431.592,377.952,440.24L391.858,448.888" id="my-svg-L_A2A_D2_0" class="edge-thickness-normal edge-pattern-solid edge-thickness-normal edge-pattern-solid flowchart-link" style=";" data-edge="true" data-et="edge" data-id="L_A2A_D2_0" data-points="W3sieCI6MTM2LjYxMDI0ODc2NjQ0NzM3LCJ5Ijo1MjJ9LHsieCI6MjI2LjQyMTg3NSwieSI6Mzk3fSx7IngiOjI2Ny40MjE4NzUsInkiOjM5N30seyJ4IjozMDguNDIxODc1LCJ5IjozOTd9LHsieCI6Mzk1LjI1NTIwODMzMzMzMzMsInkiOjQ1MX1d" data-look="classic" marker-end="url(#my-svg_flowchart-v2-pointEnd)"/><path d="M128.912,576L145.164,613.5C161.415,651,193.919,726,217.004,763.5C240.089,801,253.755,801,267.422,801C281.089,801,294.755,801,318.688,819.51C342.62,838.021,376.818,875.041,393.917,893.551L411.016,912.062" id="my-svg-L_A2A_D3_0" class="edge-thickness-normal edge-pattern-solid edge-thickness-normal edge-pattern-solid flowchart-link" style=";" data-edge="true" data-et="edge" data-id="L_A2A_D3_0" data-points="W3sieCI6MTI4LjkxMjEwOTM3NSwieSI6NTc2fSx7IngiOjIyNi40MjE4NzUsInkiOjgwMX0seyJ4IjoyNjcuNDIxODc1LCJ5Ijo4MDF9LHsieCI6MzA4LjQyMTg3NSwieSI6ODAxfSx7IngiOjQxMy43MzAzODU2MzgyOTc5LCJ5Ijo5MTV9XQ==" data-look="classic" marker-end="url(#my-svg_flowchart-v2-pointEnd)"/><path d="M121.847,576L139.276,677.5C156.705,779,191.564,982,215.826,1083.5C240.089,1185,253.755,1185,267.422,1185C281.089,1185,294.755,1185,312.305,1186.728C329.856,1188.456,351.289,1191.911,362.006,1193.639L372.723,1195.367" id="my-svg-L_A2A_D4_0" class="edge-thickness-normal edge-pattern-solid edge-thickness-normal edge-pattern-solid flowchart-link" style=";" data-edge="true" data-et="edge" data-id="L_A2A_D4_0" data-points="W3sieCI6MTIxLjg0NzI1MDg4NDQzMzk2LCJ5Ijo1NzZ9LHsieCI6MjI2LjQyMTg3NSwieSI6MTE4NX0seyJ4IjoyNjcuNDIxODc1LCJ5IjoxMTg1fSx7IngiOjMwOC40MjE4NzUsInkiOjExODV9LHsieCI6Mzc2LjY3MTg3NSwieSI6MTE5Ni4wMDM4Mzg3NzE1OTN9XQ==" data-look="classic" marker-end="url(#my-svg_flowchart-v2-pointEnd)"/><path d="M123.038,626L140.269,546.167C157.5,466.333,191.961,306.667,216.025,226.833C240.089,147,253.755,147,267.422,147C281.089,147,294.755,147,313.956,153.362C333.157,159.723,357.891,172.447,370.259,178.809L382.626,185.17" id="my-svg-L_RAG_D1_0" class="edge-thickness-normal edge-pattern-solid edge-thickness-normal edge-pattern-solid flowchart-link" style=";" data-edge="true" data-et="edge" data-id="L_RAG_D1_0" data-points="W3sieCI6MTIzLjAzODM5ODU5MTg5NzIzLCJ5Ijo2MjZ9LHsieCI6MjI2LjQyMTg3NSwieSI6MTQ3fSx7IngiOjI2Ny40MjE4NzUsInkiOjE0N30seyJ4IjozMDguNDIxODc1LCJ5IjoxNDd9LHsieCI6Mzg2LjE4MzA2OTAyOTg1MDc0LCJ5IjoxODd9XQ==" data-look="classic" marker-end="url(#my-svg_flowchart-v2-pointEnd)"/><path d="M133.413,626L148.914,600.167C164.416,574.333,195.419,522.667,217.754,496.833C240.089,471,253.755,471,267.422,471C281.089,471,294.755,471,305.09,471.188C315.424,471.376,322.426,471.753,325.927,471.941L329.428,472.129" id="my-svg-L_RAG_D2_0" class="edge-thickness-normal edge-pattern-solid edge-thickness-normal edge-pattern-solid flowchart-link" style=";" data-edge="true" data-et="edge" data-id="L_RAG_D2_0" data-points="W3sieCI6MTMzLjQxMjU2MDA5NjE1Mzg0LCJ5Ijo2MjZ9LHsieCI6MjI2LjQyMTg3NSwieSI6NDcxfSx7IngiOjI2Ny40MjE4NzUsInkiOjQ3MX0seyJ4IjozMDguNDIxODc1LCJ5Ijo0NzF9LHsieCI6MzMzLjQyMTg3NSwieSI6NDcyLjM0MzU3MDA1NzU4MTZ9XQ==" data-look="classic" marker-end="url(#my-svg_flowchart-v2-pointEnd)"/><path d="M130.493,680L146.481,712.5C162.47,745,194.446,810,217.267,842.5C240.089,875,253.755,875,267.422,875C281.089,875,294.755,875,313.956,881.362C333.157,887.723,357.891,900.447,370.259,906.809L382.626,913.17" id="my-svg-L_RAG_D3_0" class="edge-thickness-normal edge-pattern-solid edge-thickness-normal edge-pattern-solid flowchart-link" style=";" data-edge="true" data-et="edge" data-id="L_RAG_D3_0" data-points="W3sieCI6MTMwLjQ5MzM0ODgxNzU2NzU4LCJ5Ijo2ODB9LHsieCI6MjI2LjQyMTg3NSwieSI6ODc1fSx7IngiOjI2Ny40MjE4NzUsInkiOjg3NX0seyJ4IjozMDguNDIxODc1LCJ5Ijo4NzV9LHsieCI6Mzg2LjE4MzA2OTAyOTg1MDc0LCJ5Ijo5MTV9XQ==" data-look="classic" marker-end="url(#my-svg_flowchart-v2-pointEnd)"/><path d="M122.33,680L139.679,771.5C157.027,863,191.725,1046,215.907,1137.5C240.089,1229,253.755,1229,267.422,1229C281.089,1229,294.755,1229,312.307,1227.107C329.859,1225.215,351.296,1221.429,362.014,1219.536L372.733,1217.644" id="my-svg-L_RAG_D4_0" class="edge-thickness-normal edge-pattern-solid edge-thickness-normal edge-pattern-solid flowchart-link" style=";" data-edge="true" data-et="edge" data-id="L_RAG_D4_0" data-points="W3sieCI6MTIyLjMzMDIwMDE5NTMxMjUsInkiOjY4MH0seyJ4IjoyMjYuNDIxODc1LCJ5IjoxMjI5fSx7IngiOjI2Ny40MjE4NzUsInkiOjEyMjl9LHsieCI6MzA4LjQyMTg3NSwieSI6MTIyOX0seyJ4IjozNzYuNjcxODc1LCJ5IjoxMjE2Ljk0ODE3NjU4MzQ5MzN9XQ==" data-look="classic" marker-end="url(#my-svg_flowchart-v2-pointEnd)"/><path d="M122.421,730L139.754,640.167C157.088,550.333,191.755,370.667,215.922,280.833C240.089,191,253.755,191,267.422,191C281.089,191,294.755,191,310.974,192.657C327.192,194.315,345.963,197.629,355.348,199.286L364.733,200.944" id="my-svg-L_PROMPT_D1_0" class="edge-thickness-normal edge-pattern-solid edge-thickness-normal edge-pattern-solid flowchart-link" style=";" data-edge="true" data-et="edge" data-id="L_PROMPT_D1_0" data-points="W3sieCI6MTIyLjQyMDY0NjUzMjY4NTUxLCJ5Ijo3MzB9LHsieCI6MjI2LjQyMTg3NSwieSI6MTkxfSx7IngiOjI2Ny40MjE4NzUsInkiOjE5MX0seyJ4IjozMDguNDIxODc1LCJ5IjoxOTF9LHsieCI6MzY4LjY3MTg3NSwieSI6MjAxLjYzOTE1NTQ3MDI0OTUzfV0=" data-look="classic" marker-end="url(#my-svg_flowchart-v2-pointEnd)"/><path d="M131.12,730L147.004,699.167C162.887,668.333,194.655,606.667,217.372,575.833C240.089,545,253.755,545,267.422,545C281.089,545,294.755,545,313.956,538.638C333.157,532.277,357.891,519.553,370.259,513.191L382.626,506.83" id="my-svg-L_PROMPT_D2_0" class="edge-thickness-normal edge-pattern-solid edge-thickness-normal edge-pattern-solid flowchart-link" style=";" data-edge="true" data-et="edge" data-id="L_PROMPT_D2_0" data-points="W3sieCI6MTMxLjExOTg3NzY1MzMwMTksInkiOjczMH0seyJ4IjoyMjYuNDIxODc1LCJ5Ijo1NDV9LHsieCI6MjY3LjQyMTg3NSwieSI6NTQ1fSx7IngiOjMwOC40MjE4NzUsInkiOjU0NX0seyJ4IjozODYuMTgzMDY5MDI5ODUwNzQsInkiOjUwNX1d" data-look="classic" marker-end="url(#my-svg_flowchart-v2-pointEnd)"/><path d="M132.569,784L148.211,811.5C163.853,839,195.137,894,217.613,921.5C240.089,949,253.755,949,267.422,949C281.089,949,294.755,949,310.965,948.496C327.174,947.992,345.926,946.984,355.302,946.481L364.678,945.977" id="my-svg-L_PROMPT_D3_0" class="edge-thickness-normal edge-pattern-solid edge-thickness-normal edge-pattern-solid flowchart-link" style=";" data-edge="true" data-et="edge" data-id="L_PROMPT_D3_0" data-points="W3sieCI6MTMyLjU2ODcyNTU4NTkzNzUsInkiOjc4NH0seyJ4IjoyMjYuNDIxODc1LCJ5Ijo5NDl9LHsieCI6MjY3LjQyMTg3NSwieSI6OTQ5fSx7IngiOjMwOC40MjE4NzUsInkiOjk0OX0seyJ4IjozNjguNjcxODc1LCJ5Ijo5NDUuNzYxOTk2MTYxMjI4NH1d" data-look="classic" marker-end="url(#my-svg_flowchart-v2-pointEnd)"/><path d="M122.925,784L140.175,865.5C157.424,947,191.923,1110,216.006,1191.5C240.089,1273,253.755,1273,267.422,1273C281.089,1273,294.755,1273,313.956,1266.638C333.157,1260.277,357.891,1247.553,370.259,1241.191L382.626,1234.83" id="my-svg-L_PROMPT_D4_0" class="edge-thickness-normal edge-pattern-solid edge-thickness-normal edge-pattern-solid flowchart-link" style=";" data-edge="true" data-et="edge" data-id="L_PROMPT_D4_0" data-points="W3sieCI6MTIyLjkyNTQ2MzI5OTQxODYxLCJ5Ijo3ODR9LHsieCI6MjI2LjQyMTg3NSwieSI6MTI3M30seyJ4IjoyNjcuNDIxODc1LCJ5IjoxMjczfSx7IngiOjMwOC40MjE4NzUsInkiOjEyNzN9LHsieCI6Mzg2LjE4MzA2OTAyOTg1MDc0LCJ5IjoxMjMzfV0=" data-look="classic" marker-end="url(#my-svg_flowchart-v2-pointEnd)"/><path d="M121.921,834L139.338,734.167C156.755,634.333,191.588,434.667,215.838,334.833C240.089,235,253.755,235,267.422,235C281.089,235,294.755,235,310.972,233.487C327.189,231.974,345.956,228.948,355.339,227.436L364.723,225.923" id="my-svg-L_MODEL_D1_0" class="edge-thickness-normal edge-pattern-solid edge-thickness-normal edge-pattern-solid flowchart-link" style=";" data-edge="true" data-et="edge" data-id="L_MODEL_D1_0" data-points="W3sieCI6MTIxLjkyMTMxMzM5ODU2MjMsInkiOjgzNH0seyJ4IjoyMjYuNDIxODc1LCJ5IjoyMzV9LHsieCI6MjY3LjQyMTg3NSwieSI6MjM1fSx7IngiOjMwOC40MjE4NzUsInkiOjIzNX0seyJ4IjozNjguNjcxODc1LCJ5IjoyMjUuMjg1OTg4NDgzNjg1MjN9XQ==" data-look="classic" marker-end="url(#my-svg_flowchart-v2-pointEnd)"/><path d="M129.396,834L145.567,798.167C161.738,762.333,194.08,690.667,217.084,654.833C240.089,619,253.755,619,267.422,619C281.089,619,294.755,619,318.688,600.49C342.62,581.979,376.818,544.959,393.917,526.449L411.016,507.938" id="my-svg-L_MODEL_D2_0" class="edge-thickness-normal edge-pattern-solid edge-thickness-normal edge-pattern-solid flowchart-link" style=";" data-edge="true" data-et="edge" data-id="L_MODEL_D2_0" data-points="W3sieCI6MTI5LjM5NTYyODg3Mzk2NjkzLCJ5Ijo4MzR9LHsieCI6MjI2LjQyMTg3NSwieSI6NjE5fSx7IngiOjI2Ny40MjE4NzUsInkiOjYxOX0seyJ4IjozMDguNDIxODc1LCJ5Ijo2MTl9LHsieCI6NDEzLjczMDM4NTYzODI5NzksInkiOjUwNX1d" data-look="classic" marker-end="url(#my-svg_flowchart-v2-pointEnd)"/><path d="M135.413,888L150.581,910.5C165.749,933,196.086,978,218.087,1000.5C240.089,1023,253.755,1023,267.422,1023C281.089,1023,294.755,1023,315.495,1014.352C336.234,1005.704,364.046,988.408,377.952,979.76L391.858,971.112" id="my-svg-L_MODEL_D3_0" class="edge-thickness-normal edge-pattern-solid edge-thickness-normal edge-pattern-solid flowchart-link" style=";" data-edge="true" data-et="edge" data-id="L_MODEL_D3_0" data-points="W3sieCI6MTM1LjQxMjc2MDQxNjY2NjY2LCJ5Ijo4ODh9LHsieCI6MjI2LjQyMTg3NSwieSI6MTAyM30seyJ4IjoyNjcuNDIxODc1LCJ5IjoxMDIzfSx7IngiOjMwOC40MjE4NzUsInkiOjEwMjN9LHsieCI6Mzk1LjI1NTIwODMzMzMzMzMsInkiOjk2OX1d" data-look="classic" marker-end="url(#my-svg_flowchart-v2-pointEnd)"/><path d="M123.677,888L140.801,959.5C157.926,1031,192.174,1174,216.131,1245.5C240.089,1317,253.755,1317,267.422,1317C281.089,1317,294.755,1317,317.509,1303.432C340.263,1289.865,372.104,1262.73,388.024,1249.162L403.945,1235.594" id="my-svg-L_MODEL_D4_0" class="edge-thickness-normal edge-pattern-solid edge-thickness-normal edge-pattern-solid flowchart-link" style=";" data-edge="true" data-et="edge" data-id="L_MODEL_D4_0" data-points="W3sieCI6MTIzLjY3NzM3NDU4ODgxNTgsInkiOjg4OH0seyJ4IjoyMjYuNDIxODc1LCJ5IjoxMzE3fSx7IngiOjI2Ny40MjE4NzUsInkiOjEzMTd9LHsieCI6MzA4LjQyMTg3NSwieSI6MTMxN30seyJ4Ijo0MDYuOTg5NDQyNTY3NTY3NTUsInkiOjEyMzN9XQ==" data-look="classic" marker-end="url(#my-svg_flowchart-v2-pointEnd)"/><path d="M121.509,938L138.995,828.167C156.48,718.333,191.451,498.667,215.77,388.833C240.089,279,253.755,279,267.422,279C281.089,279,294.755,279,313.683,272.964C332.611,266.929,356.8,254.857,368.894,248.822L380.989,242.786" id="my-svg-L_CONTRACT_D1_0" class="edge-thickness-normal edge-pattern-solid edge-thickness-normal edge-pattern-solid flowchart-link" style=";" data-edge="true" data-et="edge" data-id="L_CONTRACT_D1_0" data-points="W3sieCI6MTIxLjUwOTMyNzE2ODM2NzM1LCJ5Ijo5Mzh9LHsieCI6MjI2LjQyMTg3NSwieSI6Mjc5fSx7IngiOjI2Ny40MjE4NzUsInkiOjI3OX0seyJ4IjozMDguNDIxODc1LCJ5IjoyNzl9LHsieCI6Mzg0LjU2ODAyODg0NjE1MzgsInkiOjI0MX1d" data-look="classic" marker-end="url(#my-svg_flowchart-v2-pointEnd)"/><path d="M128.052,938L144.447,897.167C160.842,856.333,193.632,774.667,216.86,733.833C240.089,693,253.755,693,267.422,693C281.089,693,294.755,693,320.225,662.237C345.695,631.474,382.969,569.947,401.606,539.184L420.242,508.421" id="my-svg-L_CONTRACT_D2_0" class="edge-thickness-normal edge-pattern-solid edge-thickness-normal edge-pattern-solid flowchart-link" style=";" data-edge="true" data-et="edge" data-id="L_CONTRACT_D2_0" data-points="W3sieCI6MTI4LjA1MTcyOTA5MDA3MzU0LCJ5Ijo5Mzh9LHsieCI6MjI2LjQyMTg3NSwieSI6NjkzfSx7IngiOjI2Ny40MjE4NzUsInkiOjY5M30seyJ4IjozMDguNDIxODc1LCJ5Ijo2OTN9LHsieCI6NDIyLjMxNDg5ODI1NTgxMzk0LCJ5Ijo1MDV9XQ==" data-look="classic" marker-end="url(#my-svg_flowchart-v2-pointEnd)"/><path d="M139.55,992L154.028,1009.5C168.507,1027,197.464,1062,218.776,1079.5C240.089,1097,253.755,1097,267.422,1097C281.089,1097,294.755,1097,319.087,1076.177C343.418,1055.354,378.414,1013.708,395.912,992.885L413.41,972.062" id="my-svg-L_CONTRACT_D3_0" class="edge-thickness-normal edge-pattern-solid edge-thickness-normal edge-pattern-solid flowchart-link" style=";" data-edge="true" data-et="edge" data-id="L_CONTRACT_D3_0" data-points="W3sieCI6MTM5LjU0OTUzODM1MjI3MjcyLCJ5Ijo5OTJ9LHsieCI6MjI2LjQyMTg3NSwieSI6MTA5N30seyJ4IjoyNjcuNDIxODc1LCJ5IjoxMDk3fSx7IngiOjMwOC40MjE4NzUsInkiOjEwOTd9LHsieCI6NDE1Ljk4MzE2NTMyMjU4MDY1LCJ5Ijo5Njl9XQ==" data-look="classic" marker-end="url(#my-svg_flowchart-v2-pointEnd)"/><path d="M124.474,992L141.465,1055.167C158.456,1118.333,192.439,1244.667,216.264,1307.833C240.089,1371,253.755,1371,267.422,1371C281.089,1371,294.755,1371,319.332,1348.523C343.908,1326.047,379.394,1281.093,397.137,1258.616L414.88,1236.14" id="my-svg-L_CONTRACT_D4_0" class="edge-thickness-normal edge-pattern-solid edge-thickness-normal edge-pattern-solid flowchart-link" style=";" data-edge="true" data-et="edge" data-id="L_CONTRACT_D4_0" data-points="W3sieCI6MTI0LjQ3MzczMzgzNjIwNjg5LCJ5Ijo5OTJ9LHsieCI6MjI2LjQyMTg3NSwieSI6MTM3MX0seyJ4IjoyNjcuNDIxODc1LCJ5IjoxMzcxfSx7IngiOjMwOC40MjE4NzUsInkiOjEzNzF9LHsieCI6NDE3LjM1ODIzODYzNjM2MzY0LCJ5IjoxMjMzfV0=" data-look="classic" marker-end="url(#my-svg_flowchart-v2-pointEnd)"/></g><g class="edgeLabels"><g class="edgeLabel" transform="translate(267.421875, 59)"><g class="label" data-id="L_MCP_D1_0" transform="translate(-8, -12)"><foreignObject width="16" height="24"><div xmlns="http://www.w3.org/1999/xhtml" class="labelBkg" style="display: table-cell; white-space: nowrap; line-height: 1.5; max-width: 200px; text-align: center;"><span class="edgeLabel"><p>中</p></span></div></foreignObject></g></g><g class="edgeLabel" transform="translate(267.421875, 323)"><g class="label" data-id="L_MCP_D2_0" transform="translate(-8, -12)"><foreignObject width="16" height="24"><div xmlns="http://www.w3.org/1999/xhtml" class="labelBkg" style="display: table-cell; white-space: nowrap; line-height: 1.5; max-width: 200px; text-align: center;"><span class="edgeLabel"><p>高</p></span></div></foreignObject></g></g><g class="edgeLabel" transform="translate(267.421875, 737)"><g class="label" data-id="L_MCP_D3_0" transform="translate(-8, -12)"><foreignObject width="16" height="24"><div xmlns="http://www.w3.org/1999/xhtml" class="labelBkg" style="display: table-cell; white-space: nowrap; line-height: 1.5; max-width: 200px; text-align: center;"><span class="edgeLabel"><p>中</p></span></div></foreignObject></g></g><g class="edgeLabel" transform="translate(267.421875, 1141)"><g class="label" data-id="L_MCP_D4_0" transform="translate(-8, -12)"><foreignObject width="16" height="24"><div xmlns="http://www.w3.org/1999/xhtml" class="labelBkg" style="display: table-cell; white-space: nowrap; line-height: 1.5; max-width: 200px; text-align: center;"><span class="edgeLabel"><p>细</p></span></div></foreignObject></g></g><g class="edgeLabel" transform="translate(267.421875, 103)"><g class="label" data-id="L_A2A_D1_0" transform="translate(-8, -12)"><foreignObject width="16" height="24"><div xmlns="http://www.w3.org/1999/xhtml" class="labelBkg" style="display: table-cell; white-space: nowrap; line-height: 1.5; max-width: 200px; text-align: center;"><span class="edgeLabel"><p>低</p></span></div></foreignObject></g></g><g class="edgeLabel" transform="translate(267.421875, 397)"><g class="label" data-id="L_A2A_D2_0" transform="translate(-8, -12)"><foreignObject width="16" height="24"><div xmlns="http://www.w3.org/1999/xhtml" class="labelBkg" style="display: table-cell; white-space: nowrap; line-height: 1.5; max-width: 200px; text-align: center;"><span class="edgeLabel"><p>高</p></span></div></foreignObject></g></g><g class="edgeLabel" transform="translate(267.421875, 801)"><g class="label" data-id="L_A2A_D3_0" transform="translate(-8, -12)"><foreignObject width="16" height="24"><div xmlns="http://www.w3.org/1999/xhtml" class="labelBkg" style="display: table-cell; white-space: nowrap; line-height: 1.5; max-width: 200px; text-align: center;"><span class="edgeLabel"><p>高</p></span></div></foreignObject></g></g><g class="edgeLabel" transform="translate(267.421875, 1185)"><g class="label" data-id="L_A2A_D4_0" transform="translate(-8, -12)"><foreignObject width="16" height="24"><div xmlns="http://www.w3.org/1999/xhtml" class="labelBkg" style="display: table-cell; white-space: nowrap; line-height: 1.5; max-width: 200px; text-align: center;"><span class="edgeLabel"><p>粗</p></span></div></foreignObject></g></g><g class="edgeLabel" transform="translate(267.421875, 147)"><g class="label" data-id="L_RAG_D1_0" transform="translate(-8, -12)"><foreignObject width="16" height="24"><div xmlns="http://www.w3.org/1999/xhtml" class="labelBkg" style="display: table-cell; white-space: nowrap; line-height: 1.5; max-width: 200px; text-align: center;"><span class="edgeLabel"><p>中</p></span></div></foreignObject></g></g><g class="edgeLabel" transform="translate(267.421875, 471)"><g class="label" data-id="L_RAG_D2_0" transform="translate(-8, -12)"><foreignObject width="16" height="24"><div xmlns="http://www.w3.org/1999/xhtml" class="labelBkg" style="display: table-cell; white-space: nowrap; line-height: 1.5; max-width: 200px; text-align: center;"><span class="edgeLabel"><p>中</p></span></div></foreignObject></g></g><g class="edgeLabel" transform="translate(267.421875, 875)"><g class="label" data-id="L_RAG_D3_0" transform="translate(-8, -12)"><foreignObject width="16" height="24"><div xmlns="http://www.w3.org/1999/xhtml" class="labelBkg" style="display: table-cell; white-space: nowrap; line-height: 1.5; max-width: 200px; text-align: center;"><span class="edgeLabel"><p>中</p></span></div></foreignObject></g></g><g class="edgeLabel" transform="translate(267.421875, 1229)"><g class="label" data-id="L_RAG_D4_0" transform="translate(-16, -12)"><foreignObject width="32" height="24"><div xmlns="http://www.w3.org/1999/xhtml" class="labelBkg" style="display: table-cell; white-space: nowrap; line-height: 1.5; max-width: 200px; text-align: center;"><span class="edgeLabel"><p>管道</p></span></div></foreignObject></g></g><g class="edgeLabel" transform="translate(267.421875, 191)"><g class="label" data-id="L_PROMPT_D1_0" transform="translate(-8, -12)"><foreignObject width="16" height="24"><div xmlns="http://www.w3.org/1999/xhtml" class="labelBkg" style="display: table-cell; white-space: nowrap; line-height: 1.5; max-width: 200px; text-align: center;"><span class="edgeLabel"><p>低</p></span></div></foreignObject></g></g><g class="edgeLabel" transform="translate(267.421875, 545)"><g class="label" data-id="L_PROMPT_D2_0" transform="translate(-8, -12)"><foreignObject width="16" height="24"><div xmlns="http://www.w3.org/1999/xhtml" class="labelBkg" style="display: table-cell; white-space: nowrap; line-height: 1.5; max-width: 200px; text-align: center;"><span class="edgeLabel"><p>中</p></span></div></foreignObject></g></g><g class="edgeLabel" transform="translate(267.421875, 949)"><g class="label" data-id="L_PROMPT_D3_0" transform="translate(-8, -12)"><foreignObject width="16" height="24"><div xmlns="http://www.w3.org/1999/xhtml" class="labelBkg" style="display: table-cell; white-space: nowrap; line-height: 1.5; max-width: 200px; text-align: center;"><span class="edgeLabel"><p>低</p></span></div></foreignObject></g></g><g class="edgeLabel" transform="translate(267.421875, 1273)"><g class="label" data-id="L_PROMPT_D4_0" transform="translate(-8, -12)"><foreignObject width="16" height="24"><div xmlns="http://www.w3.org/1999/xhtml" class="labelBkg" style="display: table-cell; white-space: nowrap; line-height: 1.5; max-width: 200px; text-align: center;"><span class="edgeLabel"><p>细</p></span></div></foreignObject></g></g><g class="edgeLabel" transform="translate(267.421875, 235)"><g class="label" data-id="L_MODEL_D1_0" transform="translate(-8, -12)"><foreignObject width="16" height="24"><div xmlns="http://www.w3.org/1999/xhtml" class="labelBkg" style="display: table-cell; white-space: nowrap; line-height: 1.5; max-width: 200px; text-align: center;"><span class="edgeLabel"><p>低</p></span></div></foreignObject></g></g><g class="edgeLabel" transform="translate(267.421875, 619)"><g class="label" data-id="L_MODEL_D2_0" transform="translate(-8, -12)"><foreignObject width="16" height="24"><div xmlns="http://www.w3.org/1999/xhtml" class="labelBkg" style="display: table-cell; white-space: nowrap; line-height: 1.5; max-width: 200px; text-align: center;"><span class="edgeLabel"><p>中</p></span></div></foreignObject></g></g><g class="edgeLabel" transform="translate(267.421875, 1023)"><g class="label" data-id="L_MODEL_D3_0" transform="translate(-8, -12)"><foreignObject width="16" height="24"><div xmlns="http://www.w3.org/1999/xhtml" class="labelBkg" style="display: table-cell; white-space: nowrap; line-height: 1.5; max-width: 200px; text-align: center;"><span class="edgeLabel"><p>高</p></span></div></foreignObject></g></g><g class="edgeLabel" transform="translate(267.421875, 1317)"><g class="label" data-id="L_MODEL_D4_0" transform="translate(-16, -12)"><foreignObject width="32" height="24"><div xmlns="http://www.w3.org/1999/xhtml" class="labelBkg" style="display: table-cell; white-space: nowrap; line-height: 1.5; max-width: 200px; text-align: center;"><span class="edgeLabel"><p>服务</p></span></div></foreignObject></g></g><g class="edgeLabel" transform="translate(267.421875, 279)"><g class="label" data-id="L_CONTRACT_D1_0" transform="translate(-8, -12)"><foreignObject width="16" height="24"><div xmlns="http://www.w3.org/1999/xhtml" class="labelBkg" style="display: table-cell; white-space: nowrap; line-height: 1.5; max-width: 200px; text-align: center;"><span class="edgeLabel"><p>中</p></span></div></foreignObject></g></g><g class="edgeLabel" transform="translate(267.421875, 693)"><g class="label" data-id="L_CONTRACT_D2_0" transform="translate(-8, -12)"><foreignObject width="16" height="24"><div xmlns="http://www.w3.org/1999/xhtml" class="labelBkg" style="display: table-cell; white-space: nowrap; line-height: 1.5; max-width: 200px; text-align: center;"><span class="edgeLabel"><p>高</p></span></div></foreignObject></g></g><g class="edgeLabel" transform="translate(267.421875, 1097)"><g class="label" data-id="L_CONTRACT_D3_0" transform="translate(-8, -12)"><foreignObject width="16" height="24"><div xmlns="http://www.w3.org/1999/xhtml" class="labelBkg" style="display: table-cell; white-space: nowrap; line-height: 1.5; max-width: 200px; text-align: center;"><span class="edgeLabel"><p>高</p></span></div></foreignObject></g></g><g class="edgeLabel" transform="translate(267.421875, 1371)"><g class="label" data-id="L_CONTRACT_D4_0" transform="translate(-16, -12)"><foreignObject width="32" height="24"><div xmlns="http://www.w3.org/1999/xhtml" class="labelBkg" style="display: table-cell; white-space: nowrap; line-height: 1.5; max-width: 200px; text-align: center;"><span class="edgeLabel"><p>契约</p></span></div></foreignObject></g></g></g><g class="nodes"><g class="node default" id="my-svg-flowchart-D1-0" data-look="classic" transform="translate(438.671875, 214)"><rect class="basic label-container" style="fill:#e3f2fd !important;stroke:#333 !important" x="-70" y="-27" width="140" height="54"/><g class="label" style="" transform="translate(-40, -12)"><rect/><foreignObject width="80" height="24"><div xmlns="http://www.w3.org/1999/xhtml" style="display: table-cell; white-space: nowrap; line-height: 1.5; max-width: 200px; text-align: center;"><span class="nodeLabel"><p>输出确定性</p></span></div></foreignObject></g></g><g class="node default" id="my-svg-flowchart-D2-1" data-look="classic" transform="translate(438.671875, 478)"><rect class="basic label-container" style="fill:#e3f2fd !important;stroke:#333 !important" x="-105.25" y="-27" width="210.5" height="54"/><g class="label" style="" transform="translate(-75.25, -12)"><rect/><foreignObject width="150.5" height="24"><div xmlns="http://www.w3.org/1999/xhtml" style="display: table-cell; white-space: nowrap; line-height: 1.5; max-width: 200px; text-align: center;"><span class="nodeLabel"><p>跨 Agent/工具互操作</p></span></div></foreignObject></g></g><g class="node default" id="my-svg-flowchart-D3-2" data-look="classic" transform="translate(438.671875, 942)"><rect class="basic label-container" style="fill:#fff3e0 !important;stroke:#333 !important" x="-70" y="-27" width="140" height="54"/><g class="label" style="" transform="translate(-40, -12)"><rect/><foreignObject width="80" height="24"><div xmlns="http://www.w3.org/1999/xhtml" style="display: table-cell; white-space: nowrap; line-height: 1.5; max-width: 200px; text-align: center;"><span class="nodeLabel"><p>治理复杂度</p></span></div></foreignObject></g></g><g class="node default" id="my-svg-flowchart-D4-3" data-look="classic" transform="translate(438.671875, 1206)"><rect class="basic label-container" style="fill:#e8f5e9 !important;stroke:#333 !important" x="-62" y="-27" width="124" height="54"/><g class="label" style="" transform="translate(-32, -12)"><rect/><foreignObject width="64" height="24"><div xmlns="http://www.w3.org/1999/xhtml" style="display: table-cell; white-space: nowrap; line-height: 1.5; max-width: 200px; text-align: center;"><span class="nodeLabel"><p>复用粒度</p></span></div></foreignObject></g></g><g class="node default" id="my-svg-flowchart-MCP-4" data-look="classic" transform="translate(117.2109375, 445)"><rect class="basic label-container" style="" x="-61.640625" y="-27" width="123.28125" height="54"/><g class="label" style="" transform="translate(-31.640625, -12)"><rect/><foreignObject width="63.28125" height="24"><div xmlns="http://www.w3.org/1999/xhtml" style="display: table-cell; white-space: nowrap; line-height: 1.5; max-width: 200px; text-align: center;"><span class="nodeLabel"><p>MCP Tool</p></span></div></foreignObject></g></g><g class="node default" id="my-svg-flowchart-A2A-5" data-look="classic" transform="translate(117.2109375, 549)"><rect class="basic label-container" style="" x="-84.2109375" y="-27" width="168.421875" height="54"/><g class="label" style="" transform="translate(-54.2109375, -12)"><rect/><foreignObject width="108.421875" height="24"><div xmlns="http://www.w3.org/1999/xhtml" style="display: table-cell; white-space: nowrap; line-height: 1.5; max-width: 200px; text-align: center;"><span class="nodeLabel"><p>A2A Agent 能力</p></span></div></foreignObject></g></g><g class="node default" id="my-svg-flowchart-RAG-6" data-look="classic" transform="translate(117.2109375, 653)"><rect class="basic label-container" style="" x="-63.1953125" y="-27" width="126.390625" height="54"/><g class="label" style="" transform="translate(-33.1953125, -12)"><rect/><foreignObject width="66.390625" height="24"><div xmlns="http://www.w3.org/1999/xhtml" style="display: table-cell; white-space: nowrap; line-height: 1.5; max-width: 200px; text-align: center;"><span class="nodeLabel"><p>RAG 管道</p></span></div></foreignObject></g></g><g class="node default" id="my-svg-flowchart-PROMPT-7" data-look="classic" transform="translate(117.2109375, 757)"><rect class="basic label-container" style="" x="-74.171875" y="-27" width="148.34375" height="54"/><g class="label" style="" transform="translate(-44.171875, -12)"><rect/><foreignObject width="88.34375" height="24"><div xmlns="http://www.w3.org/1999/xhtml" style="display: table-cell; white-space: nowrap; line-height: 1.5; max-width: 200px; text-align: center;"><span class="nodeLabel"><p>Prompt 模板</p></span></div></foreignObject></g></g><g class="node default" id="my-svg-flowchart-MODEL-8" data-look="classic" transform="translate(117.2109375, 861)"><rect class="basic label-container" style="" x="-79.40625" y="-27" width="158.8125" height="54"/><g class="label" style="" transform="translate(-49.40625, -12)"><rect/><foreignObject width="98.8125" height="24"><div xmlns="http://www.w3.org/1999/xhtml" style="display: table-cell; white-space: nowrap; line-height: 1.5; max-width: 200px; text-align: center;"><span class="nodeLabel"><p>Model Service</p></span></div></foreignObject></g></g><g class="node default" id="my-svg-flowchart-CONTRACT-9" data-look="classic" transform="translate(117.2109375, 965)"><rect class="basic label-container" style="" x="-62" y="-27" width="124" height="54"/><g class="label" style="" transform="translate(-32, -12)"><rect/><foreignObject width="64" height="24"><div xmlns="http://www.w3.org/1999/xhtml" style="display: table-cell; white-space: nowrap; line-height: 1.5; max-width: 200px; text-align: center;"><span class="nodeLabel"><p>概率契约</p></span></div></foreignObject></g></g></g></g></g><defs><filter id="my-svg-drop-shadow" height="130%" width="130%"><feDropShadow dx="4" dy="4" stdDeviation="0" flood-opacity="0.06" flood-color="#000000"/></filter></defs><defs><filter id="my-svg-drop-shadow-small" height="150%" width="150%"><feDropShadow dx="2" dy="2" stdDeviation="0" flood-opacity="0.06" flood-color="#000000"/></filter></defs></svg>