<svg id="my-svg" width="100%" xmlns="http://www.w3.org/2000/svg" xmlns:xlink="http://www.w3.org/1999/xlink" class="flowchart" style="max-width: 494px; background-color: transparent;" viewBox="0 0 494 1410" role="graphics-document document" aria-roledescription="flowchart-v2"><style>#my-svg{font-family:"trebuchet ms",verdana,arial,sans-serif;font-size:16px;fill:#333;}@keyframes edge-animation-frame{from{stroke-dashoffset:0;}}@keyframes dash{to{stroke-dashoffset:0;}}#my-svg .edge-animation-slow{stroke-dasharray:9,5!important;stroke-dashoffset:900;animation:dash 50s linear infinite;stroke-linecap:round;}#my-svg .edge-animation-fast{stroke-dasharray:9,5!important;stroke-dashoffset:900;animation:dash 20s linear infinite;stroke-linecap:round;}#my-svg .error-icon{fill:#552222;}#my-svg .error-text{fill:#552222;stroke:#552222;}#my-svg .edge-thickness-normal{stroke-width:1px;}#my-svg .edge-thickness-thick{stroke-width:3.5px;}#my-svg .edge-pattern-solid{stroke-dasharray:0;}#my-svg .edge-thickness-invisible{stroke-width:0;fill:none;}#my-svg .edge-pattern-dashed{stroke-dasharray:3;}#my-svg .edge-pattern-dotted{stroke-dasharray:2;}#my-svg .marker{fill:#333333;stroke:#333333;}#my-svg .marker.cross{stroke:#333333;}#my-svg svg{font-family:"trebuchet ms",verdana,arial,sans-serif;font-size:16px;}#my-svg p{margin:0;}#my-svg .label{font-family:"trebuchet ms",verdana,arial,sans-serif;color:#333;}#my-svg .cluster-label text{fill:#333;}#my-svg .cluster-label span{color:#333;}#my-svg .cluster-label span p{background-color:transparent;}#my-svg .label text,#my-svg span{fill:#333;color:#333;}#my-svg .node rect,#my-svg .node circle,#my-svg .node ellipse,#my-svg .node polygon,#my-svg .node path{fill:#ECECFF;stroke:#9370DB;stroke-width:1px;}#my-svg .rough-node .label text,#my-svg .node .label text,#my-svg .image-shape .label,#my-svg .icon-shape .label{text-anchor:middle;}#my-svg .node .katex path{fill:#000;stroke:#000;stroke-width:1px;}#my-svg .rough-node .label,#my-svg .node .label,#my-svg .image-shape .label,#my-svg .icon-shape .label{text-align:center;}#my-svg .node.clickable{cursor:pointer;}#my-svg .root .anchor path{fill:#333333!important;stroke-width:0;stroke:#333333;}#my-svg .arrowheadPath{fill:#333333;}#my-svg .edgePath .path{stroke:#333333;stroke-width:1px;}#my-svg .flowchart-link{stroke:#333333;fill:none;}#my-svg .edgeLabel{background-color:rgba(232,232,232, 0.8);text-align:center;}#my-svg .edgeLabel p{background-color:rgba(232,232,232, 0.8);}#my-svg .edgeLabel rect{opacity:0.5;background-color:rgba(232,232,232, 0.8);fill:rgba(232,232,232, 0.8);}#my-svg .labelBkg{background-color:rgba(232, 232, 232, 0.5);}#my-svg .cluster rect{fill:#ffffde;stroke:#aaaa33;stroke-width:1px;}#my-svg .cluster text{fill:#333;}#my-svg .cluster span{color:#333;}#my-svg div.mermaidTooltip{position:absolute;text-align:center;max-width:200px;padding:2px;font-family:"trebuchet ms",verdana,arial,sans-serif;font-size:12px;background:hsl(80, 100%, 96.2745098039%);border:1px solid #aaaa33;border-radius:2px;pointer-events:none;z-index:100;}#my-svg .flowchartTitleText{text-anchor:middle;font-size:18px;fill:#333;}#my-svg rect.text{fill:none;stroke-width:0;}#my-svg .icon-shape,#my-svg .image-shape{background-color:rgba(232,232,232, 0.8);text-align:center;}#my-svg .icon-shape p,#my-svg .image-shape p{background-color:rgba(232,232,232, 0.8);padding:2px;}#my-svg .icon-shape .label rect,#my-svg .image-shape .label rect{opacity:0.5;background-color:rgba(232,232,232, 0.8);fill:rgba(232,232,232, 0.8);}#my-svg .label-icon{display:inline-block;height:1em;overflow:visible;vertical-align:-0.125em;}#my-svg .node .label-icon path{fill:currentColor;stroke:revert;stroke-width:revert;}#my-svg .node .neo-node{stroke:#9370DB;}#my-svg [data-look="neo"].node rect,#my-svg [data-look="neo"].cluster rect,#my-svg [data-look="neo"].node polygon{stroke:#9370DB;filter:drop-shadow(1px 2px 2px rgba(185, 185, 185, 1));}#my-svg [data-look="neo"].node path{stroke:#9370DB;stroke-width:1px;}#my-svg [data-look="neo"].node .outer-path{filter:drop-shadow(1px 2px 2px rgba(185, 185, 185, 1));}#my-svg [data-look="neo"].node .neo-line path{stroke:#9370DB;filter:none;}#my-svg [data-look="neo"].node circle{stroke:#9370DB;filter:drop-shadow(1px 2px 2px rgba(185, 185, 185, 1));}#my-svg [data-look="neo"].node circle .state-start{fill:#000000;}#my-svg [data-look="neo"].icon-shape .icon{fill:#9370DB;filter:drop-shadow(1px 2px 2px rgba(185, 185, 185, 1));}#my-svg [data-look="neo"].icon-shape .icon-neo path{stroke:#9370DB;filter:drop-shadow(1px 2px 2px rgba(185, 185, 185, 1));}#my-svg :root{--mermaid-font-family:"trebuchet ms",verdana,arial,sans-serif;}</style><g><marker id="my-svg_flowchart-v2-pointEnd" class="marker flowchart-v2" viewBox="0 0 10 10" refX="5" refY="5" markerUnits="userSpaceOnUse" markerWidth="8" markerHeight="8" orient="auto"><path d="M 0 0 L 10 5 L 0 10 z" class="arrowMarkerPath" style="stroke-width: 1; stroke-dasharray: 1, 0;"/></marker><marker id="my-svg_flowchart-v2-pointStart" class="marker flowchart-v2" viewBox="0 0 10 10" refX="4.5" refY="5" markerUnits="userSpaceOnUse" markerWidth="8" markerHeight="8" orient="auto"><path d="M 0 5 L 10 10 L 10 0 z" class="arrowMarkerPath" style="stroke-width: 1; stroke-dasharray: 1, 0;"/></marker><marker id="my-svg_flowchart-v2-pointEnd-margin" class="marker flowchart-v2" viewBox="0 0 11.5 14" refX="11.5" refY="7" markerUnits="userSpaceOnUse" markerWidth="10.5" markerHeight="14" orient="auto"><path d="M 0 0 L 11.5 7 L 0 14 z" class="arrowMarkerPath" style="stroke-width: 0; stroke-dasharray: 1, 0;"/></marker><marker id="my-svg_flowchart-v2-pointStart-margin" class="marker flowchart-v2" viewBox="0 0 11.5 14" refX="1" refY="7" markerUnits="userSpaceOnUse" markerWidth="11.5" markerHeight="14" orient="auto"><polygon points="0,7 11.5,14 11.5,0" class="arrowMarkerPath" style="stroke-width: 0; stroke-dasharray: 1, 0;"/></marker><marker id="my-svg_flowchart-v2-circleEnd" class="marker flowchart-v2" viewBox="0 0 10 10" refX="11" refY="5" markerUnits="userSpaceOnUse" markerWidth="11" markerHeight="11" orient="auto"><circle cx="5" cy="5" r="5" class="arrowMarkerPath" style="stroke-width: 1; stroke-dasharray: 1, 0;"/></marker><marker id="my-svg_flowchart-v2-circleStart" class="marker flowchart-v2" viewBox="0 0 10 10" refX="-1" refY="5" markerUnits="userSpaceOnUse" markerWidth="11" markerHeight="11" orient="auto"><circle cx="5" cy="5" r="5" class="arrowMarkerPath" style="stroke-width: 1; stroke-dasharray: 1, 0;"/></marker><marker id="my-svg_flowchart-v2-circleEnd-margin" class="marker flowchart-v2" viewBox="0 0 10 10" refY="5" refX="12.25" markerUnits="userSpaceOnUse" markerWidth="14" markerHeight="14" orient="auto"><circle cx="5" cy="5" r="5" class="arrowMarkerPath" style="stroke-width: 0; stroke-dasharray: 1, 0;"/></marker><marker id="my-svg_flowchart-v2-circleStart-margin" class="marker flowchart-v2" viewBox="0 0 10 10" refX="-2" refY="5" markerUnits="userSpaceOnUse" markerWidth="14" markerHeight="14" orient="auto"><circle cx="5" cy="5" r="5" class="arrowMarkerPath" style="stroke-width: 0; stroke-dasharray: 1, 0;"/></marker><marker id="my-svg_flowchart-v2-crossEnd" class="marker cross flowchart-v2" viewBox="0 0 11 11" refX="12" refY="5.2" markerUnits="userSpaceOnUse" markerWidth="11" markerHeight="11" orient="auto"><path d="M 1,1 l 9,9 M 10,1 l -9,9" class="arrowMarkerPath" style="stroke-width: 2; stroke-dasharray: 1, 0;"/></marker><marker id="my-svg_flowchart-v2-crossStart" class="marker cross flowchart-v2" viewBox="0 0 11 11" refX="-1" refY="5.2" markerUnits="userSpaceOnUse" markerWidth="11" markerHeight="11" orient="auto"><path d="M 1,1 l 9,9 M 10,1 l -9,9" class="arrowMarkerPath" style="stroke-width: 2; stroke-dasharray: 1, 0;"/></marker><marker id="my-svg_flowchart-v2-crossEnd-margin" class="marker cross flowchart-v2" viewBox="0 0 15 15" refX="17.7" refY="7.5" markerUnits="userSpaceOnUse" markerWidth="12" markerHeight="12" orient="auto"><path d="M 1,1 L 14,14 M 1,14 L 14,1" class="arrowMarkerPath" style="stroke-width: 2.5;"/></marker><marker id="my-svg_flowchart-v2-crossStart-margin" class="marker cross flowchart-v2" viewBox="0 0 15 15" refX="-3.5" refY="7.5" markerUnits="userSpaceOnUse" markerWidth="12" markerHeight="12" orient="auto"><path d="M 1,1 L 14,14 M 1,14 L 14,1" class="arrowMarkerPath" style="stroke-width: 2.5; stroke-dasharray: 1, 0;"/></marker><g class="root"><g class="clusters"><g class="cluster" id="my-svg-新兴趋势" data-look="classic"><rect style="" x="8" y="8" width="190" height="1394"/><g class="cluster-label" transform="translate(71, 8)"><foreignObject width="64" height="24"><div xmlns="http://www.w3.org/1999/xhtml" style="display: table-cell; white-space: nowrap; line-height: 1.5;"><span class="nodeLabel"><p>新兴趋势</p></span></div></foreignObject></g></g><g class="cluster" id="my-svg-评估维度" data-look="classic"><rect style="" x="264" y="8" width="222" height="1394"/><g class="cluster-label" transform="translate(343, 8)"><foreignObject width="64" height="24"><div xmlns="http://www.w3.org/1999/xhtml" style="display: table-cell; white-space: nowrap; line-height: 1.5;"><span class="nodeLabel"><p>评估维度</p></span></div></foreignObject></g></g></g><g class="edgePaths"><path d="M109.645,418L124.371,358.167C139.097,298.333,168.548,178.667,188.774,118.833C209,59,220,59,231,59C242,59,253,59,273.389,79.791C293.779,100.583,323.557,142.165,338.446,162.957L353.336,183.748" id="my-svg-L_PE_D1_0" class="edge-thickness-normal edge-pattern-solid edge-thickness-normal edge-pattern-solid flowchart-link" style=";" data-edge="true" data-et="edge" data-id="L_PE_D1_0" data-points="W3sieCI6MTA5LjY0NTA3NzcyMDIwNzI1LCJ5Ijo0MTh9LHsieCI6MTk4LCJ5Ijo1OX0seyJ4IjoyMzEsInkiOjU5fSx7IngiOjI2NCwieSI6NTl9LHsieCI6MzU1LjY2NDUxNjEyOTAzMjMsInkiOjE4N31d" data-look="classic" marker-end="url(#my-svg_flowchart-v2-pointEnd)"/><path d="M124.025,418L136.354,402.167C148.683,386.333,173.342,354.667,191.171,338.833C209,323,220,323,231,323C242,323,253,323,273.389,343.791C293.779,364.583,323.557,406.165,338.446,426.957L353.336,447.748" id="my-svg-L_PE_D2_0" class="edge-thickness-normal edge-pattern-solid edge-thickness-normal edge-pattern-solid flowchart-link" style=";" data-edge="true" data-et="edge" data-id="L_PE_D2_0" data-points="W3sieCI6MTI0LjAyNDU5MDE2MzkzNDQyLCJ5Ijo0MTh9LHsieCI6MTk4LCJ5IjozMjN9LHsieCI6MjMxLCJ5IjozMjN9LHsieCI6MjY0LCJ5IjozMjN9LHsieCI6MzU1LjY2NDUxNjEyOTAzMjMsInkiOjQ1MX1d" data-look="classic" marker-end="url(#my-svg_flowchart-v2-pointEnd)"/><path d="M111.784,472L126.154,516.167C140.523,560.333,169.261,648.667,189.131,692.833C209,737,220,737,231,737C242,737,253,737,274.246,766.08C295.492,795.161,326.984,853.322,342.73,882.402L358.476,911.483" id="my-svg-L_PE_D3_0" class="edge-thickness-normal edge-pattern-solid edge-thickness-normal edge-pattern-solid flowchart-link" style=";" data-edge="true" data-et="edge" data-id="L_PE_D3_0" data-points="W3sieCI6MTExLjc4NDI0NjU3NTM0MjQ2LCJ5Ijo0NzJ9LHsieCI6MTk4LCJ5Ijo3Mzd9LHsieCI6MjMxLCJ5Ijo3Mzd9LHsieCI6MjY0LCJ5Ijo3Mzd9LHsieCI6MzYwLjM4MDQ4NzgwNDg3ODA0LCJ5Ijo5MTV9XQ==" data-look="classic" marker-end="url(#my-svg_flowchart-v2-pointEnd)"/><path d="M106.685,472L121.904,583.5C137.124,695,167.562,918,188.281,1029.5C209,1141,220,1141,231,1141C242,1141,253,1141,268.74,1146.996C284.48,1152.993,304.96,1164.986,315.2,1170.982L325.441,1176.979" id="my-svg-L_PE_D4_0" class="edge-thickness-normal edge-pattern-solid edge-thickness-normal edge-pattern-solid flowchart-link" style=";" data-edge="true" data-et="edge" data-id="L_PE_D4_0" data-points="W3sieCI6MTA2LjY4NTM0NDgyNzU4NjIsInkiOjQ3Mn0seyJ4IjoxOTgsInkiOjExNDF9LHsieCI6MjMxLCJ5IjoxMTQxfSx7IngiOjI2NCwieSI6MTE0MX0seyJ4IjozMjguODkyMzA3NjkyMzA3NjcsInkiOjExNzl9XQ==" data-look="classic" marker-end="url(#my-svg_flowchart-v2-pointEnd)"/><path d="M108.751,522L123.626,452.167C138.501,382.333,168.25,242.667,188.625,172.833C209,103,220,103,231,103C242,103,253,103,272.029,116.529C291.057,130.057,318.114,157.114,331.643,170.643L345.172,184.172" id="my-svg-L_MM_D1_0" class="edge-thickness-normal edge-pattern-solid edge-thickness-normal edge-pattern-solid flowchart-link" style=";" data-edge="true" data-et="edge" data-id="L_MM_D1_0" data-points="W3sieCI6MTA4Ljc1MTEyMTA3NjIzMzE5LCJ5Ijo1MjJ9LHsieCI6MTk4LCJ5IjoxMDN9LHsieCI6MjMxLCJ5IjoxMDN9LHsieCI6MjY0LCJ5IjoxMDN9LHsieCI6MzQ4LCJ5IjoxODd9XQ==" data-look="classic" marker-end="url(#my-svg_flowchart-v2-pointEnd)"/><path d="M119.875,522L132.896,501.167C145.917,480.333,171.958,438.667,190.479,417.833C209,397,220,397,231,397C242,397,253,397,270.295,405.607C287.59,414.214,311.179,431.428,322.974,440.035L334.769,448.642" id="my-svg-L_MM_D2_0" class="edge-thickness-normal edge-pattern-solid edge-thickness-normal edge-pattern-solid flowchart-link" style=";" data-edge="true" data-et="edge" data-id="L_MM_D2_0" data-points="W3sieCI6MTE5Ljg3NSwieSI6NTIyfSx7IngiOjE5OCwieSI6Mzk3fSx7IngiOjIzMSwieSI6Mzk3fSx7IngiOjI2NCwieSI6Mzk3fSx7IngiOjMzOCwieSI6NDUxfV0=" data-look="classic" marker-end="url(#my-svg_flowchart-v2-pointEnd)"/><path d="M113.179,576L127.315,613.5C141.452,651,169.726,726,189.363,763.5C209,801,220,801,231,801C242,801,253,801,273.045,819.476C293.09,837.952,322.18,874.905,336.725,893.381L351.27,911.857" id="my-svg-L_MM_D3_0" class="edge-thickness-normal edge-pattern-solid edge-thickness-normal edge-pattern-solid flowchart-link" style=";" data-edge="true" data-et="edge" data-id="L_MM_D3_0" data-points="W3sieCI6MTEzLjE3ODU3MTQyODU3MTQzLCJ5Ijo1NzZ9LHsieCI6MTk4LCJ5Ijo4MDF9LHsieCI6MjMxLCJ5Ijo4MDF9LHsieCI6MjY0LCJ5Ijo4MDF9LHsieCI6MzUzLjc0NDY4MDg1MTA2MzgzLCJ5Ijo5MTV9XQ==" data-look="classic" marker-end="url(#my-svg_flowchart-v2-pointEnd)"/><path d="M107.033,576L122.194,677.5C137.355,779,167.678,982,188.339,1083.5C209,1185,220,1185,231,1185C242,1185,253,1185,263.345,1185.917C273.69,1186.833,283.38,1188.666,288.225,1189.583L293.07,1190.5" id="my-svg-L_MM_D4_0" class="edge-thickness-normal edge-pattern-solid edge-thickness-normal edge-pattern-solid flowchart-link" style=";" data-edge="true" data-et="edge" data-id="L_MM_D4_0" data-points="W3sieCI6MTA3LjAzMzAxODg2NzkyNDUzLCJ5Ijo1NzZ9LHsieCI6MTk4LCJ5IjoxMTg1fSx7IngiOjIzMSwieSI6MTE4NX0seyJ4IjoyNjQsInkiOjExODV9LHsieCI6Mjk3LCJ5IjoxMTkxLjI0MzI0MzI0MzI0MzN9XQ==" data-look="classic" marker-end="url(#my-svg_flowchart-v2-pointEnd)"/><path d="M108.069,626L123.058,546.167C138.046,466.333,168.023,306.667,188.512,226.833C209,147,220,147,231,147C242,147,253,147,268.974,153.322C284.948,159.644,305.896,172.289,316.37,178.611L326.844,184.933" id="my-svg-L_WASM_D1_0" class="edge-thickness-normal edge-pattern-solid edge-thickness-normal edge-pattern-solid flowchart-link" style=";" data-edge="true" data-et="edge" data-id="L_WASM_D1_0" data-points="W3sieCI6MTA4LjA2OTE2OTk2MDQ3NDMxLCJ5Ijo2MjZ9LHsieCI6MTk4LCJ5IjoxNDd9LHsieCI6MjMxLCJ5IjoxNDd9LHsieCI6MjY0LCJ5IjoxNDd9LHsieCI6MzMwLjI2ODY1NjcxNjQxNzksInkiOjE4N31d" data-look="classic" marker-end="url(#my-svg_flowchart-v2-pointEnd)"/><path d="M117.093,626L130.578,600.167C144.062,574.333,171.031,522.667,190.016,496.833C209,471,220,471,231,471C242,471,253,471,262.001,471.221C271.003,471.442,278.005,471.883,281.507,472.104L285.008,472.325" id="my-svg-L_WASM_D2_0" class="edge-thickness-normal edge-pattern-solid edge-thickness-normal edge-pattern-solid flowchart-link" style=";" data-edge="true" data-et="edge" data-id="L_WASM_D2_0" data-points="W3sieCI6MTE3LjA5MzQwNjU5MzQwNjYsInkiOjYyNn0seyJ4IjoxOTgsInkiOjQ3MX0seyJ4IjoyMzEsInkiOjQ3MX0seyJ4IjoyNjQsInkiOjQ3MX0seyJ4IjoyODksInkiOjQ3Mi41NzY1NzY1NzY1NzY2fV0=" data-look="classic" marker-end="url(#my-svg_flowchart-v2-pointEnd)"/><path d="M114.554,680L128.462,712.5C142.369,745,170.185,810,189.592,842.5C209,875,220,875,231,875C242,875,253,875,268.974,881.322C284.948,887.644,305.896,900.289,316.37,906.611L326.844,912.933" id="my-svg-L_WASM_D3_0" class="edge-thickness-normal edge-pattern-solid edge-thickness-normal edge-pattern-solid flowchart-link" style=";" data-edge="true" data-et="edge" data-id="L_WASM_D3_0" data-points="W3sieCI6MTE0LjU1NDA1NDA1NDA1NDA1LCJ5Ijo2ODB9LHsieCI6MTk4LCJ5Ijo4NzV9LHsieCI6MjMxLCJ5Ijo4NzV9LHsieCI6MjY0LCJ5Ijo4NzV9LHsieCI6MzMwLjI2ODY1NjcxNjQxNzksInkiOjkxNX1d" data-look="classic" marker-end="url(#my-svg_flowchart-v2-pointEnd)"/><path d="M107.453,680L122.544,771.5C137.635,863,167.818,1046,188.409,1137.5C209,1229,220,1229,231,1229C242,1229,253,1229,263.347,1227.996C273.694,1226.991,283.389,1224.983,288.236,1223.978L293.083,1222.974" id="my-svg-L_WASM_D4_0" class="edge-thickness-normal edge-pattern-solid edge-thickness-normal edge-pattern-solid flowchart-link" style=";" data-edge="true" data-et="edge" data-id="L_WASM_D4_0" data-points="W3sieCI6MTA3LjQ1MzEyNSwieSI6NjgwfSx7IngiOjE5OCwieSI6MTIyOX0seyJ4IjoyMzEsInkiOjEyMjl9LHsieCI6MjY0LCJ5IjoxMjI5fSx7IngiOjI5NywieSI6MTIyMi4xNjIxNjIxNjIxNjJ9XQ==" data-look="classic" marker-end="url(#my-svg_flowchart-v2-pointEnd)"/><path d="M107.532,730L122.61,640.167C137.688,550.333,167.844,370.667,188.422,280.833C209,191,220,191,231,191C242,191,253,191,262.014,191.728C271.028,192.456,278.055,193.912,281.569,194.64L285.083,195.369" id="my-svg-L_GREEN_D1_0" class="edge-thickness-normal edge-pattern-solid edge-thickness-normal edge-pattern-solid flowchart-link" style=";" data-edge="true" data-et="edge" data-id="L_GREEN_D1_0" data-points="W3sieCI6MTA3LjUzMTgwMjEyMDE0MTM1LCJ5Ijo3MzB9LHsieCI6MTk4LCJ5IjoxOTF9LHsieCI6MjMxLCJ5IjoxOTF9LHsieCI6MjY0LCJ5IjoxOTF9LHsieCI6Mjg5LCJ5IjoxOTYuMTgwMTgwMTgwMTgwMTd9XQ==" data-look="classic" marker-end="url(#my-svg_flowchart-v2-pointEnd)"/><path d="M115.099,730L128.916,699.167C142.733,668.333,170.366,606.667,189.683,575.833C209,545,220,545,231,545C242,545,253,545,268.974,538.678C284.948,532.356,305.896,519.711,316.37,513.389L326.844,507.067" id="my-svg-L_GREEN_D2_0" class="edge-thickness-normal edge-pattern-solid edge-thickness-normal edge-pattern-solid flowchart-link" style=";" data-edge="true" data-et="edge" data-id="L_GREEN_D2_0" data-points="W3sieCI6MTE1LjA5OTA1NjYwMzc3MzU5LCJ5Ijo3MzB9LHsieCI6MTk4LCJ5Ijo1NDV9LHsieCI6MjMxLCJ5Ijo1NDV9LHsieCI6MjY0LCJ5Ijo1NDV9LHsieCI6MzMwLjI2ODY1NjcxNjQxNzksInkiOjUwNX1d" data-look="classic" marker-end="url(#my-svg_flowchart-v2-pointEnd)"/><path d="M116.359,784L129.966,811.5C143.573,839,170.786,894,189.893,921.5C209,949,220,949,231,949C242,949,253,949,264.668,948.611C276.336,948.222,288.672,947.444,294.84,947.055L301.008,946.666" id="my-svg-L_GREEN_D3_0" class="edge-thickness-normal edge-pattern-solid edge-thickness-normal edge-pattern-solid flowchart-link" style=";" data-edge="true" data-et="edge" data-id="L_GREEN_D3_0" data-points="W3sieCI6MTE2LjM1OTM3NSwieSI6Nzg0fSx7IngiOjE5OCwieSI6OTQ5fSx7IngiOjIzMSwieSI6OTQ5fSx7IngiOjI2NCwieSI6OTQ5fSx7IngiOjMwNSwieSI6OTQ2LjQxNDQxNDQxNDQxNDR9XQ==" data-look="classic" marker-end="url(#my-svg_flowchart-v2-pointEnd)"/><path d="M107.971,784L122.976,865.5C137.981,947,167.99,1110,188.495,1191.5C209,1273,220,1273,231,1273C242,1273,253,1273,268.974,1266.678C284.948,1260.356,305.896,1247.711,316.37,1241.389L326.844,1235.067" id="my-svg-L_GREEN_D4_0" class="edge-thickness-normal edge-pattern-solid edge-thickness-normal edge-pattern-solid flowchart-link" style=";" data-edge="true" data-et="edge" data-id="L_GREEN_D4_0" data-points="W3sieCI6MTA3Ljk3MDkzMDIzMjU1ODE1LCJ5Ijo3ODR9LHsieCI6MTk4LCJ5IjoxMjczfSx7IngiOjIzMSwieSI6MTI3M30seyJ4IjoyNjQsInkiOjEyNzN9LHsieCI6MzMwLjI2ODY1NjcxNjQxNzksInkiOjEyMzN9XQ==" data-look="classic" marker-end="url(#my-svg_flowchart-v2-pointEnd)"/><path d="M107.097,834L122.248,734.167C137.398,634.333,167.699,434.667,188.35,334.833C209,235,220,235,231,235C242,235,253,235,262.012,234.336C271.023,233.671,278.046,232.343,281.558,231.678L285.07,231.014" id="my-svg-L_REG_D1_0" class="edge-thickness-normal edge-pattern-solid edge-thickness-normal edge-pattern-solid flowchart-link" style=";" data-edge="true" data-et="edge" data-id="L_REG_D1_0" data-points="W3sieCI6MTA3LjA5NzQ0NDA4OTQ1Njg3LCJ5Ijo4MzR9LHsieCI6MTk4LCJ5IjoyMzV9LHsieCI6MjMxLCJ5IjoyMzV9LHsieCI6MjY0LCJ5IjoyMzV9LHsieCI6Mjg5LCJ5IjoyMzAuMjcwMjcwMjcwMjcwMjZ9XQ==" data-look="classic" marker-end="url(#my-svg_flowchart-v2-pointEnd)"/><path d="M113.599,834L127.666,798.167C141.733,762.333,169.866,690.667,189.433,654.833C209,619,220,619,231,619C242,619,253,619,273.045,600.524C293.09,582.048,322.18,545.095,336.725,526.619L351.27,508.143" id="my-svg-L_REG_D2_0" class="edge-thickness-normal edge-pattern-solid edge-thickness-normal edge-pattern-solid flowchart-link" style=";" data-edge="true" data-et="edge" data-id="L_REG_D2_0" data-points="W3sieCI6MTEzLjU5OTE3MzU1MzcxOTAxLCJ5Ijo4MzR9LHsieCI6MTk4LCJ5Ijo2MTl9LHsieCI6MjMxLCJ5Ijo2MTl9LHsieCI6MjY0LCJ5Ijo2MTl9LHsieCI6MzUzLjc0NDY4MDg1MTA2MzgzLCJ5Ijo1MDV9XQ==" data-look="classic" marker-end="url(#my-svg_flowchart-v2-pointEnd)"/><path d="M118.833,888L132.028,910.5C145.222,933,171.611,978,190.306,1000.5C209,1023,220,1023,231,1023C242,1023,253,1023,270.295,1014.393C287.59,1005.786,311.179,988.572,322.974,979.965L334.769,971.358" id="my-svg-L_REG_D3_0" class="edge-thickness-normal edge-pattern-solid edge-thickness-normal edge-pattern-solid flowchart-link" style=";" data-edge="true" data-et="edge" data-id="L_REG_D3_0" data-points="W3sieCI6MTE4LjgzMzMzMzMzMzMzMzMzLCJ5Ijo4ODh9LHsieCI6MTk4LCJ5IjoxMDIzfSx7IngiOjIzMSwieSI6MTAyM30seyJ4IjoyNjQsInkiOjEwMjN9LHsieCI6MzM4LCJ5Ijo5Njl9XQ==" data-look="classic" marker-end="url(#my-svg_flowchart-v2-pointEnd)"/><path d="M108.625,888L123.521,959.5C138.417,1031,168.208,1174,188.604,1245.5C209,1317,220,1317,231,1317C242,1317,253,1317,272.029,1303.471C291.057,1289.943,318.114,1262.886,331.643,1249.357L345.172,1235.828" id="my-svg-L_REG_D4_0" class="edge-thickness-normal edge-pattern-solid edge-thickness-normal edge-pattern-solid flowchart-link" style=";" data-edge="true" data-et="edge" data-id="L_REG_D4_0" data-points="W3sieCI6MTA4LjYyNSwieSI6ODg4fSx7IngiOjE5OCwieSI6MTMxN30seyJ4IjoyMzEsInkiOjEzMTd9LHsieCI6MjY0LCJ5IjoxMzE3fSx7IngiOjM0OCwieSI6MTIzM31d" data-look="classic" marker-end="url(#my-svg_flowchart-v2-pointEnd)"/><path d="M106.739,938L121.949,828.167C137.159,718.333,167.58,498.667,188.29,388.833C209,279,220,279,231,279C242,279,253,279,268.74,273.004C284.48,267.007,304.96,255.014,315.2,249.018L325.441,243.021" id="my-svg-L_RUST_D1_0" class="edge-thickness-normal edge-pattern-solid edge-thickness-normal edge-pattern-solid flowchart-link" style=";" data-edge="true" data-et="edge" data-id="L_RUST_D1_0" data-points="W3sieCI6MTA2LjczOTA2NzA1NTM5MzU5LCJ5Ijo5Mzh9LHsieCI6MTk4LCJ5IjoyNzl9LHsieCI6MjMxLCJ5IjoyNzl9LHsieCI6MjY0LCJ5IjoyNzl9LHsieCI6MzI4Ljg5MjMwNzY5MjMwNzY3LCJ5IjoyNDF9XQ==" data-look="classic" marker-end="url(#my-svg_flowchart-v2-pointEnd)"/><path d="M112.43,938L126.692,897.167C140.953,856.333,169.477,774.667,189.238,733.833C209,693,220,693,231,693C242,693,253,693,274.371,662.259C295.742,631.518,327.484,570.036,343.355,539.295L359.225,508.554" id="my-svg-L_RUST_D2_0" class="edge-thickness-normal edge-pattern-solid edge-thickness-normal edge-pattern-solid flowchart-link" style=";" data-edge="true" data-et="edge" data-id="L_RUST_D2_0" data-points="W3sieCI6MTEyLjQzMDE0NzA1ODgyMzU0LCJ5Ijo5Mzh9LHsieCI6MTk4LCJ5Ijo2OTN9LHsieCI6MjMxLCJ5Ijo2OTN9LHsieCI6MjY0LCJ5Ijo2OTN9LHsieCI6MzYxLjA2MDQ2NTExNjI3OTEsInkiOjUwNX1d" data-look="classic" marker-end="url(#my-svg_flowchart-v2-pointEnd)"/><path d="M122.432,992L135.027,1009.5C147.621,1027,172.811,1062,190.905,1079.5C209,1097,220,1097,231,1097C242,1097,253,1097,273.389,1076.209C293.779,1055.417,323.557,1013.835,338.446,993.043L353.336,972.252" id="my-svg-L_RUST_D3_0" class="edge-thickness-normal edge-pattern-solid edge-thickness-normal edge-pattern-solid flowchart-link" style=";" data-edge="true" data-et="edge" data-id="L_RUST_D3_0" data-points="W3sieCI6MTIyLjQzMTgxODE4MTgxODE5LCJ5Ijo5OTJ9LHsieCI6MTk4LCJ5IjoxMDk3fSx7IngiOjIzMSwieSI6MTA5N30seyJ4IjoyNjQsInkiOjEwOTd9LHsieCI6MzU1LjY2NDUxNjEyOTAzMjMsInkiOjk2OX1d" data-look="classic" marker-end="url(#my-svg_flowchart-v2-pointEnd)"/><path d="M109.318,992L124.098,1055.167C138.878,1118.333,168.439,1244.667,188.72,1307.833C209,1371,220,1371,231,1371C242,1371,253,1371,273.601,1348.553C294.201,1326.106,324.402,1281.213,339.503,1258.766L354.604,1236.319" id="my-svg-L_RUST_D4_0" class="edge-thickness-normal edge-pattern-solid edge-thickness-normal edge-pattern-solid flowchart-link" style=";" data-edge="true" data-et="edge" data-id="L_RUST_D4_0" data-points="W3sieCI6MTA5LjMxNzczMzk5MDE0Nzc5LCJ5Ijo5OTJ9LHsieCI6MTk4LCJ5IjoxMzcxfSx7IngiOjIzMSwieSI6MTM3MX0seyJ4IjoyNjQsInkiOjEzNzF9LHsieCI6MzU2LjgzNjM2MzYzNjM2MzYsInkiOjEyMzN9XQ==" data-look="classic" marker-end="url(#my-svg_flowchart-v2-pointEnd)"/></g><g class="edgeLabels"><g class="edgeLabel" transform="translate(231, 59)"><g class="label" data-id="L_PE_D1_0" transform="translate(-8, -12)"><foreignObject width="16" height="24"><div xmlns="http://www.w3.org/1999/xhtml" class="labelBkg" style="display: table-cell; white-space: nowrap; line-height: 1.5; max-width: 200px; text-align: center;"><span class="edgeLabel"><p>高</p></span></div></foreignObject></g></g><g class="edgeLabel" transform="translate(231, 323)"><g class="label" data-id="L_PE_D2_0" transform="translate(-8, -12)"><foreignObject width="16" height="24"><div xmlns="http://www.w3.org/1999/xhtml" class="labelBkg" style="display: table-cell; white-space: nowrap; line-height: 1.5; max-width: 200px; text-align: center;"><span class="edgeLabel"><p>低</p></span></div></foreignObject></g></g><g class="edgeLabel" transform="translate(231, 737)"><g class="label" data-id="L_PE_D3_0" transform="translate(-8, -12)"><foreignObject width="16" height="24"><div xmlns="http://www.w3.org/1999/xhtml" class="labelBkg" style="display: table-cell; white-space: nowrap; line-height: 1.5; max-width: 200px; text-align: center;"><span class="edgeLabel"><p>高</p></span></div></foreignObject></g></g><g class="edgeLabel" transform="translate(231, 1141)"><g class="label" data-id="L_PE_D4_0" transform="translate(-8, -12)"><foreignObject width="16" height="24"><div xmlns="http://www.w3.org/1999/xhtml" class="labelBkg" style="display: table-cell; white-space: nowrap; line-height: 1.5; max-width: 200px; text-align: center;"><span class="edgeLabel"><p>中</p></span></div></foreignObject></g></g><g class="edgeLabel" transform="translate(231, 103)"><g class="label" data-id="L_MM_D1_0" transform="translate(-8, -12)"><foreignObject width="16" height="24"><div xmlns="http://www.w3.org/1999/xhtml" class="labelBkg" style="display: table-cell; white-space: nowrap; line-height: 1.5; max-width: 200px; text-align: center;"><span class="edgeLabel"><p>低</p></span></div></foreignObject></g></g><g class="edgeLabel" transform="translate(231, 397)"><g class="label" data-id="L_MM_D2_0" transform="translate(-8, -12)"><foreignObject width="16" height="24"><div xmlns="http://www.w3.org/1999/xhtml" class="labelBkg" style="display: table-cell; white-space: nowrap; line-height: 1.5; max-width: 200px; text-align: center;"><span class="edgeLabel"><p>低</p></span></div></foreignObject></g></g><g class="edgeLabel" transform="translate(231, 801)"><g class="label" data-id="L_MM_D3_0" transform="translate(-8, -12)"><foreignObject width="16" height="24"><div xmlns="http://www.w3.org/1999/xhtml" class="labelBkg" style="display: table-cell; white-space: nowrap; line-height: 1.5; max-width: 200px; text-align: center;"><span class="edgeLabel"><p>低</p></span></div></foreignObject></g></g><g class="edgeLabel" transform="translate(231, 1185)"><g class="label" data-id="L_MM_D4_0" transform="translate(-8, -12)"><foreignObject width="16" height="24"><div xmlns="http://www.w3.org/1999/xhtml" class="labelBkg" style="display: table-cell; white-space: nowrap; line-height: 1.5; max-width: 200px; text-align: center;"><span class="edgeLabel"><p>中</p></span></div></foreignObject></g></g><g class="edgeLabel" transform="translate(231, 147)"><g class="label" data-id="L_WASM_D1_0" transform="translate(-8, -12)"><foreignObject width="16" height="24"><div xmlns="http://www.w3.org/1999/xhtml" class="labelBkg" style="display: table-cell; white-space: nowrap; line-height: 1.5; max-width: 200px; text-align: center;"><span class="edgeLabel"><p>中</p></span></div></foreignObject></g></g><g class="edgeLabel" transform="translate(231, 471)"><g class="label" data-id="L_WASM_D2_0" transform="translate(-8, -12)"><foreignObject width="16" height="24"><div xmlns="http://www.w3.org/1999/xhtml" class="labelBkg" style="display: table-cell; white-space: nowrap; line-height: 1.5; max-width: 200px; text-align: center;"><span class="edgeLabel"><p>高</p></span></div></foreignObject></g></g><g class="edgeLabel" transform="translate(231, 875)"><g class="label" data-id="L_WASM_D3_0" transform="translate(-8, -12)"><foreignObject width="16" height="24"><div xmlns="http://www.w3.org/1999/xhtml" class="labelBkg" style="display: table-cell; white-space: nowrap; line-height: 1.5; max-width: 200px; text-align: center;"><span class="edgeLabel"><p>中</p></span></div></foreignObject></g></g><g class="edgeLabel" transform="translate(231, 1229)"><g class="label" data-id="L_WASM_D4_0" transform="translate(-8, -12)"><foreignObject width="16" height="24"><div xmlns="http://www.w3.org/1999/xhtml" class="labelBkg" style="display: table-cell; white-space: nowrap; line-height: 1.5; max-width: 200px; text-align: center;"><span class="edgeLabel"><p>中</p></span></div></foreignObject></g></g><g class="edgeLabel" transform="translate(231, 191)"><g class="label" data-id="L_GREEN_D1_0" transform="translate(-8, -12)"><foreignObject width="16" height="24"><div xmlns="http://www.w3.org/1999/xhtml" class="labelBkg" style="display: table-cell; white-space: nowrap; line-height: 1.5; max-width: 200px; text-align: center;"><span class="edgeLabel"><p>中</p></span></div></foreignObject></g></g><g class="edgeLabel" transform="translate(231, 545)"><g class="label" data-id="L_GREEN_D2_0" transform="translate(-8, -12)"><foreignObject width="16" height="24"><div xmlns="http://www.w3.org/1999/xhtml" class="labelBkg" style="display: table-cell; white-space: nowrap; line-height: 1.5; max-width: 200px; text-align: center;"><span class="edgeLabel"><p>低</p></span></div></foreignObject></g></g><g class="edgeLabel" transform="translate(231, 949)"><g class="label" data-id="L_GREEN_D3_0" transform="translate(-8, -12)"><foreignObject width="16" height="24"><div xmlns="http://www.w3.org/1999/xhtml" class="labelBkg" style="display: table-cell; white-space: nowrap; line-height: 1.5; max-width: 200px; text-align: center;"><span class="edgeLabel"><p>中</p></span></div></foreignObject></g></g><g class="edgeLabel" transform="translate(231, 1273)"><g class="label" data-id="L_GREEN_D4_0" transform="translate(-8, -12)"><foreignObject width="16" height="24"><div xmlns="http://www.w3.org/1999/xhtml" class="labelBkg" style="display: table-cell; white-space: nowrap; line-height: 1.5; max-width: 200px; text-align: center;"><span class="edgeLabel"><p>高</p></span></div></foreignObject></g></g><g class="edgeLabel" transform="translate(231, 235)"><g class="label" data-id="L_REG_D1_0" transform="translate(-8, -12)"><foreignObject width="16" height="24"><div xmlns="http://www.w3.org/1999/xhtml" class="labelBkg" style="display: table-cell; white-space: nowrap; line-height: 1.5; max-width: 200px; text-align: center;"><span class="edgeLabel"><p>高</p></span></div></foreignObject></g></g><g class="edgeLabel" transform="translate(231, 619)"><g class="label" data-id="L_REG_D2_0" transform="translate(-8, -12)"><foreignObject width="16" height="24"><div xmlns="http://www.w3.org/1999/xhtml" class="labelBkg" style="display: table-cell; white-space: nowrap; line-height: 1.5; max-width: 200px; text-align: center;"><span class="edgeLabel"><p>低</p></span></div></foreignObject></g></g><g class="edgeLabel" transform="translate(231, 1023)"><g class="label" data-id="L_REG_D3_0" transform="translate(-8, -12)"><foreignObject width="16" height="24"><div xmlns="http://www.w3.org/1999/xhtml" class="labelBkg" style="display: table-cell; white-space: nowrap; line-height: 1.5; max-width: 200px; text-align: center;"><span class="edgeLabel"><p>高</p></span></div></foreignObject></g></g><g class="edgeLabel" transform="translate(231, 1317)"><g class="label" data-id="L_REG_D4_0" transform="translate(-8, -12)"><foreignObject width="16" height="24"><div xmlns="http://www.w3.org/1999/xhtml" class="labelBkg" style="display: table-cell; white-space: nowrap; line-height: 1.5; max-width: 200px; text-align: center;"><span class="edgeLabel"><p>中</p></span></div></foreignObject></g></g><g class="edgeLabel" transform="translate(231, 279)"><g class="label" data-id="L_RUST_D1_0" transform="translate(-8, -12)"><foreignObject width="16" height="24"><div xmlns="http://www.w3.org/1999/xhtml" class="labelBkg" style="display: table-cell; white-space: nowrap; line-height: 1.5; max-width: 200px; text-align: center;"><span class="edgeLabel"><p>中</p></span></div></foreignObject></g></g><g class="edgeLabel" transform="translate(231, 693)"><g class="label" data-id="L_RUST_D2_0" transform="translate(-8, -12)"><foreignObject width="16" height="24"><div xmlns="http://www.w3.org/1999/xhtml" class="labelBkg" style="display: table-cell; white-space: nowrap; line-height: 1.5; max-width: 200px; text-align: center;"><span class="edgeLabel"><p>高</p></span></div></foreignObject></g></g><g class="edgeLabel" transform="translate(231, 1097)"><g class="label" data-id="L_RUST_D3_0" transform="translate(-8, -12)"><foreignObject width="16" height="24"><div xmlns="http://www.w3.org/1999/xhtml" class="labelBkg" style="display: table-cell; white-space: nowrap; line-height: 1.5; max-width: 200px; text-align: center;"><span class="edgeLabel"><p>中</p></span></div></foreignObject></g></g><g class="edgeLabel" transform="translate(231, 1371)"><g class="label" data-id="L_RUST_D4_0" transform="translate(-8, -12)"><foreignObject width="16" height="24"><div xmlns="http://www.w3.org/1999/xhtml" class="labelBkg" style="display: table-cell; white-space: nowrap; line-height: 1.5; max-width: 200px; text-align: center;"><span class="edgeLabel"><p>中</p></span></div></foreignObject></g></g></g><g class="nodes"><g class="node default" id="my-svg-flowchart-D1-0" data-look="classic" transform="translate(375, 214)"><rect class="basic label-container" style="fill:#e3f2fd !important;stroke:#333 !important" x="-86" y="-27" width="172" height="54"/><g class="label" style="" transform="translate(-56, -12)"><rect/><foreignObject width="112" height="24"><div xmlns="http://www.w3.org/1999/xhtml" style="display: table-cell; white-space: nowrap; line-height: 1.5; max-width: 200px; text-align: center;"><span class="nodeLabel"><p>组织成熟度要求</p></span></div></foreignObject></g></g><g class="node default" id="my-svg-flowchart-D2-1" data-look="classic" transform="translate(375, 478)"><rect class="basic label-container" style="fill:#e3f2fd !important;stroke:#333 !important" x="-86" y="-27" width="172" height="54"/><g class="label" style="" transform="translate(-56, -12)"><rect/><foreignObject width="112" height="24"><div xmlns="http://www.w3.org/1999/xhtml" style="display: table-cell; white-space: nowrap; line-height: 1.5; max-width: 200px; text-align: center;"><span class="nodeLabel"><p>跨语言可移植性</p></span></div></foreignObject></g></g><g class="node default" id="my-svg-flowchart-D3-2" data-look="classic" transform="translate(375, 942)"><rect class="basic label-container" style="fill:#fff3e0 !important;stroke:#333 !important" x="-70" y="-27" width="140" height="54"/><g class="label" style="" transform="translate(-40, -12)"><rect/><foreignObject width="80" height="24"><div xmlns="http://www.w3.org/1999/xhtml" style="display: table-cell; white-space: nowrap; line-height: 1.5; max-width: 200px; text-align: center;"><span class="nodeLabel"><p>治理复杂度</p></span></div></foreignObject></g></g><g class="node default" id="my-svg-flowchart-D4-3" data-look="classic" transform="translate(375, 1206)"><rect class="basic label-container" style="fill:#e8f5e9 !important;stroke:#333 !important" x="-78" y="-27" width="156" height="54"/><g class="label" style="" transform="translate(-48, -12)"><rect/><foreignObject width="96" height="24"><div xmlns="http://www.w3.org/1999/xhtml" style="display: table-cell; white-space: nowrap; line-height: 1.5; max-width: 200px; text-align: center;"><span class="nodeLabel"><p>可持续性影响</p></span></div></foreignObject></g></g><g class="node default" id="my-svg-flowchart-PE-4" data-look="classic" transform="translate(103, 445)"><rect class="basic label-container" style="" x="-62" y="-27" width="124" height="54"/><g class="label" style="" transform="translate(-32, -12)"><rect/><foreignObject width="64" height="24"><div xmlns="http://www.w3.org/1999/xhtml" style="display: table-cell; white-space: nowrap; line-height: 1.5; max-width: 200px; text-align: center;"><span class="nodeLabel"><p>平台工程</p></span></div></foreignObject></g></g><g class="node default" id="my-svg-flowchart-MM-5" data-look="classic" transform="translate(103, 549)"><rect class="basic label-container" style="" x="-70" y="-27" width="140" height="54"/><g class="label" style="" transform="translate(-40, -12)"><rect/><foreignObject width="80" height="24"><div xmlns="http://www.w3.org/1999/xhtml" style="display: table-cell; white-space: nowrap; line-height: 1.5; max-width: 200px; text-align: center;"><span class="nodeLabel"><p>模块化单体</p></span></div></foreignObject></g></g><g class="node default" id="my-svg-flowchart-WASM-6" data-look="classic" transform="translate(103, 653)"><rect class="basic label-container" style="" x="-68.765625" y="-27" width="137.53125" height="54"/><g class="label" style="" transform="translate(-38.765625, -12)"><rect/><foreignObject width="77.53125" height="24"><div xmlns="http://www.w3.org/1999/xhtml" style="display: table-cell; white-space: nowrap; line-height: 1.5; max-width: 200px; text-align: center;"><span class="nodeLabel"><p>WASM 组件</p></span></div></foreignObject></g></g><g class="node default" id="my-svg-flowchart-GREEN-7" data-look="classic" transform="translate(103, 757)"><rect class="basic label-container" style="" x="-62" y="-27" width="124" height="54"/><g class="label" style="" transform="translate(-32, -12)"><rect/><foreignObject width="64" height="24"><div xmlns="http://www.w3.org/1999/xhtml" style="display: table-cell; white-space: nowrap; line-height: 1.5; max-width: 200px; text-align: center;"><span class="nodeLabel"><p>绿色软件</p></span></div></foreignObject></g></g><g class="node default" id="my-svg-flowchart-REG-8" data-look="classic" transform="translate(103, 861)"><rect class="basic label-container" style="" x="-67.96875" y="-27" width="135.9375" height="54"/><g class="label" style="" transform="translate(-37.96875, -12)"><rect/><foreignObject width="75.9375" height="24"><div xmlns="http://www.w3.org/1999/xhtml" style="display: table-cell; white-space: nowrap; line-height: 1.5; max-width: 200px; text-align: center;"><span class="nodeLabel"><p>RegTech AI</p></span></div></foreignObject></g></g><g class="node default" id="my-svg-flowchart-RUST-9" data-look="classic" transform="translate(103, 965)"><rect class="basic label-container" style="" x="-63.6171875" y="-27" width="127.234375" height="54"/><g class="label" style="" transform="translate(-33.6171875, -12)"><rect/><foreignObject width="67.234375" height="24"><div xmlns="http://www.w3.org/1999/xhtml" style="display: table-cell; white-space: nowrap; line-height: 1.5; max-width: 200px; text-align: center;"><span class="nodeLabel"><p>Rust 生态</p></span></div></foreignObject></g></g></g></g></g><defs><filter id="my-svg-drop-shadow" height="130%" width="130%"><feDropShadow dx="4" dy="4" stdDeviation="0" flood-opacity="0.06" flood-color="#000000"/></filter></defs><defs><filter id="my-svg-drop-shadow-small" height="150%" width="150%"><feDropShadow dx="2" dy="2" stdDeviation="0" flood-opacity="0.06" flood-color="#000000"/></filter></defs></svg>