<svg id="my-svg" width="100%" xmlns="http://www.w3.org/2000/svg" xmlns:xlink="http://www.w3.org/1999/xlink" class="flowchart" style="max-width: 2036.2px; background-color: transparent;" viewBox="0 0 2036.203125 1260" role="graphics-document document" aria-roledescription="flowchart-v2"><style>#my-svg{font-family:"trebuchet ms",verdana,arial,sans-serif;font-size:16px;fill:#333;}@keyframes edge-animation-frame{from{stroke-dashoffset:0;}}@keyframes dash{to{stroke-dashoffset:0;}}#my-svg .edge-animation-slow{stroke-dasharray:9,5!important;stroke-dashoffset:900;animation:dash 50s linear infinite;stroke-linecap:round;}#my-svg .edge-animation-fast{stroke-dasharray:9,5!important;stroke-dashoffset:900;animation:dash 20s linear infinite;stroke-linecap:round;}#my-svg .error-icon{fill:#552222;}#my-svg .error-text{fill:#552222;stroke:#552222;}#my-svg .edge-thickness-normal{stroke-width:1px;}#my-svg .edge-thickness-thick{stroke-width:3.5px;}#my-svg .edge-pattern-solid{stroke-dasharray:0;}#my-svg .edge-thickness-invisible{stroke-width:0;fill:none;}#my-svg .edge-pattern-dashed{stroke-dasharray:3;}#my-svg .edge-pattern-dotted{stroke-dasharray:2;}#my-svg .marker{fill:#333333;stroke:#333333;}#my-svg .marker.cross{stroke:#333333;}#my-svg svg{font-family:"trebuchet ms",verdana,arial,sans-serif;font-size:16px;}#my-svg p{margin:0;}#my-svg .label{font-family:"trebuchet ms",verdana,arial,sans-serif;color:#333;}#my-svg .cluster-label text{fill:#333;}#my-svg .cluster-label span{color:#333;}#my-svg .cluster-label span p{background-color:transparent;}#my-svg .label text,#my-svg span{fill:#333;color:#333;}#my-svg .node rect,#my-svg .node circle,#my-svg .node ellipse,#my-svg .node polygon,#my-svg .node path{fill:#ECECFF;stroke:#9370DB;stroke-width:1px;}#my-svg .rough-node .label text,#my-svg .node .label text,#my-svg .image-shape .label,#my-svg .icon-shape .label{text-anchor:middle;}#my-svg .node .katex path{fill:#000;stroke:#000;stroke-width:1px;}#my-svg .rough-node .label,#my-svg .node .label,#my-svg .image-shape .label,#my-svg .icon-shape .label{text-align:center;}#my-svg .node.clickable{cursor:pointer;}#my-svg .root .anchor path{fill:#333333!important;stroke-width:0;stroke:#333333;}#my-svg .arrowheadPath{fill:#333333;}#my-svg .edgePath .path{stroke:#333333;stroke-width:1px;}#my-svg .flowchart-link{stroke:#333333;fill:none;}#my-svg .edgeLabel{background-color:rgba(232,232,232, 0.8);text-align:center;}#my-svg .edgeLabel p{background-color:rgba(232,232,232, 0.8);}#my-svg .edgeLabel rect{opacity:0.5;background-color:rgba(232,232,232, 0.8);fill:rgba(232,232,232, 0.8);}#my-svg .labelBkg{background-color:rgba(232, 232, 232, 0.5);}#my-svg .cluster rect{fill:#ffffde;stroke:#aaaa33;stroke-width:1px;}#my-svg .cluster text{fill:#333;}#my-svg .cluster span{color:#333;}#my-svg div.mermaidTooltip{position:absolute;text-align:center;max-width:200px;padding:2px;font-family:"trebuchet ms",verdana,arial,sans-serif;font-size:12px;background:hsl(80, 100%, 96.2745098039%);border:1px solid #aaaa33;border-radius:2px;pointer-events:none;z-index:100;}#my-svg .flowchartTitleText{text-anchor:middle;font-size:18px;fill:#333;}#my-svg rect.text{fill:none;stroke-width:0;}#my-svg .icon-shape,#my-svg .image-shape{background-color:rgba(232,232,232, 0.8);text-align:center;}#my-svg .icon-shape p,#my-svg .image-shape p{background-color:rgba(232,232,232, 0.8);padding:2px;}#my-svg .icon-shape .label rect,#my-svg .image-shape .label rect{opacity:0.5;background-color:rgba(232,232,232, 0.8);fill:rgba(232,232,232, 0.8);}#my-svg .label-icon{display:inline-block;height:1em;overflow:visible;vertical-align:-0.125em;}#my-svg .node .label-icon path{fill:currentColor;stroke:revert;stroke-width:revert;}#my-svg .node .neo-node{stroke:#9370DB;}#my-svg [data-look="neo"].node rect,#my-svg [data-look="neo"].cluster rect,#my-svg [data-look="neo"].node polygon{stroke:#9370DB;filter:drop-shadow(1px 2px 2px rgba(185, 185, 185, 1));}#my-svg [data-look="neo"].node path{stroke:#9370DB;stroke-width:1px;}#my-svg [data-look="neo"].node .outer-path{filter:drop-shadow(1px 2px 2px rgba(185, 185, 185, 1));}#my-svg [data-look="neo"].node .neo-line path{stroke:#9370DB;filter:none;}#my-svg [data-look="neo"].node circle{stroke:#9370DB;filter:drop-shadow(1px 2px 2px rgba(185, 185, 185, 1));}#my-svg [data-look="neo"].node circle .state-start{fill:#000000;}#my-svg [data-look="neo"].icon-shape .icon{fill:#9370DB;filter:drop-shadow(1px 2px 2px rgba(185, 185, 185, 1));}#my-svg [data-look="neo"].icon-shape .icon-neo path{stroke:#9370DB;filter:drop-shadow(1px 2px 2px rgba(185, 185, 185, 1));}#my-svg :root{--mermaid-font-family:"trebuchet ms",verdana,arial,sans-serif;}</style><g><marker id="my-svg_flowchart-v2-pointEnd" class="marker flowchart-v2" viewBox="0 0 10 10" refX="5" refY="5" markerUnits="userSpaceOnUse" markerWidth="8" markerHeight="8" orient="auto"><path d="M 0 0 L 10 5 L 0 10 z" class="arrowMarkerPath" style="stroke-width: 1; stroke-dasharray: 1, 0;"/></marker><marker id="my-svg_flowchart-v2-pointStart" class="marker flowchart-v2" viewBox="0 0 10 10" refX="4.5" refY="5" markerUnits="userSpaceOnUse" markerWidth="8" markerHeight="8" orient="auto"><path d="M 0 5 L 10 10 L 10 0 z" class="arrowMarkerPath" style="stroke-width: 1; stroke-dasharray: 1, 0;"/></marker><marker id="my-svg_flowchart-v2-pointEnd-margin" class="marker flowchart-v2" viewBox="0 0 11.5 14" refX="11.5" refY="7" markerUnits="userSpaceOnUse" markerWidth="10.5" markerHeight="14" orient="auto"><path d="M 0 0 L 11.5 7 L 0 14 z" class="arrowMarkerPath" style="stroke-width: 0; stroke-dasharray: 1, 0;"/></marker><marker id="my-svg_flowchart-v2-pointStart-margin" class="marker flowchart-v2" viewBox="0 0 11.5 14" refX="1" refY="7" markerUnits="userSpaceOnUse" markerWidth="11.5" markerHeight="14" orient="auto"><polygon points="0,7 11.5,14 11.5,0" class="arrowMarkerPath" style="stroke-width: 0; stroke-dasharray: 1, 0;"/></marker><marker id="my-svg_flowchart-v2-circleEnd" class="marker flowchart-v2" viewBox="0 0 10 10" refX="11" refY="5" markerUnits="userSpaceOnUse" markerWidth="11" markerHeight="11" orient="auto"><circle cx="5" cy="5" r="5" class="arrowMarkerPath" style="stroke-width: 1; stroke-dasharray: 1, 0;"/></marker><marker id="my-svg_flowchart-v2-circleStart" class="marker flowchart-v2" viewBox="0 0 10 10" refX="-1" refY="5" markerUnits="userSpaceOnUse" markerWidth="11" markerHeight="11" orient="auto"><circle cx="5" cy="5" r="5" class="arrowMarkerPath" style="stroke-width: 1; stroke-dasharray: 1, 0;"/></marker><marker id="my-svg_flowchart-v2-circleEnd-margin" class="marker flowchart-v2" viewBox="0 0 10 10" refY="5" refX="12.25" markerUnits="userSpaceOnUse" markerWidth="14" markerHeight="14" orient="auto"><circle cx="5" cy="5" r="5" class="arrowMarkerPath" style="stroke-width: 0; stroke-dasharray: 1, 0;"/></marker><marker id="my-svg_flowchart-v2-circleStart-margin" class="marker flowchart-v2" viewBox="0 0 10 10" refX="-2" refY="5" markerUnits="userSpaceOnUse" markerWidth="14" markerHeight="14" orient="auto"><circle cx="5" cy="5" r="5" class="arrowMarkerPath" style="stroke-width: 0; stroke-dasharray: 1, 0;"/></marker><marker id="my-svg_flowchart-v2-crossEnd" class="marker cross flowchart-v2" viewBox="0 0 11 11" refX="12" refY="5.2" markerUnits="userSpaceOnUse" markerWidth="11" markerHeight="11" orient="auto"><path d="M 1,1 l 9,9 M 10,1 l -9,9" class="arrowMarkerPath" style="stroke-width: 2; stroke-dasharray: 1, 0;"/></marker><marker id="my-svg_flowchart-v2-crossStart" class="marker cross flowchart-v2" viewBox="0 0 11 11" refX="-1" refY="5.2" markerUnits="userSpaceOnUse" markerWidth="11" markerHeight="11" orient="auto"><path d="M 1,1 l 9,9 M 10,1 l -9,9" class="arrowMarkerPath" style="stroke-width: 2; stroke-dasharray: 1, 0;"/></marker><marker id="my-svg_flowchart-v2-crossEnd-margin" class="marker cross flowchart-v2" viewBox="0 0 15 15" refX="17.7" refY="7.5" markerUnits="userSpaceOnUse" markerWidth="12" markerHeight="12" orient="auto"><path d="M 1,1 L 14,14 M 1,14 L 14,1" class="arrowMarkerPath" style="stroke-width: 2.5;"/></marker><marker id="my-svg_flowchart-v2-crossStart-margin" class="marker cross flowchart-v2" viewBox="0 0 15 15" refX="-3.5" refY="7.5" markerUnits="userSpaceOnUse" markerWidth="12" markerHeight="12" orient="auto"><path d="M 1,1 L 14,14 M 1,14 L 14,1" class="arrowMarkerPath" style="stroke-width: 2.5; stroke-dasharray: 1, 0;"/></marker><g class="root"><g class="clusters"><g class="cluster" id="my-svg-证明工具链" data-look="classic"><rect style="" x="8" y="976" width="883.109375" height="276"/><g class="cluster-label" transform="translate(409.5546875, 976)"><foreignObject width="80" height="24"><div xmlns="http://www.w3.org/1999/xhtml" style="display: table-cell; white-space: nowrap; line-height: 1.5;"><span class="nodeLabel"><p>证明工具链</p></span></div></foreignObject></g></g><g class="cluster" id="my-svg-工业级案例" data-look="classic"><rect style="" x="1718.203125" y="8" width="310" height="975"/><g class="cluster-label" transform="translate(1833.203125, 8)"><foreignObject width="80" height="24"><div xmlns="http://www.w3.org/1999/xhtml" style="display: table-cell; white-space: nowrap; line-height: 1.5;"><span class="nodeLabel"><p>工业级案例</p></span></div></foreignObject></g></g><g class="cluster" id="my-svg-subGraph1" data-look="classic"><rect style="" x="635.078125" y="54" width="1033.125" height="875"/><g class="cluster-label" transform="translate(1093.859375, 54)"><foreignObject width="115.5625" height="24"><div xmlns="http://www.w3.org/1999/xhtml" style="display: table-cell; white-space: nowrap; line-height: 1.5;"><span class="nodeLabel"><p>验证层次 (T18b)</p></span></div></foreignObject></g></g><g class="cluster" id="my-svg-形式化方法谱系" data-look="classic"><rect style="" x="308.734375" y="40" width="276.34375" height="916"/><g class="cluster-label" transform="translate(390.90625, 40)"><foreignObject width="112" height="24"><div xmlns="http://www.w3.org/1999/xhtml" style="display: table-cell; white-space: nowrap; line-height: 1.5;"><span class="nodeLabel"><p>形式化方法谱系</p></span></div></foreignObject></g></g></g><g class="edgePaths"><path d="M560.078,370L564.245,370C568.411,370,576.745,370,585.078,370C593.411,370,601.745,370,610.078,370C618.411,370,626.745,370,652.247,370C677.75,370,720.422,370,763.094,370C805.766,370,848.438,370,873.94,370C899.443,370,907.776,370,927.437,394.271C947.098,418.543,978.087,467.086,993.581,491.357L1009.076,515.628" id="my-svg-L_TLA_MODEL_0" class="edge-thickness-normal edge-pattern-solid edge-thickness-normal edge-pattern-solid flowchart-link" style=";" data-edge="true" data-et="edge" data-id="L_TLA_MODEL_0" data-points="W3sieCI6NTYwLjA3ODEyNSwieSI6MzcwfSx7IngiOjU4NS4wNzgxMjUsInkiOjM3MH0seyJ4Ijo2MTAuMDc4MTI1LCJ5IjozNzB9LHsieCI6NjM1LjA3ODEyNSwieSI6MzcwfSx7IngiOjc2My4wOTM3NSwieSI6MzcwfSx7IngiOjg5MS4xMDkzNzUsInkiOjM3MH0seyJ4Ijo5MTYuMTA5Mzc1LCJ5IjozNzB9LHsieCI6MTAxMS4yMjgxNDE2MjIzNDA0LCJ5Ijo1MTl9XQ==" data-look="classic" marker-end="url(#my-svg_flowchart-v2-pointEnd)"/><path d="M528.992,626L538.34,626C547.688,626,566.383,626,579.897,626C593.411,626,601.745,626,610.078,626C618.411,626,626.745,626,634.411,626C642.078,626,649.078,626,652.578,626L656.078,626" id="my-svg-L_ALLOY_SPEC_0" class="edge-thickness-normal edge-pattern-solid edge-thickness-normal edge-pattern-solid flowchart-link" style=";" data-edge="true" data-et="edge" data-id="L_ALLOY_SPEC_0" data-points="W3sieCI6NTI4Ljk5MjE4NzUsInkiOjYyNn0seyJ4Ijo1ODUuMDc4MTI1LCJ5Ijo2MjZ9LHsieCI6NjEwLjA3ODEyNSwieSI6NjI2fSx7IngiOjYzNS4wNzgxMjUsInkiOjYyNn0seyJ4Ijo2NjAuMDc4MTI1LCJ5Ijo2MjZ9XQ==" data-look="classic" marker-end="url(#my-svg_flowchart-v2-pointEnd)"/><path d="M557.922,114L562.448,114C566.974,114,576.026,114,584.719,114C593.411,114,601.745,114,610.078,114C618.411,114,626.745,114,652.247,114C677.75,114,720.422,114,763.094,114C805.766,114,848.438,114,873.94,114C899.443,114,907.776,114,931.945,114C956.115,114,996.12,114,1036.125,114C1076.13,114,1116.135,114,1155.071,170.202C1194.007,226.403,1231.874,338.806,1250.807,395.008L1269.741,451.209" id="my-svg-L_COQ_CODE_0" class="edge-thickness-normal edge-pattern-solid edge-thickness-normal edge-pattern-solid flowchart-link" style=";" data-edge="true" data-et="edge" data-id="L_COQ_CODE_0" data-points="W3sieCI6NTU3LjkyMTg3NSwieSI6MTE0fSx7IngiOjU4NS4wNzgxMjUsInkiOjExNH0seyJ4Ijo2MTAuMDc4MTI1LCJ5IjoxMTR9LHsieCI6NjM1LjA3ODEyNSwieSI6MTE0fSx7IngiOjc2My4wOTM3NSwieSI6MTE0fSx7IngiOjg5MS4xMDkzNzUsInkiOjExNH0seyJ4Ijo5MTYuMTA5Mzc1LCJ5IjoxMTR9LHsieCI6MTAzNi4xMjUsInkiOjExNH0seyJ4IjoxMTU2LjE0MDYyNSwieSI6MTE0fSx7IngiOjEyNzEuMDE3ODA0Mjc2MzE1NywieSI6NDU1fV0=" data-look="classic" marker-end="url(#my-svg_flowchart-v2-pointEnd)"/><path d="M549.922,242L555.781,242C561.641,242,573.359,242,583.385,242C593.411,242,601.745,242,610.078,242C618.411,242,626.745,242,652.247,242C677.75,242,720.422,242,763.094,242C805.766,242,848.438,242,873.94,242C899.443,242,907.776,242,931.945,242C956.115,242,996.12,242,1036.125,242C1076.13,242,1116.135,242,1153.87,276.906C1191.605,311.811,1227.069,381.623,1244.801,416.528L1262.533,451.434" id="my-svg-L_ISABELLE_CODE_0" class="edge-thickness-normal edge-pattern-solid edge-thickness-normal edge-pattern-solid flowchart-link" style=";" data-edge="true" data-et="edge" data-id="L_ISABELLE_CODE_0" data-points="W3sieCI6NTQ5LjkyMTg3NSwieSI6MjQyfSx7IngiOjU4NS4wNzgxMjUsInkiOjI0Mn0seyJ4Ijo2MTAuMDc4MTI1LCJ5IjoyNDJ9LHsieCI6NjM1LjA3ODEyNSwieSI6MjQyfSx7IngiOjc2My4wOTM3NSwieSI6MjQyfSx7IngiOjg5MS4xMDkzNzUsInkiOjI0Mn0seyJ4Ijo5MTYuMTA5Mzc1LCJ5IjoyNDJ9LHsieCI6MTAzNi4xMjUsInkiOjI0Mn0seyJ4IjoxMTU2LjE0MDYyNSwieSI6MjQyfSx7IngiOjEyNjQuMzQ0MzA4MDM1NzE0MiwieSI6NDU1fV0=" data-look="classic" marker-end="url(#my-svg_flowchart-v2-pointEnd)"/><path d="M529.852,498L539.056,498C548.26,498,566.669,498,580.04,498C593.411,498,601.745,498,610.078,498C618.411,498,626.745,498,652.247,498C677.75,498,720.422,498,763.094,498C805.766,498,848.438,498,873.94,498C899.443,498,907.776,498,918.347,501.202C928.919,504.404,941.728,510.808,948.132,514.009L954.537,517.211" id="my-svg-L_SPIN_MODEL_0" class="edge-thickness-normal edge-pattern-solid edge-thickness-normal edge-pattern-solid flowchart-link" style=";" data-edge="true" data-et="edge" data-id="L_SPIN_MODEL_0" data-points="W3sieCI6NTI5Ljg1MTU2MjUsInkiOjQ5OH0seyJ4Ijo1ODUuMDc4MTI1LCJ5Ijo0OTh9LHsieCI6NjEwLjA3ODEyNSwieSI6NDk4fSx7IngiOjYzNS4wNzgxMjUsInkiOjQ5OH0seyJ4Ijo3NjMuMDkzNzUsInkiOjQ5OH0seyJ4Ijo4OTEuMTA5Mzc1LCJ5Ijo0OTh9LHsieCI6OTE2LjEwOTM3NSwieSI6NDk4fSx7IngiOjk1OC4xMTQ4NDM3NSwieSI6NTE5fV0=" data-look="classic" marker-end="url(#my-svg_flowchart-v2-pointEnd)"/><path d="M542.523,754L549.616,754C556.708,754,570.893,754,582.152,754C593.411,754,601.745,754,610.078,754C618.411,754,626.745,754,652.247,754C677.75,754,720.422,754,763.094,754C805.766,754,848.438,754,873.94,754C899.443,754,907.776,754,931.945,754C956.115,754,996.12,754,1036.125,754C1076.13,754,1116.135,754,1153.979,717.765C1191.823,681.53,1227.505,609.059,1245.346,572.824L1263.187,536.589" id="my-svg-L_VCC_CODE_0" class="edge-thickness-normal edge-pattern-solid edge-thickness-normal edge-pattern-solid flowchart-link" style=";" data-edge="true" data-et="edge" data-id="L_VCC_CODE_0" data-points="W3sieCI6NTQyLjUyMzQzNzUsInkiOjc1NH0seyJ4Ijo1ODUuMDc4MTI1LCJ5Ijo3NTR9LHsieCI6NjEwLjA3ODEyNSwieSI6NzU0fSx7IngiOjYzNS4wNzgxMjUsInkiOjc1NH0seyJ4Ijo3NjMuMDkzNzUsInkiOjc1NH0seyJ4Ijo4OTEuMTA5Mzc1LCJ5Ijo3NTR9LHsieCI6OTE2LjEwOTM3NSwieSI6NzU0fSx7IngiOjEwMzYuMTI1LCJ5Ijo3NTR9LHsieCI6MTE1Ni4xNDA2MjUsInkiOjc1NH0seyJ4IjoxMjY0Ljk1MzkwNjI1LCJ5Ijo1MzN9XQ==" data-look="classic" marker-end="url(#my-svg_flowchart-v2-pointEnd)"/><path d="M526.242,850.994L536.048,847.162C545.854,843.329,565.466,835.665,579.439,864.332C593.411,893,601.745,958,610.078,990.5C618.411,1023,626.745,1023,636.109,1024.096C645.474,1025.193,655.87,1027.385,661.068,1028.482L666.266,1029.578" id="my-svg-L_Z3_SMT_0" class="edge-thickness-normal edge-pattern-solid edge-thickness-normal edge-pattern-solid flowchart-link" style=";" data-edge="true" data-et="edge" data-id="L_Z3_SMT_0" data-points="W3sieCI6NTI2LjI0MjE4NzUsInkiOjg1MC45OTQxMTk2NDI2NTUyfSx7IngiOjU4NS4wNzgxMjUsInkiOjgyOH0seyJ4Ijo2MTAuMDc4MTI1LCJ5IjoxMDIzfSx7IngiOjYzNS4wNzgxMjUsInkiOjEwMjN9LHsieCI6NjcwLjE3OTY4NzUsInkiOjEwMzAuNDAzMzMyMTEyNzc5M31d" data-look="classic" marker-end="url(#my-svg_flowchart-v2-pointEnd)"/><path d="M866.109,626L870.276,626C874.443,626,882.776,626,891.109,626C899.443,626,907.776,626,919.893,621.495C932.01,616.991,947.911,607.981,955.862,603.477L963.812,598.972" id="my-svg-L_SPEC_MODEL_0" class="edge-thickness-normal edge-pattern-solid edge-thickness-normal edge-pattern-solid flowchart-link" style=";" data-edge="true" data-et="edge" data-id="L_SPEC_MODEL_0" data-points="W3sieCI6ODY2LjEwOTM3NSwieSI6NjI2fSx7IngiOjg5MS4xMDkzNzUsInkiOjYyNn0seyJ4Ijo5MTYuMTA5Mzc1LCJ5Ijo2MjZ9LHsieCI6OTY3LjI5MjUwOTE5MTE3NjUsInkiOjU5N31d" data-look="classic" marker-end="url(#my-svg_flowchart-v2-pointEnd)"/><path d="M1057.794,597L1074.186,626.5C1090.577,656,1123.359,715,1157.837,704.94C1192.315,694.879,1228.488,615.759,1246.575,576.198L1264.662,536.638" id="my-svg-L_MODEL_CODE_0" class="edge-thickness-normal edge-pattern-solid edge-thickness-normal edge-pattern-solid flowchart-link" style=";" data-edge="true" data-et="edge" data-id="L_MODEL_CODE_0" data-points="W3sieCI6MTA1Ny43OTQ0ODc4NDcyMjIyLCJ5Ijo1OTd9LHsieCI6MTE1Ni4xNDA2MjUsInkiOjc3NH0seyJ4IjoxMjY2LjMyNTUwMjIzMjE0MjgsInkiOjUzM31d" data-look="classic" marker-end="url(#my-svg_flowchart-v2-pointEnd)"/><path d="M1306.545,455L1324.149,424.333C1341.754,393.667,1376.963,332.333,1398.067,301.667C1419.172,271,1426.172,271,1429.672,271L1433.172,271" id="my-svg-L_CODE_BIN_0" class="edge-thickness-normal edge-pattern-solid edge-thickness-normal edge-pattern-solid flowchart-link" style=";" data-edge="true" data-et="edge" data-id="L_CODE_BIN_0" data-points="W3sieCI6MTMwNi41NDQ2MzI4NDc1MzM2LCJ5Ijo0NTV9LHsieCI6MTQxMi4xNzE4NzUsInkiOjI3MX0seyJ4IjoxNDM3LjE3MTg3NSwieSI6MjcxfV0=" data-look="classic" marker-end="url(#my-svg_flowchart-v2-pointEnd)"/><path d="M1046.213,519L1064.534,448.167C1082.855,377.333,1119.498,235.667,1159.155,164.833C1198.813,94,1241.484,94,1284.156,94C1326.828,94,1369.5,94,1412.172,94C1454.844,94,1497.516,94,1540.188,94C1582.859,94,1625.531,94,1651.034,94C1676.536,94,1684.87,94,1693.203,94C1701.536,94,1709.87,94,1717.536,94C1725.203,94,1732.203,94,1735.703,94L1739.203,94" id="my-svg-L_MODEL_SE_L4_0" class="edge-thickness-normal edge-pattern-solid edge-thickness-normal edge-pattern-solid flowchart-link" style=";" data-edge="true" data-et="edge" data-id="L_MODEL_SE_L4_0" data-points="W3sieCI6MTA0Ni4yMTI1MjAyMDQ3NDE0LCJ5Ijo1MTl9LHsieCI6MTE1Ni4xNDA2MjUsInkiOjk0fSx7IngiOjEyODQuMTU2MjUsInkiOjk0fSx7IngiOjE0MTIuMTcxODc1LCJ5Ijo5NH0seyJ4IjoxNTQwLjE4NzUsInkiOjk0fSx7IngiOjE2NjguMjAzMTI1LCJ5Ijo5NH0seyJ4IjoxNjkzLjIwMzEyNSwieSI6OTR9LHsieCI6MTcxOC4yMDMxMjUsInkiOjk0fSx7IngiOjE3NDMuMjAzMTI1LCJ5Ijo5NH1d" data-look="classic" marker-end="url(#my-svg_flowchart-v2-pointEnd)"/><path d="M1299.758,455L1318.494,408.167C1337.229,361.333,1374.701,267.667,1414.772,220.833C1454.844,174,1497.516,174,1540.188,174C1582.859,174,1625.531,174,1651.034,174C1676.536,174,1684.87,174,1693.203,174C1701.536,174,1709.87,174,1723.591,177.698C1737.311,181.397,1756.419,188.793,1765.973,192.492L1775.528,196.19" id="my-svg-L_CODE_COMP_0" class="edge-thickness-normal edge-pattern-solid edge-thickness-normal edge-pattern-solid flowchart-link" style=";" data-edge="true" data-et="edge" data-id="L_CODE_COMP_0" data-points="W3sieCI6MTI5OS43NTgxNTQyOTY4NzUsInkiOjQ1NX0seyJ4IjoxNDEyLjE3MTg3NSwieSI6MTc0fSx7IngiOjE1NDAuMTg3NSwieSI6MTc0fSx7IngiOjE2NjguMjAzMTI1LCJ5IjoxNzR9LHsieCI6MTY5My4yMDMxMjUsInkiOjE3NH0seyJ4IjoxNzE4LjIwMzEyNSwieSI6MTc0fSx7IngiOjE3NzkuMjU3ODEyNSwieSI6MTk3LjYzNDA3MjU4MDY0NTE1fV0=" data-look="classic" marker-end="url(#my-svg_flowchart-v2-pointEnd)"/><path d="M1327.57,533L1341.671,545.667C1355.771,558.333,1383.971,583.667,1419.408,596.333C1454.844,609,1497.516,609,1540.188,609C1582.859,609,1625.531,609,1651.034,609C1676.536,609,1684.87,609,1693.203,609C1701.536,609,1709.87,609,1718.852,609C1727.833,609,1737.464,609,1742.279,609L1747.094,609" id="my-svg-L_CODE_DO178_0" class="edge-thickness-normal edge-pattern-solid edge-thickness-normal edge-pattern-solid flowchart-link" style=";" data-edge="true" data-et="edge" data-id="L_CODE_DO178_0" data-points="W3sieCI6MTMyNy41NzAyNDQ1NjUyMTczLCJ5Ijo1MzN9LHsieCI6MTQxMi4xNzE4NzUsInkiOjYwOX0seyJ4IjoxNTQwLjE4NzUsInkiOjYwOX0seyJ4IjoxNjY4LjIwMzEyNSwieSI6NjA5fSx7IngiOjE2OTMuMjAzMTI1LCJ5Ijo2MDl9LHsieCI6MTcxOC4yMDMxMjUsInkiOjYwOX0seyJ4IjoxNzUxLjA5Mzc1LCJ5Ijo2MDl9XQ==" data-look="classic" marker-end="url(#my-svg_flowchart-v2-pointEnd)"/><path d="M1301.552,533L1319.989,574.333C1338.425,615.667,1375.299,698.333,1415.071,739.667C1454.844,781,1497.516,781,1540.188,781C1582.859,781,1625.531,781,1651.034,781C1676.536,781,1684.87,781,1693.203,781C1701.536,781,1709.87,781,1724.001,781C1738.133,781,1758.063,781,1768.027,781L1777.992,781" id="my-svg-L_CODE_RAIL_0" class="edge-thickness-normal edge-pattern-solid edge-thickness-normal edge-pattern-solid flowchart-link" style=";" data-edge="true" data-et="edge" data-id="L_CODE_RAIL_0" data-points="W3sieCI6MTMwMS41NTIxMDE0ODA4MzYyLCJ5Ijo1MzN9LHsieCI6MTQxMi4xNzE4NzUsInkiOjc4MX0seyJ4IjoxNTQwLjE4NzUsInkiOjc4MX0seyJ4IjoxNjY4LjIwMzEyNSwieSI6NzgxfSx7IngiOjE2OTMuMjAzMTI1LCJ5Ijo3ODF9LHsieCI6MTcxOC4yMDMxMjUsInkiOjc4MX0seyJ4IjoxNzgxLjk5MjE4NzUsInkiOjc4MX1d" data-look="classic" marker-end="url(#my-svg_flowchart-v2-pointEnd)"/><path d="M1049.46,597L1067.24,649C1085.02,701,1120.58,805,1159.696,857C1198.813,909,1241.484,909,1284.156,909C1326.828,909,1369.5,909,1412.172,909C1454.844,909,1497.516,909,1540.188,909C1582.859,909,1625.531,909,1651.034,909C1676.536,909,1684.87,909,1693.203,909C1701.536,909,1709.87,909,1720.341,909C1730.813,909,1743.422,909,1749.727,909L1756.031,909" id="my-svg-L_MODEL_RM_0" class="edge-thickness-normal edge-pattern-solid edge-thickness-normal edge-pattern-solid flowchart-link" style=";" data-edge="true" data-et="edge" data-id="L_MODEL_RM_0" data-points="W3sieCI6MTA0OS40NjAwNjk0NDQ0NDQzLCJ5Ijo1OTd9LHsieCI6MTE1Ni4xNDA2MjUsInkiOjkwOX0seyJ4IjoxMjg0LjE1NjI1LCJ5Ijo5MDl9LHsieCI6MTQxMi4xNzE4NzUsInkiOjkwOX0seyJ4IjoxNTQwLjE4NzUsInkiOjkwOX0seyJ4IjoxNjY4LjIwMzEyNSwieSI6OTA5fSx7IngiOjE2OTMuMjAzMTI1LCJ5Ijo5MDl9LHsieCI6MTcxOC4yMDMxMjUsInkiOjkwOX0seyJ4IjoxNzYwLjAzMTI1LCJ5Ijo5MDl9XQ==" data-look="classic" marker-end="url(#my-svg_flowchart-v2-pointEnd)"/><path d="M708.23,1089L696.038,1097.667C683.846,1106.333,659.462,1123.667,643.103,1132.333C626.745,1141,618.411,1141,610.078,1102.333C601.745,1063.667,593.411,986.333,580.093,945.878C566.775,905.423,548.471,901.847,539.32,900.058L530.168,898.27" id="my-svg-L_SMT_Z3_0" class="edge-thickness-normal edge-pattern-solid edge-thickness-normal edge-pattern-solid flowchart-link" style=";" data-edge="true" data-et="edge" data-id="L_SMT_Z3_0" data-points="W3sieCI6NzA4LjIyOTkxMDcxNDI4NTcsInkiOjEwODl9LHsieCI6NjM1LjA3ODEyNSwieSI6MTE0MX0seyJ4Ijo2MTAuMDc4MTI1LCJ5IjoxMTQxfSx7IngiOjU4NS4wNzgxMjUsInkiOjkwOX0seyJ4Ijo1MjYuMjQyMTg3NSwieSI6ODk3LjUwMjk0MDE3ODY3MjR9XQ==" data-look="classic" marker-end="url(#my-svg_flowchart-v2-pointEnd)"/><path d="M243.586,1178L250.277,1178C256.969,1178,270.352,1178,281.21,1178C292.068,1178,300.401,1178,326.539,1029.16C352.678,880.319,396.621,582.638,418.593,433.798L440.565,284.957" id="my-svg-L_ATP_ISABELLE_0" class="edge-thickness-normal edge-pattern-solid edge-thickness-normal edge-pattern-solid flowchart-link" style=";" data-edge="true" data-et="edge" data-id="L_ATP_ISABELLE_0" data-points="W3sieCI6MjQzLjU4NTkzNzUsInkiOjExNzh9LHsieCI6MjgzLjczNDM3NSwieSI6MTE3OH0seyJ4IjozMDguNzM0Mzc1LCJ5IjoxMTc4fSx7IngiOjQ0MS4xNDkwODg1NDE2NjY3LCJ5IjoyODF9XQ==" data-look="classic" marker-end="url(#my-svg_flowchart-v2-pointEnd)"/><path d="M258.734,1050L262.901,1050C267.068,1050,275.401,1050,283.734,1050C292.068,1050,300.401,1050,326.539,901.16C352.678,752.319,396.621,454.638,418.593,305.798L440.565,156.957" id="my-svg-L_ITP_COQ_0" class="edge-thickness-normal edge-pattern-solid edge-thickness-normal edge-pattern-solid flowchart-link" style=";" data-edge="true" data-et="edge" data-id="L_ITP_COQ_0" data-points="W3sieCI6MjU4LjczNDM3NSwieSI6MTA1MH0seyJ4IjoyODMuNzM0Mzc1LCJ5IjoxMDUwfSx7IngiOjMwOC43MzQzNzUsInkiOjEwNTB9LHsieCI6NDQxLjE0OTA4ODU0MTY2NjcsInkiOjE1M31d" data-look="classic" marker-end="url(#my-svg_flowchart-v2-pointEnd)"/><path d="M858.383,1178L863.837,1178C869.292,1178,880.201,1178,889.822,1096.667C899.443,1015.333,907.776,852.667,925.587,756.327C943.398,659.987,970.686,629.973,984.331,614.966L997.975,599.96" id="my-svg-L_REF_MODEL_0" class="edge-thickness-normal edge-pattern-solid edge-thickness-normal edge-pattern-solid flowchart-link" style=";" data-edge="true" data-et="edge" data-id="L_REF_MODEL_0" data-points="W3sieCI6ODU4LjM4MjgxMjUsInkiOjExNzh9LHsieCI6ODkxLjEwOTM3NSwieSI6MTE3OH0seyJ4Ijo5MTYuMTA5Mzc1LCJ5Ijo2OTB9LHsieCI6MTAwMC42NjU4MzgwNjgxODE5LCJ5Ijo1OTd9XQ==" data-look="classic" marker-end="url(#my-svg_flowchart-v2-pointEnd)"/><path d="M1643.203,271L1647.37,271C1651.536,271,1659.87,271,1668.203,271C1676.536,271,1684.87,271,1693.203,271C1701.536,271,1709.87,271,1723.564,268.726C1737.258,266.451,1756.312,261.903,1765.84,259.629L1775.367,257.354" id="my-svg-L_BIN_COMP_0" class="edge-thickness-normal edge-pattern-solid edge-thickness-normal edge-pattern-solid flowchart-link" style=";" data-edge="true" data-et="edge" data-id="L_BIN_COMP_0" data-points="W3sieCI6MTY0My4yMDMxMjUsInkiOjI3MX0seyJ4IjoxNjY4LjIwMzEyNSwieSI6MjcxfSx7IngiOjE2OTMuMjAzMTI1LCJ5IjoyNzF9LHsieCI6MTcxOC4yMDMxMjUsInkiOjI3MX0seyJ4IjoxNzc5LjI1NzgxMjUsInkiOjI1Ni40MjU2NTUyNDE5MzU1fV0=" data-look="classic" marker-end="url(#my-svg_flowchart-v2-pointEnd)"/></g><g class="edgeLabels"><g class="edgeLabel"><g class="label" data-id="L_TLA_MODEL_0" transform="translate(0, 0)"><foreignObject width="0" height="0"><div xmlns="http://www.w3.org/1999/xhtml" class="labelBkg" style="display: table-cell; white-space: nowrap; line-height: 1.5; max-width: 200px; text-align: center;"><span class="edgeLabel"></span></div></foreignObject></g></g><g class="edgeLabel"><g class="label" data-id="L_ALLOY_SPEC_0" transform="translate(0, 0)"><foreignObject width="0" height="0"><div xmlns="http://www.w3.org/1999/xhtml" class="labelBkg" style="display: table-cell; white-space: nowrap; line-height: 1.5; max-width: 200px; text-align: center;"><span class="edgeLabel"></span></div></foreignObject></g></g><g class="edgeLabel"><g class="label" data-id="L_COQ_CODE_0" transform="translate(0, 0)"><foreignObject width="0" height="0"><div xmlns="http://www.w3.org/1999/xhtml" class="labelBkg" style="display: table-cell; white-space: nowrap; line-height: 1.5; max-width: 200px; text-align: center;"><span class="edgeLabel"></span></div></foreignObject></g></g><g class="edgeLabel"><g class="label" data-id="L_ISABELLE_CODE_0" transform="translate(0, 0)"><foreignObject width="0" height="0"><div xmlns="http://www.w3.org/1999/xhtml" class="labelBkg" style="display: table-cell; white-space: nowrap; line-height: 1.5; max-width: 200px; text-align: center;"><span class="edgeLabel"></span></div></foreignObject></g></g><g class="edgeLabel"><g class="label" data-id="L_SPIN_MODEL_0" transform="translate(0, 0)"><foreignObject width="0" height="0"><div xmlns="http://www.w3.org/1999/xhtml" class="labelBkg" style="display: table-cell; white-space: nowrap; line-height: 1.5; max-width: 200px; text-align: center;"><span class="edgeLabel"></span></div></foreignObject></g></g><g class="edgeLabel"><g class="label" data-id="L_VCC_CODE_0" transform="translate(0, 0)"><foreignObject width="0" height="0"><div xmlns="http://www.w3.org/1999/xhtml" class="labelBkg" style="display: table-cell; white-space: nowrap; line-height: 1.5; max-width: 200px; text-align: center;"><span class="edgeLabel"></span></div></foreignObject></g></g><g class="edgeLabel"><g class="label" data-id="L_Z3_SMT_0" transform="translate(0, 0)"><foreignObject width="0" height="0"><div xmlns="http://www.w3.org/1999/xhtml" class="labelBkg" style="display: table-cell; white-space: nowrap; line-height: 1.5; max-width: 200px; text-align: center;"><span class="edgeLabel"></span></div></foreignObject></g></g><g class="edgeLabel"><g class="label" data-id="L_SPEC_MODEL_0" transform="translate(0, 0)"><foreignObject width="0" height="0"><div xmlns="http://www.w3.org/1999/xhtml" class="labelBkg" style="display: table-cell; white-space: nowrap; line-height: 1.5; max-width: 200px; text-align: center;"><span class="edgeLabel"></span></div></foreignObject></g></g><g class="edgeLabel"><g class="label" data-id="L_MODEL_CODE_0" transform="translate(0, 0)"><foreignObject width="0" height="0"><div xmlns="http://www.w3.org/1999/xhtml" class="labelBkg" style="display: table-cell; white-space: nowrap; line-height: 1.5; max-width: 200px; text-align: center;"><span class="edgeLabel"></span></div></foreignObject></g></g><g class="edgeLabel"><g class="label" data-id="L_CODE_BIN_0" transform="translate(0, 0)"><foreignObject width="0" height="0"><div xmlns="http://www.w3.org/1999/xhtml" class="labelBkg" style="display: table-cell; white-space: nowrap; line-height: 1.5; max-width: 200px; text-align: center;"><span class="edgeLabel"></span></div></foreignObject></g></g><g class="edgeLabel"><g class="label" data-id="L_MODEL_SE_L4_0" transform="translate(0, 0)"><foreignObject width="0" height="0"><div xmlns="http://www.w3.org/1999/xhtml" class="labelBkg" style="display: table-cell; white-space: nowrap; line-height: 1.5; max-width: 200px; text-align: center;"><span class="edgeLabel"></span></div></foreignObject></g></g><g class="edgeLabel"><g class="label" data-id="L_CODE_COMP_0" transform="translate(0, 0)"><foreignObject width="0" height="0"><div xmlns="http://www.w3.org/1999/xhtml" class="labelBkg" style="display: table-cell; white-space: nowrap; line-height: 1.5; max-width: 200px; text-align: center;"><span class="edgeLabel"></span></div></foreignObject></g></g><g class="edgeLabel"><g class="label" data-id="L_CODE_DO178_0" transform="translate(0, 0)"><foreignObject width="0" height="0"><div xmlns="http://www.w3.org/1999/xhtml" class="labelBkg" style="display: table-cell; white-space: nowrap; line-height: 1.5; max-width: 200px; text-align: center;"><span class="edgeLabel"></span></div></foreignObject></g></g><g class="edgeLabel"><g class="label" data-id="L_CODE_RAIL_0" transform="translate(0, 0)"><foreignObject width="0" height="0"><div xmlns="http://www.w3.org/1999/xhtml" class="labelBkg" style="display: table-cell; white-space: nowrap; line-height: 1.5; max-width: 200px; text-align: center;"><span class="edgeLabel"></span></div></foreignObject></g></g><g class="edgeLabel"><g class="label" data-id="L_MODEL_RM_0" transform="translate(0, 0)"><foreignObject width="0" height="0"><div xmlns="http://www.w3.org/1999/xhtml" class="labelBkg" style="display: table-cell; white-space: nowrap; line-height: 1.5; max-width: 200px; text-align: center;"><span class="edgeLabel"></span></div></foreignObject></g></g><g class="edgeLabel"><g class="label" data-id="L_SMT_Z3_0" transform="translate(0, 0)"><foreignObject width="0" height="0"><div xmlns="http://www.w3.org/1999/xhtml" class="labelBkg" style="display: table-cell; white-space: nowrap; line-height: 1.5; max-width: 200px; text-align: center;"><span class="edgeLabel"></span></div></foreignObject></g></g><g class="edgeLabel"><g class="label" data-id="L_ATP_ISABELLE_0" transform="translate(0, 0)"><foreignObject width="0" height="0"><div xmlns="http://www.w3.org/1999/xhtml" class="labelBkg" style="display: table-cell; white-space: nowrap; line-height: 1.5; max-width: 200px; text-align: center;"><span class="edgeLabel"></span></div></foreignObject></g></g><g class="edgeLabel"><g class="label" data-id="L_ITP_COQ_0" transform="translate(0, 0)"><foreignObject width="0" height="0"><div xmlns="http://www.w3.org/1999/xhtml" class="labelBkg" style="display: table-cell; white-space: nowrap; line-height: 1.5; max-width: 200px; text-align: center;"><span class="edgeLabel"></span></div></foreignObject></g></g><g class="edgeLabel"><g class="label" data-id="L_REF_MODEL_0" transform="translate(0, 0)"><foreignObject width="0" height="0"><div xmlns="http://www.w3.org/1999/xhtml" class="labelBkg" style="display: table-cell; white-space: nowrap; line-height: 1.5; max-width: 200px; text-align: center;"><span class="edgeLabel"></span></div></foreignObject></g></g><g class="edgeLabel"><g class="label" data-id="L_BIN_COMP_0" transform="translate(0, 0)"><foreignObject width="0" height="0"><div xmlns="http://www.w3.org/1999/xhtml" class="labelBkg" style="display: table-cell; white-space: nowrap; line-height: 1.5; max-width: 200px; text-align: center;"><span class="edgeLabel"></span></div></foreignObject></g></g></g><g class="nodes"><g class="node default" id="my-svg-flowchart-TLA-0" data-look="classic" transform="translate(446.90625, 370)"><rect class="basic label-container" style="fill:#e3f2fd !important;stroke:#333 !important" x="-113.171875" y="-39" width="226.34375" height="78"/><g class="label" style="" transform="translate(-83.171875, -24)"><rect/><foreignObject width="166.34375" height="48"><div xmlns="http://www.w3.org/1999/xhtml" style="display: table-cell; white-space: nowrap; line-height: 1.5; max-width: 200px; text-align: center;"><span class="nodeLabel"><p>TLA+ 时序逻辑<br />Lamport / Amazon AWS</p></span></div></foreignObject></g></g><g class="node default" id="my-svg-flowchart-ALLOY-1" data-look="classic" transform="translate(446.90625, 626)"><rect class="basic label-container" style="" x="-82.0859375" y="-39" width="164.171875" height="78"/><g class="label" style="" transform="translate(-52.0859375, -24)"><rect/><foreignObject width="104.171875" height="48"><div xmlns="http://www.w3.org/1999/xhtml" style="display: table-cell; white-space: nowrap; line-height: 1.5; max-width: 200px; text-align: center;"><span class="nodeLabel"><p>Alloy 约束求解<br />Jackson / MIT</p></span></div></foreignObject></g></g><g class="node default" id="my-svg-flowchart-COQ-2" data-look="classic" transform="translate(446.90625, 114)"><rect class="basic label-container" style="fill:#e8f5e9 !important;stroke:#333 !important" x="-111.015625" y="-39" width="222.03125" height="78"/><g class="label" style="" transform="translate(-81.015625, -24)"><rect/><foreignObject width="162.03125" height="48"><div xmlns="http://www.w3.org/1999/xhtml" style="display: table-cell; white-space: nowrap; line-height: 1.5; max-width: 200px; text-align: center;"><span class="nodeLabel"><p>Coq 构造演算<br />归纳类型 / 证明即程序</p></span></div></foreignObject></g></g><g class="node default" id="my-svg-flowchart-ISABELLE-3" data-look="classic" transform="translate(446.90625, 242)"><rect class="basic label-container" style="fill:#e8f5e9 !important;stroke:#333 !important" x="-103.015625" y="-39" width="206.03125" height="78"/><g class="label" style="" transform="translate(-73.015625, -24)"><rect/><foreignObject width="146.03125" height="48"><div xmlns="http://www.w3.org/1999/xhtml" style="display: table-cell; white-space: nowrap; line-height: 1.5; max-width: 200px; text-align: center;"><span class="nodeLabel"><p>Isabelle/HOL<br />高阶逻辑 / 自动证明</p></span></div></foreignObject></g></g><g class="node default" id="my-svg-flowchart-SPIN-4" data-look="classic" transform="translate(446.90625, 498)"><rect class="basic label-container" style="" x="-82.9453125" y="-39" width="165.890625" height="78"/><g class="label" style="" transform="translate(-52.9453125, -24)"><rect/><foreignObject width="105.890625" height="48"><div xmlns="http://www.w3.org/1999/xhtml" style="display: table-cell; white-space: nowrap; line-height: 1.5; max-width: 200px; text-align: center;"><span class="nodeLabel"><p>SPIN / NuSMV<br />模型检验 / LTL</p></span></div></foreignObject></g></g><g class="node default" id="my-svg-flowchart-VCC-5" data-look="classic" transform="translate(446.90625, 754)"><rect class="basic label-container" style="" x="-95.6171875" y="-39" width="191.234375" height="78"/><g class="label" style="" transform="translate(-65.6171875, -24)"><rect/><foreignObject width="131.234375" height="48"><div xmlns="http://www.w3.org/1999/xhtml" style="display: table-cell; white-space: nowrap; line-height: 1.5; max-width: 200px; text-align: center;"><span class="nodeLabel"><p>VCC / Frama-C<br />C 代码验证 / ACSL</p></span></div></foreignObject></g></g><g class="node default" id="my-svg-flowchart-Z3-6" data-look="classic" transform="translate(446.90625, 882)"><rect class="basic label-container" style="" x="-79.3359375" y="-39" width="158.671875" height="78"/><g class="label" style="" transform="translate(-49.3359375, -24)"><rect/><foreignObject width="98.671875" height="48"><div xmlns="http://www.w3.org/1999/xhtml" style="display: table-cell; white-space: nowrap; line-height: 1.5; max-width: 200px; text-align: center;"><span class="nodeLabel"><p>Z3 SMT Solver<br />微软研究院</p></span></div></foreignObject></g></g><g class="node default" id="my-svg-flowchart-SPEC-7" data-look="classic" transform="translate(763.09375, 626)"><rect class="basic label-container" style="" x="-103.015625" y="-39" width="206.03125" height="78"/><g class="label" style="" transform="translate(-73.015625, -24)"><rect/><foreignObject width="146.03125" height="48"><div xmlns="http://www.w3.org/1999/xhtml" style="display: table-cell; white-space: nowrap; line-height: 1.5; max-width: 200px; text-align: center;"><span class="nodeLabel"><p>规约层<br />需求形式化 / 不变量</p></span></div></foreignObject></g></g><g class="node default" id="my-svg-flowchart-MODEL-8" data-look="classic" transform="translate(1036.125, 558)"><rect class="basic label-container" style="" x="-95.015625" y="-39" width="190.03125" height="78"/><g class="label" style="" transform="translate(-65.015625, -24)"><rect/><foreignObject width="130.03125" height="48"><div xmlns="http://www.w3.org/1999/xhtml" style="display: table-cell; white-space: nowrap; line-height: 1.5; max-width: 200px; text-align: center;"><span class="nodeLabel"><p>模型层<br />抽象状态机 / 精化</p></span></div></foreignObject></g></g><g class="node default" id="my-svg-flowchart-CODE-9" data-look="classic" transform="translate(1284.15625, 494)"><rect class="basic label-container" style="" x="-103.015625" y="-39" width="206.03125" height="78"/><g class="label" style="" transform="translate(-73.015625, -24)"><rect/><foreignObject width="146.03125" height="48"><div xmlns="http://www.w3.org/1999/xhtml" style="display: table-cell; white-space: nowrap; line-height: 1.5; max-width: 200px; text-align: center;"><span class="nodeLabel"><p>代码层<br />程序验证 / 类型系统</p></span></div></foreignObject></g></g><g class="node default" id="my-svg-flowchart-BIN-10" data-look="classic" transform="translate(1540.1875, 271)"><rect class="basic label-container" style="" x="-103.015625" y="-39" width="206.03125" height="78"/><g class="label" style="" transform="translate(-73.015625, -24)"><rect/><foreignObject width="146.03125" height="48"><div xmlns="http://www.w3.org/1999/xhtml" style="display: table-cell; white-space: nowrap; line-height: 1.5; max-width: 200px; text-align: center;"><span class="nodeLabel"><p>二进制层<br />机器码验证 / 反编译</p></span></div></foreignObject></g></g><g class="node default" id="my-svg-flowchart-SE_L4-11" data-look="classic" transform="translate(1873.203125, 94)"><rect class="basic label-container" style="fill:#c8e6c9 !important;stroke:#333 !important" x="-130" y="-51" width="260" height="102"/><g class="label" style="" transform="translate(-100, -36)"><rect/><foreignObject width="200" height="72"><div xmlns="http://www.w3.org/1999/xhtml" style="display: table; white-space: break-spaces; line-height: 1.5; max-width: 200px; text-align: center; width: 200px;"><span class="nodeLabel"><p>seL4 微内核<br />Isabelle/HOL 完全正确性证明</p></span></div></foreignObject></g></g><g class="node default" id="my-svg-flowchart-COMP-12" data-look="classic" transform="translate(1873.203125, 234)"><rect class="basic label-container" style="fill:#c8e6c9 !important;stroke:#333 !important" x="-93.9453125" y="-39" width="187.890625" height="78"/><g class="label" style="" transform="translate(-63.9453125, -24)"><rect/><foreignObject width="127.890625" height="48"><div xmlns="http://www.w3.org/1999/xhtml" style="display: table-cell; white-space: nowrap; line-height: 1.5; max-width: 200px; text-align: center;"><span class="nodeLabel"><p>CompCert 编译器<br />Coq 语义保持证明</p></span></div></foreignObject></g></g><g class="node default" id="my-svg-flowchart-DO178-13" data-look="classic" transform="translate(1873.203125, 609)"><rect class="basic label-container" style="" x="-122.109375" y="-39" width="244.21875" height="78"/><g class="label" style="" transform="translate(-92.109375, -24)"><rect/><foreignObject width="184.21875" height="48"><div xmlns="http://www.w3.org/1999/xhtml" style="display: table-cell; white-space: nowrap; line-height: 1.5; max-width: 200px; text-align: center;"><span class="nodeLabel"><p>DO-178C 飞控<br />Formally Verified Avionics</p></span></div></foreignObject></g></g><g class="node default" id="my-svg-flowchart-RAIL-14" data-look="classic" transform="translate(1873.203125, 781)"><rect class="basic label-container" style="" x="-91.2109375" y="-39" width="182.421875" height="78"/><g class="label" style="" transform="translate(-61.2109375, -24)"><rect/><foreignObject width="122.421875" height="48"><div xmlns="http://www.w3.org/1999/xhtml" style="display: table-cell; white-space: nowrap; line-height: 1.5; max-width: 200px; text-align: center;"><span class="nodeLabel"><p>B Method 铁路<br />巴黎地铁 14 号线</p></span></div></foreignObject></g></g><g class="node default" id="my-svg-flowchart-RM-15" data-look="classic" transform="translate(1873.203125, 909)"><rect class="basic label-container" style="fill:#fff3e0 !important;stroke:#333 !important" x="-113.171875" y="-39" width="226.34375" height="78"/><g class="label" style="" transform="translate(-83.171875, -24)"><rect/><foreignObject width="166.34375" height="48"><div xmlns="http://www.w3.org/1999/xhtml" style="display: table-cell; white-space: nowrap; line-height: 1.5; max-width: 200px; text-align: center;"><span class="nodeLabel"><p>Rate-Monotonic 调度<br />Liu &amp; Layland 定理证明</p></span></div></foreignObject></g></g><g class="node default" id="my-svg-flowchart-SMT-16" data-look="classic" transform="translate(763.09375, 1050)"><rect class="basic label-container" style="" x="-92.9140625" y="-39" width="185.828125" height="78"/><g class="label" style="" transform="translate(-62.9140625, -24)"><rect/><foreignObject width="125.828125" height="48"><div xmlns="http://www.w3.org/1999/xhtml" style="display: table-cell; white-space: nowrap; line-height: 1.5; max-width: 200px; text-align: center;"><span class="nodeLabel"><p>SMT 求解<br />Z3 / CVC5 / Yices</p></span></div></foreignObject></g></g><g class="node default" id="my-svg-flowchart-ATP-17" data-look="classic" transform="translate(145.8671875, 1178)"><rect class="basic label-container" style="" x="-97.71875" y="-39" width="195.4375" height="78"/><g class="label" style="" transform="translate(-67.71875, -24)"><rect/><foreignObject width="135.4375" height="48"><div xmlns="http://www.w3.org/1999/xhtml" style="display: table-cell; white-space: nowrap; line-height: 1.5; max-width: 200px; text-align: center;"><span class="nodeLabel"><p>自动定理证明<br />Vampire / E Prover</p></span></div></foreignObject></g></g><g class="node default" id="my-svg-flowchart-ITP-18" data-look="classic" transform="translate(145.8671875, 1050)"><rect class="basic label-container" style="" x="-112.8671875" y="-39" width="225.734375" height="78"/><g class="label" style="" transform="translate(-82.8671875, -24)"><rect/><foreignObject width="165.734375" height="48"><div xmlns="http://www.w3.org/1999/xhtml" style="display: table-cell; white-space: nowrap; line-height: 1.5; max-width: 200px; text-align: center;"><span class="nodeLabel"><p>交互式证明<br />CoqIDE / Isabelle/jEdit</p></span></div></foreignObject></g></g><g class="node default" id="my-svg-flowchart-REF-19" data-look="classic" transform="translate(763.09375, 1178)"><rect class="basic label-container" style="" x="-95.2890625" y="-39" width="190.578125" height="78"/><g class="label" style="" transform="translate(-65.2890625, -24)"><rect/><foreignObject width="130.578125" height="48"><div xmlns="http://www.w3.org/1999/xhtml" style="display: table-cell; white-space: nowrap; line-height: 1.5; max-width: 200px; text-align: center;"><span class="nodeLabel"><p>精化框架<br />Event-B / Z / VDM</p></span></div></foreignObject></g></g></g></g></g><defs><filter id="my-svg-drop-shadow" height="130%" width="130%"><feDropShadow dx="4" dy="4" stdDeviation="0" flood-opacity="0.06" flood-color="#000000"/></filter></defs><defs><filter id="my-svg-drop-shadow-small" height="150%" width="150%"><feDropShadow dx="2" dy="2" stdDeviation="0" flood-opacity="0.06" flood-color="#000000"/></filter></defs></svg>